<svg version="1.2" xmlns="http://www.w3.org/2000/svg" viewBox="0 0 1024 1536" width="1024" height="1536"><style>.a{opacity:.99;fill:#031c25}.b{opacity:.91;fill:#0e2629}.c{opacity:1;fill:#febb28}.d{opacity:.99;fill:#007a7d}.e{opacity:1;fill:#fee328}</style><path fill-rule="evenodd" class="a" d="m853 174.4c7.8 0.3 16 1.2 21.8 2.5 5 1.2 12.9 3.5 17.4 5.1 4.6 1.7 11.2 4.7 14.8 6.6 3.6 2 9.4 5.7 13 8.2 3.6 2.6 10.1 8.3 14.5 12.7 4.4 4.4 10.6 11.8 13.7 16.5 3 4.7 6.8 11 8.3 14 1.5 3 4 9.1 5.6 13.5 1.5 4.4 3.5 11.6 4.4 16 0.9 4.4 2 14.9 2.3 23.3 0.6 11.8 0.4 15.2-0.5 15.2q-1.3 0-0.7 2.7c0.3 1.6 0 5.3-0.6 8.3-0.6 3-1.9 7.9-2.8 10.8-0.9 2.9-2 5.2-2.5 5.2-0.4 0-0.4 0.6-0.1 1.2 0.3 0.7-0.2 2.1-1.1 3-0.9 1-1.4 1.8-1.1 1.8 0.3 0 0.1 1.4-0.4 3q-1 3-2.3 2.3-1.2-0.8-0.5 0.5c0.5 0.6 0.6 1.9 0.3 2.7-0.3 0.8-1 1.3-1.5 1-0.5-0.3-0.8 0.2-0.5 1 0.3 0.8-0.1 1.7-0.8 2-0.6 0.3-1.2 1.1-1.3 1.8 0 0.6-0.8 2.4-1.7 3.9-0.9 1.6-2.2 2.6-2.7 2.3-0.5-0.3-1 0.3-1 1.2-0.1 1-2.6 4.9-5.8 8.7-3.1 3.8-7.3 8.1-9.2 9.7-1.9 1.6-3.9 2.5-4.4 2.1-0.5-0.4-0.6-0.3-0.3 0.3 0.4 0.6-1 2.4-3.1 4.1-2 1.6-5.7 4.4-8.2 6.1-2.5 1.7-5.1 3.3-5.9 3.4-0.8 0.2-2.1 1.1-3 1.9-0.9 0.9-5 3-9.1 4.7-4.1 1.7-11.3 4.3-16 5.6-4.7 1.4-13.2 3-19 3.6-5.8 0.6-12.8 1.1-15.5 1.1-2.8 0-4.5-0.4-3.9-0.8 0.7-0.4-2.7-0.7-7.4-0.7-6 0-8.6-0.4-8.9-1.3-0.1-0.6-0.9-1-1.6-0.6-0.6 0.3-4.1-0.2-7.7-1.1-3.6-1-9.3-2.8-12.8-4.1-3.4-1.3-6.2-2.8-6.2-3.4 0-0.6-0.3-0.8-0.7-0.6-0.5 0.3-3.4-1-6.6-2.7-3.2-1.8-5.4-3.6-5-4.1 0.5-0.5 0.3-0.6-0.4-0.3-0.7 0.4-2.2-0.2-3.3-1.3-1.1-1.1-2.2-2-2.5-2-0.3 0-3.4-2.3-7-5-4.1-3.1-6.3-5.5-5.8-6.3 0.3-0.6 0.2-0.9-0.3-0.4-0.5 0.4-2.4-0.7-4.2-2.5-1.8-1.8-3.2-3.9-3.2-4.6 0-0.6-0.5-1.2-1-1.2-0.5 0-3.1-2.8-5.6-6.3-2.5-3.4-7-11.1-10.1-17.2-3-6.1-5.5-12.4-5.6-14.2-0.1-1.8-0.6-2.8-1.2-2.5-0.6 0.4-0.7 0-0.2-1.1 0.4-0.9 0.3-1.7-0.3-1.7-0.5 0-1.5-2.8-2.1-6.3-0.7-3.4-0.9-7-0.5-8 0.3-1 0.2-1.5-0.4-1.2-0.6 0.3-1.1-1.5-1.2-4.3-0.1-2.6-0.2-10.6-0.1-17.7 0-8.2 0.7-16.1 1.8-21.5 0.9-4.7 3.2-12.6 4.9-17.5 1.8-4.9 5.4-12.8 8.2-17.4 2.7-4.5 8.1-12.2 12-17 4-4.7 9.6-10.7 12.5-13.2 3-2.5 8.3-6.6 11.9-9.1 3.6-2.5 9.6-6.1 13.5-8.1 3.9-1.9 11.5-4.9 17-6.7 5.5-1.7 13.8-3.8 18.5-4.5 5.3-0.9 13.2-1.3 21-1.1zm-34.3 25.7c-3.4 1.2-9.6 3.8-13.7 5.9-4.1 2.1-10.4 5.9-14 8.6-3.6 2.6-8.7 7.1-11.4 9.8-2.7 2.8-6.9 7.8-9.4 11.1-2.4 3.3-5.9 8.9-7.7 12.5-1.8 3.6-4.5 10.1-5.9 14.5-1.4 4.4-3 11.1-3.6 15-0.5 3.9-1 11.7-0.9 17.5 0 5.8 0.6 13.9 1.3 18 0.8 4.1 2.8 11.3 4.5 16 1.8 4.7 4.8 11.4 6.9 15 2 3.6 6.2 9.6 9.3 13.5 3.1 3.9 8.1 9.1 11 11.6 3 2.5 8.5 6.7 12.4 9.1 3.9 2.5 9.7 5.7 13 7.1 3.3 1.4 9.6 3.5 14 4.7 4.5 1.2 12.8 2.4 19 2.7 6.7 0.4 14.3 0.1 19.5-0.6 4.7-0.7 12.1-2.4 16.5-3.8 4.4-1.4 11.8-4.5 16.5-6.9 4.7-2.4 12.1-7.3 16.5-10.9 4.4-3.6 10.4-9.3 13.3-12.7 3-3.5 7.1-9.2 9.2-12.8 2.1-3.6 5.2-9.9 6.8-14 1.6-4.1 3.8-11.3 4.8-16 1.2-5.7 1.7-12.6 1.7-21 0-7.4-0.7-15.4-1.6-19.5-0.9-3.9-2.3-9.3-3.2-12-1-2.8-2.9-7.5-4.3-10.5-1.4-3-4.5-8.7-7-12.5-2.5-3.9-7.9-10.5-12.1-14.8-4.2-4.4-11.2-10.3-15.6-13.2-4.4-3-11.1-6.7-15-8.4-3.9-1.6-10.8-3.9-15.5-5.1-5.5-1.4-12.9-2.3-21-2.5-8.5-0.3-15 0-20.3 1-4.2 0.8-10.5 2.4-14 3.6zm-658.3 183.9c1.7 0.4 4.2 1.3 5.6 2 1.4 0.7 8.1 6.4 15 12.6 6.9 6.3 17.4 15.2 23.5 19.9 6 4.7 15.7 11.6 21.5 15.2 5.8 3.7 15.9 9.2 22.5 12.4 6.6 3.1 16.9 7.3 23 9.2 6 1.9 14.6 4 19 4.7 4.4 0.7 10.2 1 13 0.6 2.7-0.3 11.7-2.6 20-5.1 8.2-2.5 21.1-6.1 28.5-8 7.4-1.9 18.7-4.3 25-5.4 6.3-1.1 16.2-2.6 22-3.2 5.8-0.6 20.4-1.2 32.5-1.2 12.1 0 26.5 0.5 32 1.2 5.5 0.7 15.2 2.1 21.5 3.2 6.3 1.1 17.1 3.4 24 5.1 6.9 1.6 19.2 5.3 27.5 8.1 14 4.8 15.6 5.1 24.5 5.1 8.2-0.1 11-0.6 20.5-3.8 6-2 16.2-6.2 22.5-9.3 6.3-3.2 16.9-9.3 23.5-13.6 6.6-4.4 17.2-12.1 23.5-17.2 6.3-5.1 17.1-14.3 24-20.5 8.8-7.9 13.6-11.4 16.3-12.1 2.5-0.6 5.1-0.6 7.5 0 2 0.6 4.7 2 5.8 3.3 1.2 1.3 2.8 3.7 3.7 5.3 0.8 1.6 2.2 5.7 3.1 9 0.8 3.3 2.4 12.3 3.5 20 1.5 10.8 1.9 18.5 1.8 33.7-0.1 10.8-0.4 19.5-0.7 19.3-0.3-0.1-0.4 1.5-0.3 3.6 0.2 2.2-0.2 3.9-0.7 3.9-0.6 0-0.7 1.3-0.3 3.2 0.4 2 0.3 3.1-0.2 2.7-0.6-0.4-0.9 0.4-0.8 1.7 0.2 1.3-0.2 2.4-0.7 2.4-0.6 0-0.8 0.4-0.5 1 0.3 0.5 0.3 2.4 0 4-0.3 1.6-1 2.8-1.5 2.5-0.6-0.3-0.7 0.1-0.4 0.7 0.3 0.7-1.1 5-6.6 17.8l4.7-0.7c2.7-0.4 6-0.7 7.5-0.8 1.6 0 2.8-0.3 2.8-0.8 0-0.4 2.7-0.7 6-0.7 5.3 0 6.3 0.3 9 3 2.3 2.3 3 3.9 3 6.7 0 2.1-0.9 6.5-2 9.8-1.1 3.3-3.8 9.7-6 14.2-2.8 5.8-4.4 8.1-5.2 7.5q-1.3-0.7-0.5 0.5c0.4 0.8-1.6 4.3-5.2 9-3.2 4.3-8.7 10.5-12.2 13.8-3.5 3.4-7.8 7.1-9.4 8.3-1.7 1.2-3.2 2-3.5 1.9-0.3-0.1-0.4 0-0.2 0.3 0.1 0.3-0.8 1.2-2 2-1.3 0.8-2.4 2.1-2.6 2.7-0.1 0.7 0.1 1.3 0.5 1.3 0.5-0.1 3.2 5.8 6 13 3 7.3 5 13.5 4.6 14.2-0.6 1-0.4 1 0.7 0.3 1.2-0.8 1.3-0.6 0.7 1.2-0.5 1.7-0.4 2.1 0.5 1.5 0.9-0.5 1-0.2 0.5 1-0.4 1-0.4 1.8 0 1.8 0.5 0 1.3 1.7 2 3.7 0.7 2.1 1 4.1 0.7 4.5-0.2 0.5 0 0.8 0.6 0.8 0.5 0 0.8 0.9 0.5 2-0.3 1.1-0.1 1.8 0.5 1.5 0.5-0.3 1.1 0.3 1.2 1.2 0 1 0.2 2.3 0.2 2.9 0.1 0.6 0.5 0.9 1.1 0.5 0.5-0.4 0.6 0.3 0.2 1.6-0.5 1.7-0.4 2.1 0.5 1.5 0.9-0.5 1 0 0.5 2-0.4 1.8-0.3 2.6 0.3 2.3 0.5-0.3 1.2 0.6 1.5 2 0.3 1.4 0.2 3.1-0.2 3.7q-0.8 1.3 0.5 0.5c0.8-0.5 1.4 0.2 1.7 2.3 0.3 1.6 0.3 3.5 0 4-0.3 0.5-0.1 1 0.5 1 0.5 0 0.8 0.8 0.5 1.7-0.3 1 0 2.1 0.7 2.5 0.7 0.4 1.3 2.3 1.3 4.2 0 1.9 0.3 3.2 0.7 3 0.5-0.2 0.9 0.8 1 2.3 0.1 1.6 0.2 3.6 0.2 4.5 0.1 1 0.4 1.8 0.8 1.8 0.5 0 0.7 1.5 0.5 3.4-0.1 1.9 0 3.3 0.3 3.1 0.3-0.2 1.3 4.7 2.3 10.8 1 6.2 2.2 17.7 2.7 25.7 0.5 8 0.6 19.8 0.2 26.3-0.4 6.4-0.9 11.7-1.2 11.7-0.3 0-0.6 2.6-0.7 5.8-0.1 3.1-0.5 6.4-0.9 7.2-0.4 0.8-0.6 2.3-0.6 3.2q0.2 1.8-1 1c-0.9-0.5-1-0.3-0.4 0.8 0.5 0.8 0.6 3 0.2 4.7-0.3 1.8-0.9 3.1-1.4 2.9-0.4-0.2-0.8 1-0.9 2.7-0.1 1.8-0.5 3.4-1 3.7-0.4 0.3-0.8 1.1-0.8 1.7 0 0.7-0.1 2-0.3 2.8-0.1 0.8-0.5 1.3-1 1.1-0.4-0.2-0.7 0.2-0.8 0.8 0 0.6-0.2 1.9-0.2 2.8-0.1 1-0.7 1.6-1.2 1.3-0.6-0.3-0.8 0.1-0.5 0.7 0.3 0.7-0.6 3-2 5-1.4 2.1-2.5 4.3-2.5 4.8 0 0.5-1.8 3.9-4 7.5-2.2 3.6-4.5 6.3-5 6-0.6-0.3-0.8 0.1-0.5 0.7 0.3 0.7-2.2 4.3-5.7 8-3.5 3.7-7.9 8.3-13.3 13.6l7 8.4c3.9 4.6 8.3 10 9.8 12 1.6 2.2 2.4 4.3 2 5q-0.8 1.3 0.5 0.5c0.8-0.5 2.5 1.4 5.2 5.8 2.4 3.8 3.7 7 3.2 7.7q-0.7 1.3 0.5 0.5c0.8-0.4 1.7 0.1 2.3 1.3 0.5 1.1 0.8 2.5 0.5 3-0.3 0.5 0.1 1.2 0.7 1.5 0.7 0.2 2.8 3.1 4.5 6.5 1.9 3.4 3 6.5 2.5 7.2-0.5 1-0.3 1 0.8 0.3 1.2-0.8 1.3-0.6 0.7 0.7-0.5 1.3-0.3 1.6 0.5 1 0.9-0.5 1-0.2 0.5 1-0.4 1.1-0.3 1.6 0.3 1.3 0.5-0.3 1.4 0.9 2 2.5 0.5 1.6 0.8 3 0.5 3-0.3 0 0.2 0.7 1 1.5 0.8 0.8 1.3 2.3 1 3.2-0.3 1 0.1 2.5 1 3.3 0.9 0.8 3.1 6.2 5 12 1.9 5.8 4.1 13.4 5 17 0.9 3.6 1.4 7.1 1.1 7.7-0.4 0.7-0.2 1.1 0.4 0.8 0.5-0.3 0.9 0.3 0.8 1.2 0 1 0.2 2.5 0.7 3.3 0.4 0.8 0.4 2.3 0.1 3.2-0.3 1-0.2 1.8 0.4 1.8 0.5 0 0.9 1.8 0.7 4-0.1 2.2 0.1 4 0.5 4 0.5 0 0.7 2 0.5 4.5-0.1 2.5 0.1 4.5 0.5 4.5 0.5 0 0.8 5.7 0.8 12.7 0 7.1-0.3 13.2-0.7 13.6-0.5 0.5-0.7 2.6-0.6 4.8 0.2 2.1 0 4.5-0.4 5.1-0.3 0.7-0.8 3.3-1 5.8-0.2 2.5-0.7 4.7-1.1 5-0.4 0.3-0.8 2.1-1 4-0.1 1.9-0.7 3.6-1.2 3.7-0.6 0.2-0.8 1-0.5 1.8 0.3 0.8 0 1.5-0.5 1.5-0.6 0-0.7 0.6-0.4 1.2 0.3 0.7 0.1 2.6-0.6 4.3-0.7 1.7-2.9 6.5-4.9 10.7-2.1 4.5-4 7.4-4.6 7-0.6-0.4-0.7-0.2-0.2 0.5 0.4 0.8-1.2 4.2-4 8.5-2.7 4-9.6 12.1-15.5 18-6 6-11.3 10.6-11.8 10.3-0.6-0.3-1 0-1 0.5 0 0.5-2.4 2.5-5.3 4.3-2.8 1.8-9 5.2-13.7 7.5-4.7 2.4-9.1 4.2-9.8 4.2-0.6 0-1.4 1.5-1.7 3.2-0.3 1.8-1.2 6.3-2 10-0.9 3.8-1.9 6.6-2.5 6.3-0.6-0.3-0.7 0.1-0.4 0.7 0.3 0.7-0.6 4.7-2.2 8.8-1.5 4.1-4.2 10.5-6 14.2-2.3 4.7-3.8 6.6-4.7 6.1q-1.2-0.8-0.5 0.5c0.5 0.6 0.6 1.9 0.3 2.7-0.3 0.8-1.2 1.5-2 1.5-0.9 0-1.3 0.6-1 1.5 0.3 0.9-1.2 3.2-3.8 5.7-2.3 2.4-3.3 3.7-2.2 2.9 1.1-0.7 0.4 0.1-1.5 1.9-1.9 1.8-2.8 2.9-2 2.4 1.3-0.7 1.3-0.5 0.2 0.9-0.6 0.9-1.8 1.4-2.5 1-0.6-0.3-0.9-0.2-0.4 0.3 0.4 0.5-0.3 1.9-1.5 3.1-1.3 1.2-2.8 2-3.3 1.6-0.6-0.3-0.7-0.2-0.2 0.3 0.4 0.5-0.7 2.4-2.5 4.2-1.8 1.8-3.5 3.2-3.8 3.2-0.3-0.1-2.3 1.5-4.5 3.5-2.2 2-5.2 4.1-6.8 4.8-1.5 0.7-2.7 1.5-2.7 1.9 0 0.5-0.5 0.6-1 0.3-0.6-0.3-1.2 0.2-1.5 1-0.3 0.8-1 1.3-1.5 1-0.6-0.3-1-0.2-1 0.2 0 0.5-2.8 2.3-6.2 4.2-6.2 3.4-6.2 3.5-3.6 4.3 1.6 0.4 2.8 1.3 2.8 1.8 0 0.5 0.3 0.9 0.7 0.9 0.5-0.1 1.4-0.1 2 0 0.8 0 1 0.6 0.6 1.3q-0.8 1.3 0.5 0.5c0.6-0.4 2.5 0 4.2 0.8 1.6 0.8 3 2 3 2.5 0 0.5 0.3 0.8 0.7 0.6 0.5-0.3 3.3 1.4 6.3 3.8 3 2.3 6.9 6 8.6 8.2 1.8 2.1 4.3 6 5.8 8.6 1.4 2.7 3.3 7.4 4.1 10.5 0.8 3.2 1.5 7.5 1.5 9.5 0 2.1-0.5 3.8-1 3.8-0.6 0-0.7 0.7-0.3 1.5 0.5 1 0.1 2.1-1.2 3.1-1.1 0.9-1.4 1.3-0.8 1 1-0.5 1.1-0.1 0.3 1.4-0.6 1.1-1.6 2.3-2.2 2.7-0.9 0.6-1 0.4-0.4-0.7 0.6-0.9 0.6-1.2 0-0.7-0.5 0.5-0.9 1.4-0.9 2 0 0.6-1.8 2.2-4 3.4-2.2 1.3-4.8 2.1-5.8 1.8-0.9-0.3-1.7 0-1.7 0.5 0 0.7-18.8 1-54.5 1-35.3 0-54.7-0.4-55-1-0.3-0.5-1-0.8-1.5-0.5-0.6 0.3-2.6-0.2-4.5-1-1.9-0.8-4.3-2.8-5.3-4.4-0.9-1.7-2-2.8-2.5-2.5-0.4 0.2-1.1-0.4-1.7-1.4-0.5-0.9-0.7-2-0.3-2.5 0.3-0.4 0.1-0.7-0.5-0.7-0.7 0-1-0.7-0.7-1.5 0.3-0.8 0-1.5-0.5-1.5-0.6 0-0.8-0.9-0.5-2 0.3-1.1 0-2.2-0.5-2.5-0.6-0.3-1-2.9-1-5.8 0-2.8 0.2-5.4 0.5-5.7 0.3-0.3 0.7-2.5 0.9-5 0.1-2.5 0.7-6.3 2-12.5l-4 0.9c-2.1 0.4-15.2 0.9-28.9 1.1-18.1 0.2-25.2 0-25.7-0.8-0.6-0.9-0.8-0.9-0.8 0 0 1-2.9 1.1-26-0.2l1.5 5.5c0.8 3 1.3 5.7 1.3 6-0.1 0.3 0.2 3 0.6 6 0.5 3.3 0.4 7.8-0.3 11.2-0.6 3.2-1.8 6.5-2.7 7.3-0.8 0.8-1.2 1.5-0.7 1.5 0.4 0-0.1 0.7-1.2 1.5-1.1 0.9-1.6 1.5-1 1.5 0.5 0 0.1 0.9-1 2.1-1.1 1.2-3.8 3.1-6 4.3-4 2.1-4.6 2.1-119.2 2.1l-4.9-3.1c-2.7-1.7-4.9-3.7-4.9-4.6 0-0.9-0.3-1.4-0.8-1.2-0.4 0.2-0.7-0.1-0.7-0.6 0-0.5 0-1.3 0.1-1.8 0-0.4-0.5-1-1.3-1.4-0.9-0.5-1.4-3.2-1.6-8.3-0.1-5.7 0.1-7.3 1-6.8 0.9 0.6 1 0.2 0.5-1.5-0.4-1.3-0.3-2.2 0.3-2.2 0.5 0 0.8-0.6 0.6-1.3-0.3-0.6 0-1.8 0.7-2.5 0.6-0.6 0.8-1.2 0.4-1.2-0.4 0 0.2-1.8 1.3-4q2-4 3.2-3.3c0.9 0.6 1 0.4 0.4-0.7-0.6-1.1 0.3-2.6 3-5.3 2.2-2 4.5-3.7 5.1-3.7 0.7 0 1.1-0.5 0.8-1-0.3-0.5 1.2-2.2 3.3-3.8 2.1-1.5 5.5-3.6 7.5-4.7 2.1-1.1 3.7-2.3 3.7-2.8 0-0.4-1.7-1.2-3.8-1.8-2-0.6-7.5-3.1-12.2-5.5-4.7-2.3-9.7-5.4-11.3-6.8-1.5-1.4-2.7-2.4-2.7-2.1 0 0.3-2.1-1-4.6-2.8-2.6-1.7-8.3-7.1-12.8-11.9-4.4-4.7-8.8-9.9-9.6-11.5-0.8-1.5-2.1-3.4-2.8-4.1-0.6-0.6-1-1.7-0.7-2.2 0.3-0.5 0-1-0.5-1-0.6 0-1.9-1.9-2.9-4.3-1.1-2.3-1.8-4.5-1.5-5 0.2-0.4-0.1-0.7-0.6-0.7-0.6 0-0.9-0.6-0.7-1.3 0.2-0.6-0.3-1.9-1-2.7-0.8-0.8-1.2-2.1-0.9-2.8 0.3-0.6 0.1-1.4-0.4-1.7-0.6-0.3-1-1-1-1.5 0-0.5 0.6-0.7 1.2-0.3 0.7 0.3 0.6-0.2-0.3-1.3-1-1-1.9-2.8-2.1-3.9q-0.3-2-3.1-2.3c-1.5-0.1-2.7-0.7-2.7-1.2 0-0.5-0.9-0.8-2-0.5-1.1 0.3-2 0-2-0.5 0-0.5-0.6-0.8-1.3-0.5-0.6 0.3-5.7-1-11.2-3-5.5-2-13.6-5.3-18-7.5-4.4-2.1-9.3-5.2-10.9-6.7-1.6-1.5-2.6-2.1-2.1-1.3 0.8 1.3 0.7 1.3-1.1 0-1-0.8-2.1-1.9-2.4-2.3-0.3-0.5-1-0.9-1.5-1-0.6-0.1-0.8-0.7-0.6-1.2 0.2-0.6-0.3-0.7-1.3-0.3-1.1 0.6-2.7-0.3-5.3-3-2.1-2-3.3-3-2.9-2.2 0.5 0.8-0.4 0.4-2-1-1.6-1.3-7-6.5-12.1-11.5-5.1-4.9-9-9.3-8.8-9.8 0.3-0.4-0.1-1-0.7-1.5q-1.3-0.7-0.5 0.5c0.4 0.7 0.5 1.3 0.2 1.3-0.3 0-3.2-3.6-6.5-8-3.4-4.6-5.7-8.5-5.3-9.3 0.3-0.6 0.2-0.9-0.3-0.4-0.5 0.4-2.4-2-4.2-5.3-1.8-3.4-2.9-6.5-2.5-7.3q0.8-1.2-0.5-0.5c-0.8 0.6-2.4-2.3-5.2-10-2.2-5.9-3.8-11.5-3.5-12.5 0.3-0.9 0-1.7-0.5-1.7-0.6 0-0.8-1.2-0.5-2.8 0.4-2.1 0.3-2.4-0.5-1.2-0.9 1.2-1.1 0.8-0.8-1.6 0.2-1.8 0.1-3-0.2-2.9-0.3 0.2-0.8-1.5-1.3-3.8-0.4-2.3-0.5-5.8-0.2-7.7 0.5-2.5 0.4-3.1-0.4-2-0.7 1-1-3.4-1-14.5 0-8.8 0.4-20 1-25 0.5-5 1.7-12.4 2.5-16.5 0.8-4.1 3.6-13.6 6-21 2.5-7.4 7.3-18.8 10.7-25.2 3.5-6.5 6.6-11.5 7.2-11.1 0.5 0.3 0.7 0.2 0.3-0.3-0.4-0.5 0.2-2.6 1.5-4.6 1.2-2 2.4-3.6 2.7-3.4 0.3 0.2 0.5-0.1 0.6-0.7 0-0.7 1.3-3.1 2.7-5.5 1.8-2.7 3.1-3.9 3.9-3.5q1.3 0.8 0.5-0.5c-0.4-0.7 0.9-3.3 3.4-6.5 2.2-2.8 6.6-7.6 9.7-10.6 3.1-3 4.8-4.8 3.7-4-1.5 1-1.4 0.6 0.5-1.5 1.4-1.5 7.2-6.9 13-12 5.8-5 13.1-11 16.2-13.4 3.2-2.3 5.8-4.5 5.8-5 0-0.4-1.6-2.3-3.6-4.2-1.9-1.9-5.9-6.6-8.8-10.5-2.9-3.9-6.9-10-8.9-13.8-2.1-3.8-3.4-7.2-3-8q0.8-1.2-0.5-0.5c-0.8 0.6-2.1-1.5-4.1-7-1.6-4.2-3.4-9.5-4.1-11.7-0.6-2.2-0.9-4.6-0.6-5.3 0.4-0.7 0.2-0.9-0.6-0.5-0.9 0.6-1 0.1-0.5-2 0.5-2 0.4-2.5-0.5-2-0.9 0.6-1 0.1-0.5-2 0.4-1.7 0.3-2.5-0.3-2.2-0.6 0.3-1.3-1.9-1.6-5.3-0.4-3.1-0.4-6.3 0-7 0.3-0.6 0.1-1.2-0.4-1.2-0.6 0-0.9-2.8-0.8-6.9 0.2-3.8 0-7.3-0.5-7.8-0.4-0.4-0.8-3.7-0.8-7.3 0-3.6 0.4-6.9 0.8-7.3 0.5-0.5 0.7-3.6 0.5-7-0.2-3.4 0.2-10.2 0.7-15.2 0.6-5 2.3-15.8 3.8-24.2 1.6-8.3 3-15 3.3-14.8 0.3 0.2 0.5-0.9 0.6-2.3 0-1.5 0.4-3.6 0.9-4.7 0.4-1.1 0.9-3.1 1.1-4.5 0.2-1.4 0.7-3.2 1-4 0.4-0.8 0.9-2.4 1.1-3.5 0.2-1.1 1.3-4.7 2.4-8 1-3.3 1.9-6.3 1.9-6.8 0-0.4 0.5-1.9 1.2-3.5 0.6-1.5 1.2-2.9 1.2-3.2 0.1-0.3 0.8-2.7 1.6-5.3 0.8-2.6 1.9-4.7 2.5-4.7 0.5 0 0.7-0.3 0.3-0.7-0.4-0.5 0.4-3.7 1.6-7.3 1.3-3.6 3.3-8.8 6.5-16.5l-5.9-3.5c-3.3-1.9-5.7-3.8-5.5-4.3 0.3-0.4 0.2-0.6-0.3-0.6-0.4 0.1-1.3 0.1-2 0-0.6 0-1-0.6-0.7-1.1 0.3-0.5-0.2-0.8-1-0.5-0.8 0.3-2.1-0.4-2.8-1.5-0.6-1.1-1.5-2-2-2-0.4 0-2.5-1.4-4.7-3-2.6-1.9-3.7-3.5-3.3-4.3q0.8-1.2-0.5-0.5c-0.8 0.5-3.8-2.1-8.7-7.5-4.1-4.5-9.9-12.2-12.8-17.2-2.9-5-6.6-11.9-8.2-15.5-1.6-3.6-3.1-8.8-3.3-11.5-0.4-4.2-0.1-5.5 2-8 1.4-1.6 3.8-3.3 5.4-3.7 1.6-0.4 6.4-0.2 10.7 0.5 4.2 0.7 7.7 1.4 7.7 1.7 0 0.3 1.5 0.3 6.5-0.3l-3.8-8.3c-2-4.6-3.6-8.7-3.5-9.2 0.1-0.4-0.4-2.1-1.1-3.7-0.7-1.6-1.9-6.8-2.7-11.5-0.9-4.7-1.8-16.4-2.1-26-0.4-13.1-0.1-21 1.2-31.5 0.9-7.7 2.3-17.1 3.1-21 0.8-3.9 2.6-9.4 3.9-12.3 1.4-2.8 3.7-6 5.2-6.9 1.6-1 4.1-2 5.7-2.3 1.6-0.4 4.3-0.3 6 0zm149.1 214.5c-2.8 1-7.3 2.9-10 4.3-2.8 1.3-7.5 4.2-10.5 6.2-3 2.1-8 6.4-11.1 9.6-3.1 3.3-7.2 8.4-9.1 11.4-2 3-4.7 8.2-6.1 11.5-1.4 3.3-3.2 8.5-4.2 11.5-0.9 3-2 9.8-2.6 15-0.6 6.2-0.5 12.7 0.1 18.5 0.6 5 1.9 11.7 2.9 15 1.1 3.3 3 8.5 4.3 11.5 1.3 3 3.9 7.7 5.8 10.5 1.9 2.7 6.1 7.9 9.4 11.4 3.4 3.5 8.8 8.2 12.1 10.4 3.3 2.2 8.9 5.4 12.5 7 3.6 1.6 10.3 3.8 15 4.8 5.3 1.2 12.4 1.9 19 1.9 6.8 0 13.7-0.7 19.5-2 4.9-1.1 12.4-3.6 16.5-5.6 4.1-2 10.2-5.5 13.5-7.8 3.3-2.4 8.6-7.2 11.9-10.7 3.2-3.5 7.6-9.3 9.7-12.9 2-3.6 5.1-10.5 6.8-15.5 1.6-5 3.5-12.8 4.1-17.5 0.6-4.7 0.9-11.8 0.5-16-0.4-4.1-1.6-11.1-2.6-15.5-1.1-4.4-3.7-11.6-5.9-16-2.2-4.4-6-10.7-8.4-14-2.5-3.3-7.8-8.8-11.8-12.2-4-3.5-10.9-8.1-15.3-10.3-4.4-2.2-11.6-5-16-6.1-5-1.3-12.3-2.2-19.5-2.5-7.2-0.2-14.1 0.2-18.5 1-3.9 0.8-9.3 2.2-12 3.1zm213 1.1c-3.3 1.4-8.9 4.5-12.5 6.9-3.6 2.4-9.6 7.4-13.3 11.2-3.8 3.7-8.8 9.9-11.2 13.8-2.4 3.9-5.6 9.9-7 13.5-1.4 3.6-3.2 9.9-4.1 14-0.9 4.1-1.5 11.9-1.5 17.2 0.1 5.4 0.6 10.8 1.3 12 0.6 1.3 7.5 10.6 15.2 20.8 7.6 10.2 16.7 22.8 20.2 28 3.4 5.2 6.8 10.8 7.6 12.3 1 2.1 2.7 3.2 7.3 4.7 3.3 1.1 9.1 2.7 13 3.5 3.8 0.8 11.5 1.5 17 1.5 7.3 0 12.6-0.6 19.5-2.3 5.2-1.3 13.1-4.3 17.5-6.5 4.4-2.3 10.8-6.5 14.2-9.4 3.4-2.9 8.5-8.2 11.3-11.8 2.9-3.6 6.8-9.5 8.6-13.3 1.9-3.7 4.5-10.4 5.8-15 1.4-4.6 2.7-12.6 3.1-18.2 0.5-7.4 0.3-12.4-0.9-19.3-0.9-5-3-12.9-4.8-17.5-1.7-4.5-5.3-11.3-7.9-15.2-2.6-3.9-7.8-9.9-11.6-13.5-3.7-3.6-10.2-8.5-14.3-11-4.1-2.5-10.4-5.5-14-6.8-3.6-1.3-9.8-3-13.8-3.8-3.9-0.8-11.1-1.4-16-1.3-4.8 0-11.9 0.7-15.7 1.6-3.9 0.8-9.7 2.6-13 3.9zm274.1-162.6c4.4 0 10.3 0.7 13.1 1.5 3.7 1.1 5.1 1.9 4.6 2.7q-0.8 1.3 0.5 0.5c0.6-0.4 1.9-0.5 2.7-0.2 0.9 0.3 1.2 1 0.8 1.7q-0.8 1.3 0.5 0.5c0.6-0.4 2.3 0 3.7 0.8 1.6 0.9 2.2 2 1.7 2.7-0.4 0.8-0.3 1 0.3 0.6 0.5-0.4 2.7 0.9 4.8 3 2 2 3.4 4 3.1 4.4-0.4 0.5-0.2 0.8 0.4 0.8 0.7 0 2.3 2.5 3.7 5.5 1.4 3 2.3 5.9 2 6.5-0.3 0.5-0.1 1 0.5 1 0.5 0 0.9 1.3 0.7 2.9-0.1 1.6 0.1 2.7 0.5 2.5 0.5-0.2 0.8 2.6 0.8 6.3 0 3.8-0.6 9-1.4 11.8-0.7 2.7-2.1 6.8-3.2 9-1 2.2-4.4 6.6-7.4 9.9-3 3.2-7.3 6.9-9.5 8.2-2.2 1.3-6 3-8.5 3.9-2.7 1-7.7 1.6-12.5 1.7-4.4 0-9.9-0.6-12.2-1.4-2.4-0.7-3.9-1.7-3.5-2.3 0.4-0.6 0.2-0.7-0.6-0.3-0.6 0.5-2.3 0.2-3.7-0.5-1.3-0.6-2.1-1.7-1.7-2.2 0.4-0.6 0.2-0.7-0.6-0.3-0.7 0.5-2.4-0.4-4.2-2.2-1.7-1.7-3.3-3-3.8-3.1-0.4 0-1.8-1.4-3.2-3.2-1.4-1.7-1.8-2.7-1-2.2 0.8 0.4 0.3-0.4-1.3-1.8-1.5-1.5-2.5-3.4-2.2-4.2 0.3-0.8 0-1.3-0.5-1-0.6 0.3-1.7-1.6-2.6-4.3-0.8-2.6-1.8-8.1-2.1-12.2-0.4-5.3-0.1-9.4 1.1-13.8 0.9-3.4 2.6-8.1 3.7-10.5 1.2-2.3 5.3-7.2 9-11 3.8-3.7 7.3-6.5 7.9-6.2 0.5 0.3 1-0.1 1-0.8 0-0.6 0.2-0.9 0.5-0.5 0.3 0.5 1.1 0.1 1.8-0.7 0.9-1.1 2.1-1.3 3.7-0.8 2 0.5 2.3 0.4 1.5-0.7-0.8-1.1-0.5-1.3 1.6-0.9 1.5 0.2 2.4 0.1 2.2-0.4-0.3-0.4 3-0.7 7.3-0.7zm-12 25.8c-2.2 1.5-4.9 4.7-6.2 7.4-1.8 3.5-2.4 6.5-2.4 11 0 4.7 0.6 7.5 2.3 10.8 1.4 2.6 4.1 5.8 6.8 7.6 2.4 1.7 6.2 3.4 8.4 3.8 2.2 0.4 6 0.4 8.5 0 2.5-0.4 6.5-2.1 8.9-3.8 2.5-1.8 5.4-5 6.8-7.6 1.7-3.2 2.4-6.2 2.4-10.5 0.1-4.3-0.6-7.4-2.3-10.9-1.2-2.7-3.7-6.1-5.4-7.5-1.8-1.4-4.9-3.2-7-3.8-2.2-0.7-5.7-1.2-7.9-1.2-2.2 0-5.1 0.5-6.5 1-1.4 0.6-4.2 2.2-6.4 3.7z"/><path class="b" d="m717.4 455c0 6.3 0.1 8.8 0.3 5.5 0.2-3.3 0.2-8.5 0-11.5-0.2-3-0.3-0.3-0.3 6zm-625 561c0 5.2 0.1 7.3 0.3 4.5 0.2-2.8 0.2-7 0-9.5-0.2-2.5-0.3-0.2-0.3 5zm40.6 101.5c3.6 3.6 6.7 6.5 7 6.5 0.3 0-2.3-2.9-5.7-6.5-3.4-3.6-6.5-6.5-7-6.5-0.4 0 2.1 2.9 5.7 6.5z"/><path fill-rule="evenodd" class="c" d="m163.7 412.5c1.3 1.1 2.1 2.2 1.8 2.5-0.3 0.3 0.3 1.3 1.3 2.3 0.9 0.9 2.4 1.8 3.2 2 0.8 0.1 2.1 0.6 2.8 1 0.6 0.4 1 1 0.7 1.5-0.2 0.4 0.3 1.5 1.3 2.5 0.9 1 2.4 1.6 3.2 1.5 0.8-0.2 1.4 0.3 1.3 1-0.2 0.6 0.3 1.7 1 2.2 0.6 0.6 2.1 1.2 3.2 1.4 1.1 0.2 1.9 0.9 1.8 1.5-0.2 0.6 0.5 1.5 1.5 2 0.9 0.5 2 0.9 2.5 1 0.4 0.1 0.6 0.3 0.5 0.4-0.2 0.2 0.4 1.2 1.2 2.1 0.8 0.9 2.1 1.5 2.8 1.2 0.6-0.3 1-0.2 0.7 0.4-0.3 0.6 0.3 1.4 1.3 2 0.9 0.5 2.1 0.6 2.5 0.2 0.5-0.4 0.7 0 0.5 0.8-0.2 0.9 0.4 1.5 1.7 1.5 1.1 0 2 0.7 2 1.5 0 0.8 0.8 1.5 1.7 1.5 0.8 0 1.4 0.3 1.2 0.8-0.2 0.4 0.2 0.8 0.9 0.8 0.6 0.1 1.5 0.1 2 0 0.4 0 0.6 0.5 0.5 1.1-0.2 0.8 0.5 1.2 1.7 1.1 1.1-0.2 1.7 0.1 1.3 0.5-0.5 0.4 0.1 1.3 1.2 1.9 1.1 0.7 2.4 1.1 3 0.8 0.6-0.3 0.9 0.1 0.8 0.7-0.2 0.7 0.4 1.3 1.3 1.3 0.9 0 1.4 0.4 1 1-0.4 0.6 0.1 0.7 1.2 0.2q1.7-0.7 1.5 0.5c-0.2 0.7 0.4 1.3 1.3 1.3 0.9 0 1.4 0.4 1 1-0.4 0.6 0.1 0.7 1.2 0.2 1.2-0.5 1.5-0.3 1 0.5-0.6 0.9-0.3 1 1 0.5 1.2-0.5 1.5-0.3 1 0.5-0.6 0.9-0.3 1 1 0.5 1.2-0.5 1.5-0.3 1 0.5-0.6 0.9-0.3 1 1 0.5 1-0.4 1.5-0.3 1.2 0.3-0.3 0.6 0.5 1.5 1.8 2.1 1.2 0.6 2.8 0.8 3.5 0.5 0.7-0.4 0.9-0.2 0.5 0.6-0.6 0.9-0.3 1 1 0.5 1.2-0.5 1.5-0.3 1 0.5-0.6 0.9-0.3 1 1 0.5 1.2-0.5 1.5-0.3 1 0.5-0.6 0.9-0.3 1 1 0.5 1.2-0.5 1.5-0.3 1 0.5-0.6 0.9-0.3 1 1 0.5 1-0.4 1.5-0.3 1.2 0.3-0.3 0.6 0.4 1.2 1.5 1.5 1.1 0.3 2.6 0.2 3.2-0.3q1.3-0.7 0.5 0.5c-0.4 0.8 0 1.5 1.3 1.8 1.1 0.3 2.6 0.2 3.2-0.3q1.3-0.7 0.5 0.5c-0.5 0.9 1.2 1.9 5.6 3.4 3.7 1.2 7.2 1.8 8.7 1.4 2-0.5 2.2-0.4 1 0.5-1.2 0.9-0.8 1 2 0.6 2.7-0.5 3.1-0.3 2 0.5-1.1 0.8-0.7 0.9 2 0.5 2.7-0.5 3.1-0.3 2 0.5-1.1 0.8-0.7 0.9 2 0.5 2.7-0.5 3.1-0.3 2 0.5-1.1 0.8-0.2 0.9 3.5 0.5 3.4-0.4 4.5-0.3 3.5 0.4-1 0.7 1.4 1 8 1 5.2 0 11.1-0.3 13-0.6 2.6-0.5 3.1-0.8 2-1.5-1-0.6-0.2-0.7 2-0.3 2.8 0.4 3.2 0.3 2-0.6-1.2-0.9-1.1-1 0.8-0.6 1.2 0.4 6.5-0.8 12.2-2.7 6-1.9 9.4-3.5 8.7-4-0.7-0.4 0.2-0.4 1.8 0 2.5 0.6 2.8 0.5 2-0.7-0.8-1.2-0.7-1.3 0.5-0.6 0.9 0.5 4 0.1 8.2-1 4-1.1 6.2-2.2 5.5-2.6-0.7-0.5 0.4-0.5 2.3-0.2 2.6 0.4 3.1 0.3 2-0.5-1.1-0.8-0.5-0.9 2.5-0.5 3 0.4 3.6 0.3 2.5-0.5-1.1-0.8-0.5-0.9 2.5-0.6 3.1 0.4 3.5 0.3 2-0.4-1.5-0.8-0.8-0.9 2.5-0.5 3.4 0.4 4.1 0.3 3-0.5-1.2-0.9-1-1 1-0.6 1.4 0.4 7.9-0.2 14.5-1.2 9.2-1.3 18.3-1.7 39-1.7 20.1 0 30.2 0.4 39.5 1.7 6.9 1 13.4 1.5 14.5 1.2 1.6-0.5 1.7-0.4 0.5 0.3-1.1 0.8-0.4 1.2 3 1.6 2.5 0.4 5.4 0.4 6.5 0 1.7-0.5 1.8-0.4 0.5 0.6-1.2 0.9-0.7 1.1 2.5 0.6 3-0.4 3.6-0.3 2.5 0.5-1.1 0.8-0.6 0.9 2 0.5 2.3-0.4 3-0.3 2 0.3-1.1 0.7-0.5 1 2.3 1.5 2 0.3 4.3 0.3 4.9-0.2 0.8-0.4 1-0.3 0.6 0.3-0.4 0.6 1.1 1.6 3.5 2.4 2.6 0.8 4.8 1 5.7 0.5 1.2-0.7 1.3-0.6 0.5 0.6-0.8 1.2-0.6 1.3 1.3 0.7 1.6-0.5 2-0.4 1.5 0.5-0.6 0.9 0 1 2.2 0.5 1.6-0.4 2.5-0.4 1.8 0-0.8 0.5 1.5 1.7 6 3.1 4 1.3 7.8 2.1 8.5 1.8 0.6-0.3 1-0.2 0.7 0.4-0.3 0.6 1.8 1.4 4.5 2 2.8 0.6 8.7 1 13.3 0.9 5.6 0 7.6-0.3 6.2-0.9-1.4-0.6-0.6-0.7 2.5-0.4 3.5 0.4 4.2 0.3 3-0.6-1.2-0.9-1.2-1 0.5-0.5 1.1 0.3 3.4 0.3 5-0.1 2.4-0.5 2.7-0.8 1.5-1.6-1.1-0.7-0.9-0.8 0.8-0.4 1.2 0.3 4.5-0.1 7.2-0.9 2.8-0.8 4.8-1.9 4.5-2.5-0.3-0.6 0.4-0.7 1.8-0.3 1.8 0.6 2 0.5 1.2-0.7-0.8-1.2-0.7-1.3 0.5-0.6 0.9 0.5 2.6 0.4 4.3-0.3 1.7-0.7 2.4-1.5 2-2.3-0.6-0.9-0.4-1 0.7-0.4 0.9 0.5 2.7 0.4 4.3-0.3 1.7-0.7 2.4-1.5 2-2.4q-0.8-1.2 0.5-0.5c0.6 0.5 1.9 0.6 2.7 0.3 0.8-0.3 1.3-0.8 1.1-1.3-0.2-0.4 0.4-0.7 1.3-0.7 0.9 0 1.5-0.6 1.4-1.3q-0.3-1.2 1.5-0.5c1 0.5 1.4 0.4 1.1-0.2-0.4-0.6 0.3-1 1.5-1 1.1 0 2-0.6 1.9-1.3-0.2-0.6 0.3-1 1-0.7 0.6 0.3 2.1-0.2 3.2-1 1.1-0.9 1.3-1.3 0.5-0.8-1 0.6-1.3 0.4-0.7-0.5 0.4-0.6 1.2-1 1.7-0.7 0.5 0.3 2.4-0.2 4-1 1.6-0.8 2.8-1.8 2.6-2.3-0.2-0.4 0.4-0.7 1.3-0.7 0.9 0 1.5-0.6 1.4-1.3-0.2-0.6 0-1.1 0.5-1.1 0.4 0.1 1.3 0.1 2 0 0.6 0 1-0.5 0.7-1.1-0.3-0.6 0.2-0.8 1-0.5 0.8 0.3 1.8-0.1 2.2-0.8 0.6-0.9 0.4-0.9-0.7-0.3-0.9 0.6-1.2 0.6-0.7 0 0.5-0.5 1.6-0.9 2.5-0.9 0.9 0 1.6-0.6 1.5-1.3-0.2-0.6 0-1 0.5-0.7 0.4 0.2 1.6-0.3 2.7-1.1 1.1-0.9 1.3-1.2 0.5-0.7-1 0.6-1.3 0.4-0.7-0.5 0.4-0.6 1-1 1.5-0.7 0.4 0.2 1.6-0.3 2.7-1.1 1.1-0.9 1.3-1.2 0.5-0.7-1.1 0.5-1.3 0.4-0.7-0.5 0.4-0.6 1.2-1 1.7-0.7 0.5 0.3 1.8-0.3 2.8-1.3 1.1-1 1.2-1.3 0.2-0.7-1.3 0.9-1.3 0.7-0.2-0.8 0.6-0.9 1.8-1.5 2.5-1.2 0.6 0.3 2.1-0.4 5.1-3.9 0.7 0.2 1.7-0.1 2.3-0.8 0.6-0.7 1.3-1.7 1.5-2.3 0.1-0.5 1-1.1 1.8-1.2 0.8-0.2 2.1-0.7 2.8-1.3 0.6-0.5 1-1.4 0.7-2-0.3-0.6 0.1-1.3 0.8-1.7 0.6-0.4 1.9-0.9 2.7-1 0.8-0.1 2.9-1.7 4.5-3.5 2.4-2.6 2.5-2.8-2 0.7l1.8-2.3c0.9-1.2 2.3-2 3-1.7 0.6 0.2 1.9-0.1 2.8-0.8 0.9-0.7 1.9-1.9 2.2-2.7 0.4-0.8 0.4 0.1 0.1 2-0.4 2.6-0.3 3.1 0.5 2 0.8-1.1 0.9-0.4 0.5 2.5-0.4 2.9-0.3 3.6 0.5 2.5 0.7-1.1 0.9-0.3 0.5 3-0.4 3.2-0.3 4.1 0.4 3 0.7-1 0.9 0.2 0.5 4-0.2 3-0.1 5 0.4 4.3 0.4-0.6 0.7 6.6 0.6 16-0.2 9.5-0.8 20.6-1.3 24.7-0.6 4.1-0.8 8.4-0.4 9.5 0.5 1.7 0.4 1.8-0.6 0.5-1-1.2-1.1-1-0.8 1.1 0.2 1.5-0.1 2.4-0.7 2-0.5-0.4-0.6 0.6-0.2 2.4q0.7 3-0.2 1.5c-0.7-1.2-1-0.9-1.5 1.3-0.3 1.5-0.3 3.3 0.1 4q0.8 1.2-0.5 0.5c-0.7-0.5-1.4-0.1-1.7 1.2-0.3 1.1-0.2 2.6 0.3 3.2 0.5 1 0.3 1-0.8 0.3-1.2-0.8-1.3-0.6-0.7 0.8 0.5 1.2 0.3 1.5-0.5 1-0.9-0.6-1-0.3-0.5 1 0.5 1.2 0.3 1.5-0.5 1-0.9-0.6-1-0.3-0.5 1q0.7 1.7-0.5 1.5c-0.7-0.2-1.2 0.5-1 1.5 0.1 0.9-0.4 1.6-1 1.5-0.7-0.2-1.3 0.6-1.3 1.7 0 1.1-0.7 2-1.5 2-0.8 0-1.4 0.7-1.3 1.5 0.1 0.8-1.1 2.6-5.2 6.5l2.5-3c1.3-1.6 0.1-0.7-2.8 2-2.9 2.8-5 5.6-4.7 6.3 0.3 0.6 0 1-0.5 0.7-0.6-0.3-1 1.2-1 3.5 0 2.3 0.4 3.8 1 3.5 0.6-0.3 0.7 0.2 0.3 1.3-0.5 1-0.4 1.5 0.2 1.1 0.6-0.4 1 0.1 1 1 0 0.9 0.7 1.6 1.6 1.6 0.9 0 1.5 0.3 1.3 0.8-0.2 0.4-0.1 0.7 0.4 0.8 0.4 0 4.5 0.2 9.2 0.3 4.7 0.2 10 0.2 11.8 0 1.7-0.2 3-0.7 2.8-1.1-0.2-0.5 0.8-0.7 2.3-0.5 1.5 0.2 2.1 0 1.5-0.5-0.7-0.5 0.3-0.8 2.6-0.8 2.1 0 4.2 0.4 4.7 0.9 0.5 0.6 0.2 0.6-0.7 0-1.1-0.7-1.3-0.5-0.7 0.9 0.5 1.2 0.3 1.5-0.5 1-0.9-0.6-1-0.3-0.5 1 0.5 1.2 0.3 1.5-0.5 1-0.9-0.6-1-0.3-0.5 1q0.7 1.7-0.5 1.5c-0.7-0.2-1.3 0.4-1.3 1.3 0 0.9-0.3 1.5-0.7 1.3-0.5-0.2-1.2 0.4-1.7 1.4-0.5 0.9-0.9 2.2-1 2.7-0.1 0.5-0.5 1-1 1-0.4 0-3.5 2.6-6.7 5.8-3.2 3.2-5.9 6.3-5.9 7 0 0.7-0.8 1.1-1.8 1-0.9-0.2-2 0.3-2.4 1-0.4 0.6-0.8 1.7-0.8 2.2 0 0.5-0.8 0.9-1.8 0.8-0.9-0.2-2 0.3-2.4 1-0.6 0.9-0.4 0.9 0.7 0.2 1.1-0.7 1.3-0.7 0.8 0.3-0.5 0.6-1.4 0.9-2 0.6-0.7-0.3-3.3 1-5.8 2.9-2.5 1.8-4.5 4.1-4.5 4.9 0 0.9-0.3 1.4-0.7 1.2-0.5-0.2-0.8 1.5-0.7 3.8 0.1 2.4 1.1 6.4 2.2 9 1.2 2.6 2.5 4.5 3 4.3 0.4-0.3 0.4 0.3 0 1.3-0.5 1.2-0.4 1.5 0.5 1 0.8-0.6 1-0.3 0.5 1-0.6 1.3-0.5 1.5 0.7 0.7 1.1-0.7 1.3-0.7 0.7 0.3-0.4 0.6-0.5 2.1-0.2 3.2 0.3 1.1 1 1.8 1.5 1.5 0.6-0.3 0.7 0.2 0.3 1.3-0.6 1.3-0.5 1.5 0.7 0.7 1.1-0.7 1.3-0.7 0.8 0.3-0.5 0.6-0.6 2.1-0.3 3.2 0.3 1.3 1 1.7 1.8 1.3q1.2-0.8 0.5 0.5c-0.5 0.6-0.6 2.1-0.3 3.2 0.3 1.1 1 1.8 1.5 1.5 0.6-0.3 0.7 0.4 0.3 1.7-0.6 1.9-0.5 2.1 0.7 1.3 1.1-0.7 1.3-0.7 0.7 0.2-0.4 0.7-0.5 2.2-0.2 3.3 0.3 1.1 1 1.8 1.5 1.5 0.6-0.3 0.7 0.4 0.3 1.7-0.6 1.9-0.5 2.1 0.7 1.3 1.1-0.7 1.3-0.7 0.7 0.2-0.4 0.7-0.5 2.2-0.2 3.3 0.3 1.1 1 1.8 1.5 1.5 0.6-0.3 0.7 0.4 0.3 1.8-0.5 1.6-0.4 2 0.5 1.4 0.9-0.5 1-0.1 0.5 1.6-0.6 1.8-0.5 2 0.7 1.2 1.1-0.7 1.3-0.7 0.7 0.2-0.4 0.7-0.5 2.2-0.2 3.3 0.3 1.1 1 1.8 1.5 1.5 0.6-0.3 0.7 0.4 0.3 1.8-0.5 1.6-0.4 2 0.5 1.5 0.9-0.6 1-0.2 0.5 1.5-0.5 1.6-0.4 2 0.5 1.5 0.9-0.6 1-0.2 0.5 1.5-0.6 1.8-0.5 2 0.7 1.2 1.1-0.7 1.3-0.7 0.7 0.3-0.4 0.6-0.5 2.6-0.2 4.2 0.3 2.1 0.9 2.8 1.7 2.3q1.3-0.8 0.5 0.5c-0.4 0.6-0.4 2.7-0.1 4.5 0.4 2.4 0.8 2.9 1.5 1.7q0.9-1.5 0.3 2c-0.5 2.8-0.3 3.2 0.6 2 1-1.3 1.1-1.2 0.6 0.5-0.4 1.1 0.1 5.5 1.1 9.7 1.1 4.8 2.1 7.3 2.6 6.5 0.5-0.7 0.5-0.1 0.2 1.3-0.4 1.4-0.4 5 0.1 8 0.5 4.1 0.9 5 1.5 3.5 0.4-1.2 0.6 0.3 0.3 3.5-0.2 3.7-0.1 4.7 0.4 3 0.5-1.4 0.9 11.6 0.9 29.5 0.1 17.6-0.3 31.3-0.7 30.5-0.5-1-1-0.1-1.4 3-0.4 2.5-0.4 5.4 0 6.5 0.5 1.7 0.4 1.8-0.6 0.5-1-1.2-1.1-1-0.8 1.1 0.2 1.5 0 2.5-0.4 2.3-0.5-0.2-1 1-1.3 2.6-0.3 1.6-0.2 3.6 0.3 4.2 0.5 1 0.3 1-0.8 0.3-1.2-0.8-1.3-0.6-0.7 1.3 0.5 1.6 0.4 2-0.5 1.5-0.9-0.6-1-0.3-0.5 1 0.5 1.2 0.3 1.5-0.5 1-0.9-0.6-1-0.2-0.5 1.5 0.5 1.6 0.4 2-0.5 1.5-0.9-0.6-1-0.3-0.5 1 0.5 1.2 0.3 1.5-0.5 1-0.9-0.6-1-0.3-0.5 1 0.5 1.2 0.3 1.5-0.5 1-0.9-0.6-1-0.3-0.5 1 0.5 1.2 0.3 1.5-0.5 1-0.9-0.6-1-0.3-0.5 1 0.5 1.2 0.3 1.5-0.5 1-0.9-0.6-1-0.3-0.5 1 0.5 1.2 0.3 1.5-0.5 1-0.9-0.6-1-0.3-0.5 1 0.5 1.2 0.3 1.5-0.5 1-0.9-0.6-1-0.3-0.5 1q0.7 1.7-0.5 1.5c-0.7-0.2-1.2 0.5-1 1.5 0.1 0.9-0.4 1.6-1 1.5-0.7-0.2-1.3 0.4-1.3 1.3 0 0.9-0.3 1.5-0.7 1.3-0.5-0.2-1.2 0.4-1.8 1.4-0.5 0.9-0.6 2.1-0.2 2.6 0.4 0.5 0.1 0.6-0.5 0.3-0.8-0.4-1.7 0.1-2.3 1.3-0.5 1.1-0.7 2-0.2 2 0.4-0.1 0.1 0.6-0.5 1.5-0.7 0.8-1.6 1.3-2 1-0.5-0.2-3 1.8-5.8 4.6-2.7 2.7-4.5 4.9-4 4.9 0.5-0.1 0.4 0.6-0.2 1.5-0.7 0.8-1.6 1.3-2 1.1-0.5-0.3-1.5-0.1-2.3 0.4-0.8 0.5-1.5 1.5-1.5 2.1 0 0.7-0.9 1.4-2 1.5-1.1 0.2-2.5 0.9-3 1.5-0.7 0.9-0.6 1 0.5 0.4 0.9-0.5 1.2-0.4 0.7 0.1-0.5 0.5-1.6 0.9-2.5 0.9-0.9 0-1.6 0.6-1.4 1.3 0.1 0.6-0.3 1-0.8 0.7-0.5-0.3-1.9 0.1-3 0.8-1.1 0.6-1.7 1.6-1.2 2.1 0.4 0.5 0.1 0.6-0.5 0.3-0.7-0.4-2.2-0.1-3.3 0.6-1.1 0.6-1.7 1.6-1.2 2 0.4 0.5-0.2 0.5-1.3 0-1.5-0.5-1.8-0.4-1.2 0.5 0.5 0.8 0.2 1-1 0.5-1.3-0.5-1.6-0.4-1 0.5 0.5 0.8 0.2 1-1 0.5-1.3-0.5-1.6-0.4-1 0.5 0.5 0.8 0.2 1-1 0.5-1.4-0.6-1.6-0.5-0.8 0.7 0.7 1.1 0.7 1.3-0.3 0.8-0.6-0.5-2.1-0.6-3.2-0.3-1.3 0.3-1.7 1-1.2 1.7q0.7 1.3-0.5 0.5c-0.7-0.4-2.2-0.5-3.3-0.2-1.1 0.3-1.8 1-1.5 1.5 0.3 0.6-0.2 0.7-1.2 0.3-1.4-0.6-1.6-0.5-0.8 0.7 0.7 1.1 0.7 1.3-0.3 0.8-0.6-0.5-2.1-0.6-3.2-0.3-1.1 0.3-1.8 1-1.5 1.5 0.3 0.6-0.2 0.7-1.2 0.3-1.4-0.6-1.6-0.5-0.8 0.7 0.7 1.1 0.7 1.3-0.2 0.7-0.7-0.4-2.2 0.1-3.3 1.1-1.2 0.9-1.8 2.3-1.5 3 0.3 0.6 0 1-0.5 0.7-0.5-0.3-1.3 1-1.6 2.8-0.4 2 0 4.3 0.9 6.2 0.8 1.6 2.2 3.6 3.1 4.3 0.9 0.6 2.1 1 2.6 0.7 0.6-0.3 1 4.8 1 14.5 0 12.4-0.3 15.1-1.5 15.5-0.8 0.3-1.3 0-1-0.5 0.3-0.5-0.2-1.2-1-1.5-0.8-0.3-2-0.3-2.5 0-0.5 0.3-1 0-1-0.5 0-0.5-0.7-0.8-1.5-0.5q-1.5 0.5-0.7-0.7c0.5-0.9 0.2-1-1-0.5-1.3 0.5-1.6 0.3-1-0.5 0.5-0.9 0.2-1-1-0.5-1.3 0.5-1.6 0.3-1-0.5 0.5-0.9 0.2-1-1-0.5-1.3 0.5-1.6 0.3-1-0.5 0.5-0.9 0.2-1-1-0.5-1.3 0.5-1.6 0.3-1-0.5 0.5-0.9 0.2-1-1-0.5-1.3 0.5-1.6 0.3-1-0.5 0.5-0.9 0.2-1-1-0.5-1.3 0.5-1.6 0.3-1-0.5 0.5-0.9 0.2-1-1.3-0.5-1.1 0.5-1.7 0.5-1.3 0 0.4-0.4-1.2-1.8-3.7-3-2.5-1.3-5.1-2-5.7-1.5-1 0.5-1 0.3-0.3-0.8 0.8-1.2 0.6-1.3-0.7-0.7-1.3 0.5-1.6 0.3-1-0.5 0.5-0.9 0.2-1-1-0.5-1.3 0.5-1.6 0.3-1-0.5 0.5-0.9 0.2-1-1-0.5-1.3 0.5-1.6 0.3-1-0.5 0.5-0.9 0.2-1-1.3-0.5-1.1 0.5-1.7 0.5-1.3 0 0.5-0.4-0.1-1.4-1.2-2-1.1-0.7-2.6-1-3.2-0.5-1 0.5-1 0.3-0.3-0.8 0.8-1.2 0.6-1.3-0.7-0.7-1.3 0.5-1.6 0.3-1-0.5 0.5-0.9 0.2-1-1.3-0.5-1.1 0.5-1.7 0.5-1.3 0 0.5-0.4-0.1-1.4-1.2-2-1.1-0.7-2.6-1-3.2-0.6-0.7 0.3-1 0.2-0.6-0.3 0.5-0.5-0.1-1.5-1.2-2.1-1.1-0.7-2.6-1-3.2-0.5-1 0.5-1 0.3-0.3-0.8 0.8-1.2 0.6-1.3-0.7-0.7-1.1 0.4-2.1 0.2-2.5-0.5-0.6-1-0.4-1 0.7-0.3 1.1 0.7 1.3 0.7 0.7-0.2-0.4-0.7-1.4-1.1-2.2-0.8-0.9 0.3-1.4 0-1.2-0.7 0.1-0.7-0.5-1.3-1.4-1.3-0.9 0-1.5-0.3-1.3-0.7 0.2-0.5-0.2-0.9-0.8-0.9-0.7-0.1-1.6-0.1-2 0-0.5 0-0.7-0.5-0.5-1.1 0.1-0.7-0.6-1.3-1.5-1.3-0.9 0-2-0.4-2.5-0.9-0.5-0.5-0.2-0.6 0.7-0.2 0.8 0.4 0.4-0.2-1-1.3-1.4-1.1-3.1-1.8-3.7-1.6-0.7 0.3-1.2-0.1-1-0.7 0.1-0.7-0.6-1.3-1.5-1.3-0.9 0-2-0.4-2.5-0.9-0.5-0.5-0.2-0.6 0.7-0.2 0.8 0.4 0.4-0.2-1-1.3-1.4-1.1-3-2.1-3.5-2.2-0.5-0.1-1.3-0.1-1.7 0-0.5 0-0.7-0.5-0.5-1.1 0.1-0.7-0.7-1.3-1.8-1.3-1.1 0-2-0.6-2-1.3 0-0.7-0.7-1.7-1.5-2.2-0.8-0.5-2-0.6-2.5-0.2-0.6 0.4-0.7 0.2-0.2-0.6 0.4-0.7 0.2-1.3-0.5-1.3-0.7-0.1-1.6-0.1-2 0-0.5 0-0.7-0.5-0.5-1.1 0.1-0.7-0.6-1.3-1.5-1.3-0.9 0-2-0.4-2.5-0.9-0.5-0.5-0.2-0.6 0.7-0.2 0.8 0.4 0.6 0.1-0.5-0.8-1.1-0.8-2.3-1.3-2.7-1.1-0.5 0.3-1.1-0.1-1.5-0.7-0.6-0.9-0.3-1.1 0.7-0.5 0.8 0.5 0.6 0.2-0.5-0.7-1.1-0.8-2.3-1.3-2.7-1.1-0.5 0.3-1.1-0.1-1.5-0.7-0.6-1-0.4-1 0.7-0.4 1.3 0.9 1.3 0.8 0-0.7-0.8-1-2.2-1.6-3-1.5-0.8 0.2-1.5-0.3-1.5-1 0-0.7-0.7-1.7-1.5-2.2-0.8-0.5-1.8-0.7-2.2-0.4-0.5 0.2-1.1-0.2-1.5-0.8-0.6-0.9-0.3-1.1 0.7-0.5 0.8 0.5 0.6 0.2-0.5-0.7-1.1-0.8-2.4-1.2-3-0.8-0.6 0.4-0.7 0.2-0.2-0.5 0.4-0.8-0.3-1.9-2-3-1.6-0.9-3.3-1.7-4-1.7-0.6-0.1-1.1-0.6-1-1.1 0.1-0.5-0.6-0.9-1.5-0.7-1 0.1-1.7-0.4-1.5-1 0.1-0.7-0.6-1.2-1.5-1-1 0.1-1.7-0.4-1.5-1 0.1-0.7-0.6-1.3-1.5-1.3-0.9 0-2-0.4-2.5-0.9-0.5-0.6-0.2-0.6 0.7 0 1.1 0.6 1.3 0.6 0.7-0.3-0.4-0.7-1.4-1.1-2.2-0.8-0.8 0.3-1.4 0-1.2-0.6 0.1-0.6-0.5-1.4-1.3-1.7-1.1-0.5-1.3-0.2-0.6 0.8 0.6 0.9 0.6 1.2 0 0.7-0.5-0.5-0.9-1.4-0.9-2 0-0.7-0.8-1.2-1.7-1.2-0.8 0-1.3-0.4-0.9-1 0.4-0.6-0.2-0.7-1.4-0.2-1.1 0.5-1.7 0.5-1.3 0 0.5-0.4-0.1-1.4-1.2-2-1.1-0.7-2.6-1-3.2-0.6-1 0.6-1 0.4-0.3-0.7 0.8-1.2 0.6-1.3-0.7-0.7-1.3 0.5-1.6 0.3-1-0.5 0.5-0.9 0.2-1-1-0.5-1.3 0.5-1.6 0.3-1-0.5 0.5-0.9 0.2-1-1-0.5-1.3 0.5-1.6 0.3-1-0.5 0.5-0.9 0.2-1-1-0.5-1.3 0.5-1.6 0.3-1-0.5 0.5-0.9 0.2-1-1-0.5-1.1 0.4-1.6 0.3-1.3-0.3 0.3-0.5-0.4-1.2-1.5-1.5-1.1-0.3-2.6-0.2-3.2 0.3-0.9 0.5-1 0.3-0.3-0.7 0.8-1.2 0.6-1.3-1.5-0.6-2 0.7-2.3 0.6-1.5-0.5 0.8-1.1 0.6-1.3-1.2-0.7-1.7 0.5-2.1 0.4-1.5-0.5 0.5-0.9-0.3-1-3.3-0.5-2.7 0.4-3.4 0.4-2-0.3 1.5-0.6 0.5-0.9-3.7-0.9-4.2-0.1-5.6 0.2-5 1.1 0.5 0.8 0.1 1-1.5 0.5-1.3-0.4-2.3-0.3-2.3 0.3 0 0.5-0.6 0.8-1.2 0.5-0.7-0.3-3 0.9-5.1 2.7-2.2 1.9-3.6 3.9-3.3 4.6 0.4 0.7 0.2 0.9-0.6 0.5-0.9-0.6-1-0.3-0.5 1 0.4 1 0.3 1.5-0.3 1.2-0.5-0.3-1.2 0.4-1.5 1.5-0.3 1.1-0.2 2.6 0.3 3.2q0.7 1.3-0.5 0.5c-0.8-0.4-1.4-0.2-1.4 0.6-0.1 0.6-0.3 6.4-0.4 12.7-0.2 6.9 0.1 10.7 0.6 9.5 0.5-1.3 0.6-0.4 0.3 2.5-0.4 3.4-0.3 4.1 0.5 3 0.9-1.2 1-0.8 0.4 1.5-0.5 2.2-0.4 2.8 0.5 2.3 0.9-0.6 1-0.1 0.6 1.5-0.5 1.8-0.4 1.9 0.6 0.7 1-1.3 1.1-1.2 0.6 0.5-0.4 1.1-0.4 2.8-0.1 3.8 0.3 1 1 1.4 1.7 1 0.9-0.6 1-0.4 0.4 0.7-0.5 0.9-0.4 2.7 0.3 4.3 0.6 1.5 1.6 2.5 2.1 2.2 0.6-0.3 0.7 0.2 0.3 1.3-0.5 1.2-0.4 1.5 0.5 1 0.8-0.6 1-0.3 0.5 1-0.5 1.2-0.4 1.5 0.5 1 0.8-0.6 1-0.3 0.5 1-0.5 1.2-0.4 1.5 0.5 1 0.8-0.6 1-0.3 0.5 1-0.5 1-0.4 1.5 0.2 1.1 0.6-0.4 1 0.1 1 1 0 0.9 0.6 1.5 1.3 1.4q1.2-0.3 0.5 1.5c-0.5 1-0.4 1.5 0.2 1.1 0.6-0.4 1 0.1 1 1 0 0.9 0.6 1.5 1.3 1.4 0.6-0.2 1 0 0.7 0.5-0.2 0.4 0.3 1.6 1.1 2.7 0.9 1.1 1.2 1.3 0.8 0.5-0.4-0.9-0.3-1.2 0.2-0.7 0.5 0.5 0.9 1.6 0.9 2.5 0 0.9 0.6 1.6 1.3 1.5 0.6-0.2 1 0 0.8 0.5-0.3 0.4-0.1 1.4 0.4 2.2 0.5 0.8 1.5 1.5 2.1 1.5 0.7 0 1.4 0.9 1.5 2 0.2 1.1 3.6 5.1 7.6 9 7 6.7 7 6.7 1.3 0.7-3.3-3.4-5.8-6.2-5.5-6.2 0.3 0 3.6 3.2 7.5 7.2 3.9 3.9 6.2 6.5 5.2 5.7-1-0.8-1.8-0.9-1.9-0.4 0 0.5 0 1.3 0.1 1.8 0 0.4-0.5 0.4-1.1 0.1-0.7-0.3-2.5-0.1-4 0.5-1.6 0.6-2.6 1.6-2.3 2.1 0.3 0.6-0.2 0.7-1.2 0.3-1.3-0.5-1.6-0.4-1 0.5 0.5 0.8 0.2 1-1 0.5-1.1-0.5-1.6-0.4-1.2 0.2 0.4 0.6-0.1 1-1 1-0.9 0-1.5 0.6-1.3 1.3 0.1 0.6-0.6 1.1-1.5 1-1-0.2-1.7 0.3-1.5 1 0.1 0.6-0.2 1-0.8 0.7-0.5-0.3-2.8 1.3-5 3.5-2.2 2.2-3.8 4.5-3.5 5 0.3 0.5-0.1 0.9-0.7 0.8-0.7-0.2-1.3 0.4-1.3 1.3 0 0.9-0.4 1.4-1 1-0.6-0.4-0.7 0.1-0.2 1.2 0.5 1.2 0.3 1.5-0.5 1-0.9-0.6-1-0.3-0.5 1 0.4 1 0.3 1.5-0.3 1.2-0.5-0.3-1.2 0.3-1.5 1.3-0.3 0.9-0.3 2.6 0 3.7 0.5 1.5 0.4 1.7-0.3 0.5-0.7-1.1-1.1-0.5-1.6 2.5-0.3 2.2-0.6 5.8-0.6 8 0 2.2 1.3 7.6 2.8 12 1.6 4.5 3.4 7.9 4 7.8 0.8-0.2 0.9 0.3 0.5 1.5-0.5 1.2-0.4 1.5 0.5 1 0.8-0.6 1-0.3 0.5 1-0.5 1-0.4 1.5 0.2 1.1 0.6-0.4 1 0.1 1 1 0 0.9 0.6 1.5 1.3 1.4 0.7-0.2 1 0.3 0.7 1.2-0.3 0.8 0.1 1.8 0.7 2.3 0.9 0.5 1 0.3 0.4-0.8-0.6-0.9-0.6-1.2 0-0.7 0.5 0.5 0.9 1.6 0.9 2.5 0 0.9 0.7 1.7 1.5 1.7 0.8 0 1.5 0.9 1.5 2 0 1.1 0.6 2 1.4 2 0.8 0 1.6 0.8 1.8 1.8q0.3 1.7-0.9 1c-0.9-0.6-1-0.3-0.5 1 0.5 1.2 0.3 1.5-0.5 1-0.9-0.6-1-0.3-0.5 1 0.5 1.2 0.3 1.5-0.5 1-0.9-0.6-1-0.3-0.5 1 0.4 1 0.3 1.5-0.3 1.2-0.5-0.3-1.2 0.4-1.5 1.5-0.3 1.1-0.2 2.6 0.2 3.3 0.6 0.9 0.4 0.9-0.7 0.2-1.2-0.8-1.3-0.6-0.7 1.3 0.5 1.6 0.4 2-0.5 1.5-0.9-0.6-1 0-0.5 2.2 0.6 2.2 0.5 2.6-0.3 1.5-0.8-1.2-1-1-1.1 1-0.1 1.4-0.3 7.5-0.4 13.5-0.1 6 0.2 12.9 0.7 15.3 0.5 2.9 1.2 4 2.1 3.5q1.2-0.8 0.5 0.5c-0.5 0.6-0.6 2.1-0.3 3.2 0.3 1.3 1 1.7 1.8 1.3 0.8-0.6 1-0.4 0.3 0.7-0.5 0.9-0.4 2.6 0.3 4.3 0.7 1.7 1.5 2.4 2.3 2q1.3-0.8 0.5 0.5c-0.4 0.6-0.1 2.1 0.6 3.2 0.6 1.1 1.5 1.7 1.9 1.2 0.4-0.4 0.7 0.2 0.5 1.3-0.1 1.2 0.3 1.9 1.1 1.8 0.6-0.2 1.1 0.5 1 1.4-0.2 1 0.4 1.8 1.2 1.8 0.8 0 1.4 0.7 1.2 1.5-0.1 0.8 0.5 2.2 1.5 3 1.5 1.3 1.6 1.3 0.7 0-0.6-1.1-0.6-1.3 0.4-0.7 0.6 0.4 1 1 0.7 1.5-0.2 0.4 1.1 2.6 3 5 1.9 2.3 4 4.1 4.7 4 0.7-0.2 1.2 0.2 1.3 0.9 0 0.7 0.5 1.7 1 2.3 0.6 0.6 1.9 1.2 3 1.4 1.1 0.1 2 0.8 2 1.5 0 0.7 0.9 1.9 2 2.7 1.1 0.7 2.3 1.1 2.8 0.9 0.4-0.3 0.6 0.1 0.5 0.8-0.2 0.6 0.4 1.2 1.3 1.2 0.9 0 1.5 0.3 1.3 0.8-0.2 0.4 0.2 0.8 0.9 0.8 0.6 0.1 1.5 0.1 2 0 0.4 0 0.6 0.5 0.5 1.2-0.2 0.6 0.4 1.2 1.3 1.2 0.9 0 1.5 0.3 1.3 0.8-0.2 0.4 0.5 1.2 1.6 1.7 1.1 0.5 2.6 0.7 3.2 0.3q1.3-0.8 0.5 0.5c-0.4 0.8 0.4 1.7 2.3 2.7 1.6 0.8 3.6 1.2 4.2 0.8 1-0.6 1-0.4 0.3 0.7-0.8 1.2-0.6 1.3 0.8 0.7q1.7-0.7 1.5 0.6c-0.2 0.6 0.7 1.2 1.8 1.2 1.2 0 2 0.3 1.8 0.8-0.2 0.4 0.3 0.9 1.1 1.2 0.8 0.3 2.1 0.2 2.7-0.2 1-0.6 1-0.4 0.3 0.7-0.8 1.2-0.6 1.3 0.8 0.7 1.2-0.5 1.5-0.3 1 0.5-0.6 0.9-0.3 1 1 0.5 1-0.4 1.5-0.3 1.2 0.3-0.3 0.5 0.4 1.2 1.5 1.5 1.1 0.3 2.6 0.2 3.2-0.2q1.3-0.8 0.5 0.5c-0.4 0.7 0 1.4 1.3 1.7 1.1 0.3 2.6 0.2 3.3-0.2q1.2-0.8 0.5 0.5c-0.6 0.8 0.3 1.5 2.7 2.2 1.9 0.5 4.1 0.7 4.7 0.3 1-0.6 1-0.4 0.3 0.7-0.8 1.2-0.6 1.3 1.3 0.7 1.6-0.5 2-0.4 1.5 0.5-0.6 0.9-0.2 1 1.5 0.5 1.6-0.5 2-0.4 1.5 0.5-0.6 0.9 0 1 2.2 0.5 2.3-0.6 2.7-0.5 1.5 0.3-1.2 0.9-1 1.1 1.1 0.8 1.6-0.2 2.4 0.1 2 0.7-0.4 0.5 0.3 0.6 1.7 0.2 1.6-0.5 2-0.4 1.5 0.5-0.6 0.8 0 1.1 1.8 0.7 1.5-0.2 2.5-0.1 2.3 0.4-0.2 0.4 1.1 1 2.9 1.3 1.7 0.4 3.9 0.3 4.7-0.2 1.2-0.7 1.3-0.6 0.5 0.6-0.8 1.2-0.4 1.3 2.5 0.7 2.6-0.5 3.1-0.4 2 0.4-1.1 0.8-0.5 0.9 2.5 0.5 3-0.4 3.6-0.3 2.5 0.5-1.1 0.8-0.5 0.9 2.5 0.5 3-0.4 3.6-0.3 2.5 0.5-1.1 0.8-0.2 0.9 3.5 0.5 2.9-0.3 4.1-0.1 3 0.3-1.4 0.5 0.7 1.1 7 2 5 0.6 15.8 1.5 24 1.8 9 0.3 19.4 0.1 26-0.6 6-0.7 12.6-1.5 14.5-1.8 2.9-0.4 3.6-0.2 4.3 1.6 0.5 1.5 0.4 1.9-0.5 1.4-0.8-0.6-1.1 0-0.7 1.8 0.2 1.6 0 2.4-0.6 2-0.5-0.4-0.6 0.6-0.2 2.4q0.7 3-0.2 1.5c-0.7-1.2-1-0.9-1.5 1.3-0.3 1.5-0.3 3.3 0.1 4q0.8 1.2-0.5 0.5c-0.7-0.5-1.4-0.1-1.7 1.2-0.3 1.1-0.2 2.6 0.3 3.2 0.5 1 0.3 1-0.8 0.3-1.2-0.8-1.3-0.6-0.7 0.8 0.5 1.2 0.3 1.5-0.5 1-0.9-0.6-1-0.3-0.5 1 0.5 1.2 0.3 1.5-0.5 1-0.9-0.6-1-0.3-0.5 1 0.5 1.2 0.3 1.5-0.5 1-0.9-0.6-1-0.3-0.5 1 0.5 1.2 0.3 1.5-0.5 1-0.9-0.6-1-0.3-0.5 1q0.7 1.7-0.5 1.5c-0.7-0.2-1.3 0.4-1.3 1.3 0 0.9-0.3 1.5-0.7 1.3-0.5-0.2-0.9 0.2-0.9 0.9-0.1 0.6-0.1 1.5 0 2 0 0.4-0.5 0.6-1.1 0.5-0.7-0.2-1.3 0.5-1.3 1.4 0 1-0.3 1.7-0.6 1.5-0.3-0.1-1.4 0.5-2.3 1.3-0.9 0.8-1.5 2-1.2 2.5 0.3 0.5-0.6 2.1-2 3.5-1.3 1.4-2.4 2-2.4 1.5 0-0.5-1.1 0.1-2.5 1.5-1.4 1.4-2.3 2.7-2 3 0.3 0.3-0.3 1.3-1.2 2.2-1 1-2.1 1.5-2.5 1.3-0.5-0.3-1.5 0-2.3 0.5-0.9 0.6-1.2 1.5-0.7 2.2 0.4 0.8 0.3 1-0.3 0.6-0.5-0.4-1.9 0-3 0.8-1.1 0.9-1.3 1.2-0.5 0.7 1-0.6 1.3-0.4 0.7 0.5-0.4 0.6-1.2 1-1.7 0.7-0.5-0.3-2.6 0.5-4.5 1.8-1.9 1.2-3.2 2.6-2.7 3.1 0.4 0.5 0.1 0.6-0.5 0.3-0.7-0.4-2.2-0.1-3.3 0.6-1.1 0.6-1.7 1.6-1.2 2 0.4 0.5-0.2 0.5-1.3 0-1.6-0.6-1.8-0.5-1 0.7 0.7 1.1 0.7 1.3-0.2 0.7-0.7-0.4-2-0.5-2.8-0.2-0.9 0.3-1.2 1-0.7 1.7q0.7 1.3-0.5 0.5c-0.7-0.4-2.2-0.5-3.3-0.2-1.1 0.3-1.8 1-1.5 1.5 0.3 0.6-0.2 0.7-1.2 0.3-1.3-0.5-1.6-0.4-1 0.5 0.5 0.9 0.1 1-1.5 0.6-1.9-0.5-2-0.4-0.8 0.6 1.3 1 1.2 1.1-0.5 0.6-1.1-0.4-2.8-0.4-3.7-0.1-1 0.3-1.6 1-1.3 1.5 0.3 0.6-0.4 0.7-1.7 0.3-1.9-0.6-2.1-0.5-1.3 0.7 0.8 1.2 0.7 1.3-0.5 0.6-1-0.6-4.6 0-10 1.4-5.9 1.6-8 2.5-7 3.1 0.9 0.5-0.1 0.6-2.5 0.3-3.1-0.4-3.7-0.3-2.5 0.6 1.2 0.9 1.2 1-0.5 0.5-1.1-0.3-4.2-0.3-7 0.1-3.5 0.4-4.6 0.9-3.5 1.5 0.9 0.5 0 0.6-2.5 0.3-2.9-0.4-3.6-0.3-2.5 0.4 1.1 0.8 0.1 0.9-3.5 0.6-3.5-0.4-4.6-0.3-3.5 0.5 1.1 0.7 0.1 0.8-3.5 0.5-3.5-0.3-4.4-0.2-3 0.5 1.4 0.6-0.1 0.8-4.5 0.5-4.9-0.3-6-0.2-4.5 0.6 1.7 0.9 1.6 1-0.7 0.5-1.6-0.3-7.4-0.2-13 0.2-7.2 0.5-9.2 0.9-6.8 1.3 1.9 0.3-3.7 0.5-12.5 0.4-11-0.1-14 0-9.5 0.5 6.3 0.7 6.3 0.8 1.5 0.8-2.7 0.1-8.7-0.2-13.3-0.5-4.5-0.4-9.3-0.4-10.7 0.1-1.8 0.5-2.3 0.4-1.7-0.5 0.5-0.8-3.3-1-15.1-0.7-8.7 0.2-14.8 0.1-13.5-0.3 1.3-0.4-1.8-0.6-6.7-0.4-4.9 0.1-8.1 0-7-0.4 1.1-0.4-4.3-1.2-12-1.9-7.7-0.7-14.9-0.9-16-0.6-1.5 0.5-1.7 0.5-0.5-0.3 1.1-0.7-0.1-1.2-4.5-1.6-3.3-0.4-7.4-0.4-9-0.1-2.5 0.4-2.7 0.4-1-0.5 1.5-0.8 0.9-0.9-3-0.6-3.6 0.3-4.5 0.2-3-0.5 1.5-0.7 0.6-0.8-3-0.5-3.6 0.3-4.6 0.2-3.5-0.6 1.1-0.7 0.4-0.8-2.5-0.4-3 0.4-3.6 0.3-2.5-0.5 1.1-0.8 0.5-0.9-2.5-0.5-3 0.4-3.6 0.3-2.5-0.5 1.1-0.8 0.6-0.9-2-0.5-2.6 0.5-3.1 0.3-2-0.5 1.2-0.8 0.8-1-1.6-0.7-1.9 0.2-2.9-0.1-2.5-0.6 0.3-0.6-0.5-0.8-2-0.5-1.6 0.2-2.4 0-2-0.6 0.4-0.5-0.3-0.6-1.6-0.2-1.7 0.5-2.1 0.4-1.5-0.5 0.5-0.8-0.1-1.1-1.9-0.7-1.6 0.2-2.4 0-2-0.6 0.4-0.5-0.3-0.6-1.6-0.2-1.7 0.5-2.1 0.4-1.5-0.5 0.5-0.9 0.1-1-1.5-0.5-1.7 0.5-2.1 0.4-1.5-0.5 0.5-0.9 0.1-1-1.5-0.5-1.4 0.4-2.1 0.3-1.8-0.3 0.3-0.5-0.4-1.2-1.5-1.5-1.1-0.3-2.6-0.2-3.2 0.3-1 0.5-1 0.3-0.3-0.8 0.8-1.2 0.6-1.3-1.2-0.7-1.7 0.5-2.1 0.4-1.5-0.5 0.5-0.9 0.2-1-1-0.5-1.3 0.5-1.6 0.3-1-0.5 0.5-0.9 0.2-1-1-0.5-1.3 0.5-1.6 0.3-1-0.5 0.5-0.9 0.2-1-1-0.5-1.3 0.5-1.6 0.3-1-0.5 0.5-0.9 0.2-1-1-0.5-1.3 0.5-1.6 0.3-1-0.5 0.5-0.9 0.2-1-1-0.5q-1.8 0.7-1.5-0.5c0.1-0.7-0.5-1.3-1.4-1.3-0.9 0-1.5-0.3-1.3-0.7 0.2-0.5-0.2-0.9-0.8-0.9-0.7-0.1-1.6-0.1-2 0-0.5 0-0.6-0.4-0.3-0.9 0.3-0.5-0.1-1.1-0.7-1.1-0.7-0.1-1.6-0.1-2 0-0.5 0-0.7-0.5-0.5-1.1 0.1-0.7-0.5-1.3-1.3-1.3-0.8 0-2.1-0.4-2.7-0.8-0.7-0.4-1.1-1-0.9-1.4 0.3-0.5-1.6-2.8-4.1-5.3-2.4-2.5-5-4.5-5.6-4.5-0.7 0-1.2-0.9-1.2-2 0-1.1-0.6-2-1.4-2-0.8 0-1.5-1-1.5-2.2-0.1-1.2-0.7-2.8-1.5-3.5-1.2-1.1-1.2-1.1-0.5 0.2 0.6 1.1 0.5 1.3-0.3 0.7-0.8-0.4-1-1.4-0.6-2.4 0.5-1.1 0.4-1.5-0.2-1.2-0.6 0.4-1-0.3-1-1.5 0-1.1-0.6-2-1.2-1.8-0.7 0.1-1.1-0.3-0.8-0.8 0.3-0.5-0.3-3.5-1.2-6.5-1-3-2-5.1-2.3-4.6-0.3 0.5-0.5-0.7-0.6-2.8 0-2-0.4-7-0.9-11.1-0.7-5.5-1-6.7-1.5-4.6-0.3 1.7-0.5-6.5-0.5-18.2 0-11.6 0.3-20.4 0.8-19.4 0.4 0.9 0.6-2.3 0.3-7.3-0.2-5.9-0.1-8.1 0.5-6.5 0.6 1.7 0.7 0.3 0.5-4.5-0.3-3.9-0.1-6.1 0.3-5 0.6 1.5 1 0.4 1.5-4 0.4-3.3 0.4-7.3 0.1-9-0.4-2.5-0.4-2.7 0.5-1 0.8 1.5 0.9 0.7 0.6-3.5-0.3-3.9-0.2-4.9 0.5-3.5 0.7 1.4 0.8 0.6 0.5-3-0.3-3-0.2-4.2 0.3-3 0.6 1.5 1 0.9 1.5-3 0.4-2.8 0.4-5.9 0.1-7-0.5-1.7-0.4-1.7 0.5-0.5 0.9 1.2 1.1 0.9 0.8-1.6-0.2-1.9 0.1-2.9 0.7-2.5 0.5 0.4 0.6-0.9 0.2-3.4-0.5-2.9-0.4-3.6 0.4-2.5 0.8 1.1 0.9 0.4 0.4-2.5-0.4-3.1-0.3-3.7 0.5-2.5 0.9 1.2 1 0.7 0.6-2-0.5-2.7-0.3-3.1 0.5-2 0.8 1.2 1 1 0.7-1.1-0.2-1.5 0.1-2.4 0.7-2 0.5 0.4 0.6-0.7 0.2-2.9-0.5-2.6-0.4-3.1 0.4-2 0.8 1.1 0.9 0.7 0.5-1.8-0.4-2.3-0.3-3 0.6-2.5 0.8 0.6 1.1 0 0.7-1.8-0.2-1.6 0-2.4 0.5-2 0.6 0.3 0.8-0.5 0.5-2-0.2-1.6 0-2.4 0.6-2 0.5 0.4 0.6-0.6 0.2-2.4-0.6-2.3-0.5-2.7 0.4-1.5 0.8 1.2 0.9 0.7 0.5-2-0.4-2.2-0.3-3 0.3-2 0.7 1.1 1 0.7 1.5-1.8 0.3-1.7 0.3-4 0-5-0.5-1.5-0.4-1.5 0.6-0.2 1 1.2 1.1 1 0.8-1.1-0.2-1.6 0.1-2.4 0.7-2 0.5 0.4 0.6-0.3 0.2-1.7-0.4-1.3-0.3-2 0.3-1.7 0.6 0.3 1.2-0.7 1.5-2.3 0.3-1.5 0.3-3.6 0-4.7-0.5-1.5-0.4-1.7 0.3-0.5 0.8 1.2 1.1 0.9 1.6-1.5 0.4-1.6 0.4-3.9 0.1-5-0.5-1.6-0.4-1.7 0.3-0.5 0.8 1.2 1.1 0.8 1.6-1.8 0.3-1.7 0.3-3.8-0.1-4.4-0.6-0.9-0.4-1 0.7-0.3 1.2 0.8 1.3 0.5 0.7-2-0.6-2.3-0.5-2.7 0.3-1.5 0.9 1.2 1.1 1 0.8-1.1-0.2-1.5 0.1-2.4 0.7-2 0.5 0.4 0.6-0.6 0.2-2.4-0.6-2.3-0.5-2.7 0.3-1.5 0.9 1.2 1.1 1 0.8-1.1-0.2-1.5 0.1-2.4 0.6-2 0.6 0.3 0.8-0.5 0.5-2-0.2-1.6 0-2.4 0.5-2 0.6 0.3 0.8-0.5 0.5-2-0.2-1.5-0.1-2.5 0.4-2.3 0.4 0.2 1-0.8 1.3-2.4 0.3-1.5 0.3-3.8-0.1-5.2-0.5-2-0.4-2.2 0.5-1 0.9 1.2 1 0.5 0.6-3-0.3-2.5-0.2-4 0.2-3.3 0.4 0.6 0.7-4.4 0.7-11.2 0-6.8-0.3-11.8-0.7-11.2-0.5 0.7-0.5-0.4-0.1-2.3 0.5-2.6 0.4-3.3-0.5-2.8-0.9 0.6-1 0.1-0.5-2 0.5-2 0.4-2.5-0.5-2-0.9 0.6-1 0.2-0.5-1.5 0.5-1.6 0.4-2-0.5-1.5-0.8 0.6-1 0.3-0.5-1 0.6-1.3 0.5-1.5-0.7-0.7-1.1 0.7-1.3 0.7-0.7-0.3 0.4-0.6 0.5-2.1 0.2-3.2-0.3-1.1-0.9-1.8-1.5-1.5-0.6 0.3-0.9 0.2-0.9-0.3 0.1-0.4 0.1-1.3 0-2 0-0.6-0.4-1-0.8-0.8-0.5 0.2-0.8-0.4-0.8-1.2 0-0.9-0.6-1.7-1.4-1.7-0.8 0-1.6-0.9-1.7-2-0.2-1.1-2.3-3.9-4.6-6.3-2.4-2.3-4.9-4-5.5-3.7-0.7 0.3-1.6-0.1-2-0.8-0.6-0.8-0.3-1 0.7-0.4 0.8 0.5 0.2-0.3-1.5-1.7-1.6-1.4-3.6-2.4-4.2-2.1-0.7 0.3-1.2-0.1-1-0.8 0.1-0.6-0.5-1.2-1.4-1.2-0.9 0-1.4-0.4-1-1 0.4-0.6-0.1-0.7-1.1-0.2q-1.8 0.7-1.5-0.6c0.1-0.6-0.5-1.2-1.4-1.2-0.9 0-1.4-0.4-1-1 0.4-0.6-0.1-0.7-1.1-0.2-1.3 0.5-1.6 0.3-1-0.5 0.5-0.9 0.2-1-1-0.5-1.3 0.5-1.6 0.3-1-0.5 0.5-0.9 0.2-1-1.3-0.5-1.1 0.5-1.7 0.5-1.3 0 0.5-0.4-0.1-1.4-1.2-2.1-1.1-0.6-2.6-0.9-3.2-0.5-1 0.6-1 0.4-0.3-0.7 0.8-1.2 0.6-1.3-1-0.7-1.1 0.5-1.7 0.5-1.3 0 0.5-0.4-0.1-1.4-1.2-2.1-1.1-0.6-2.4-1-3-0.7-0.6 0.3-0.9-0.1-0.7-0.8 0.1-0.6-0.6-1.1-1.5-1-1 0.2-1.7-0.3-1.5-1 0.1-0.6-0.6-1.2-1.5-1.2-0.9 0-2-0.4-2.5-0.9-0.5-0.5-0.2-0.6 0.7-0.1 1.1 0.6 1.2 0.5 0.5-0.4-0.6-0.6-1.9-1.3-3-1.5-1.1-0.1-2-0.8-2-1.5 0-0.6-0.7-1.6-1.5-2.1-0.8-0.5-1.7-0.7-2-0.5-0.3 0.3-1.4-0.4-2.5-1.6-1.1-1.1-1.6-1.9-1-1.9 0.6 0-0.1-1.1-1.5-2.4-1.4-1.4-2.7-2.3-3-2.1-0.3 0.3-1.4-0.4-2.5-1.6-1.1-1.1-1.7-2-1.2-1.9 0.4 0 0.3-0.9-0.3-2-0.6-1.2-1.5-1.7-2.2-1.3-0.7 0.3-1 0.2-0.6-0.3 0.4-0.5 0.3-1.7-0.2-2.7-0.6-0.9-1.3-1.5-1.7-1.3-0.5 0.2-0.8-0.4-0.8-1.2 0-0.9-0.7-1.7-1.5-1.7-0.8 0-1.4-0.8-1.2-1.8 0.1-0.9-0.2-1.5-0.8-1.2-0.6 0.3-0.7-0.2-0.3-1.3 0.6-1.3 0.5-1.5-0.7-0.7-1.1 0.7-1.3 0.7-0.7-0.3 0.4-0.6 0.1-2.1-0.5-3.2-0.7-1.1-1.7-1.7-2.1-1.2-0.5 0.4-0.5-0.2 0-1.3 0.6-1.6 0.5-1.8-0.7-1-1.2 0.8-1.3 0.7-0.6-0.5 0.5-0.9 0.4-2.6-0.3-4.3-0.6-1.5-1.5-2.5-2.1-2.2-0.6 0.3-0.7-0.4-0.3-1.8 0.6-1.8 0.5-2-0.7-1.2-1.1 0.7-1.3 0.7-0.7-0.3 0.4-0.6 0.4-2.4 0.1-4-0.5-2.1-0.8-2.4-1.5-1.2q-0.9 1.5-0.2-1.5c0.4-1.8 0.3-2.8-0.2-2.4-0.6 0.4-0.9-0.5-0.7-2 0.3-2.1 0.1-2.3-0.7-1.1-0.8 1.1-1 0.7-0.5-2 0.4-2.6 0.3-3.1-0.5-2-0.8 1.1-0.9 0.5-0.5-2.5 0.4-2.9 0.3-3.6-0.5-2.5-0.7 1.1-0.8 0.2-0.4-3 0.4-2.8 0.3-4.2-0.3-3.8-0.5 0.4-0.9-9.7-0.9-26.8 0-15 0.3-26.6 0.8-25.6 0.4 0.9 0.5-0.8 0.3-3.8-0.3-3.9-0.2-4.9 0.5-3.5 0.7 1.4 0.8 0.4 0.5-3.5-0.3-3.9-0.2-4.9 0.5-3.5 0.7 1.5 0.8 0.8 0.5-2.5-0.4-3.3-0.2-4.1 0.5-3 0.8 1.1 0.9 0.3 0.5-3-0.4-3.3-0.3-4 0.5-2.5 0.7 1.5 0.8 1.1 0.4-2-0.3-3-0.2-3.6 0.6-2.5 0.8 1.2 1 0.8 0.7-1.6-0.2-1.9 0.1-2.9 0.7-2.5 0.5 0.4 0.6-0.7 0.2-2.9-0.5-2.6-0.4-3.1 0.4-2 0.8 1.2 0.9 0.9 0.5-1.3-0.4-1.6-0.2-2.5 0.4-2.2 0.6 0.3 1.2-0.7 1.5-2.3 0.3-1.5 0.3-3.6 0-4.7-0.5-1.6-0.4-1.7 0.3-0.5 0.8 1.2 1.1 0.8 1.6-1.8 0.3-1.7 0.3-3.8-0.1-4.5-0.6-0.9-0.4-0.9 0.7-0.2 1.2 0.8 1.3 0.5 0.7-2-0.5-1.9-0.4-2.5 0.1-1.5 0.7 1.1 1.3 0.4 2.2-3 0.7-2.7 0.9-5.1 0.4-6-0.7-1.2-0.6-1.3 0.6-0.5 1.2 0.8 1.3 0.6 0.7-1.3-0.5-1.6-0.4-2 0.5-1.5 0.9 0.6 1 0.2 0.5-1.5-0.5-1.6-0.4-2 0.5-1.5 0.9 0.6 1 0.2 0.5-1.5-0.4-1.3-0.3-2 0.3-1.7 0.6 0.3 1.7-1.8 2.5-4.5 0.8-2.8 1.2-5.6 0.8-6.3-0.6-0.9-0.4-0.9 0.7-0.2 1.2 0.8 1.3 0.6 0.7-1.3-0.4-1.3-0.3-2 0.3-1.7 0.6 0.3 1.2-0.4 1.5-1.5 0.3-1.1 0.2-2.6-0.2-3.3q-0.8-1.2 0.5-0.5c0.7 0.5 1.4 0.1 1.7-1.2 0.3-1.1 0.2-2.6-0.2-3.2-0.6-1-0.4-1 0.7-0.3 1.2 0.8 1.3 0.6 0.7-0.8-0.4-1-0.3-1.5 0.3-1.2 0.6 0.3 1.2-0.4 1.5-1.5 0.3-1.1 0.2-2.6-0.2-3.3-0.6-0.9-0.4-0.9 0.7-0.2 1.2 0.8 1.3 0.6 0.7-0.8-0.5-1.2-0.3-1.5 0.5-1 0.9 0.6 1 0.3 0.5-1-0.4-1-0.3-1.5 0.3-1.2 0.6 0.3 1.5-0.7 2.1-2.3 0.5-1.5 0.7-4.1 0.4-5.7-0.5-2.4-0.4-2.7 0.5-1.5 1 1.3 1.1 1.3 0.6-0.3-0.3-0.9-0.6-2.2-0.6-2.7 0-0.5-0.4-0.8-1-0.5-0.6 0.3-0.7-0.1-0.4-0.8 0.3-0.6-0.7-2.2-2.3-3.5-1.5-1.3-3.4-2-4-1.7-0.7 0.3-1.1 0-0.8-0.5 0.3-0.5-1.7-1.7-4.5-2.5-2.7-0.8-5.6-1.2-6.2-0.8-1 0.6-1 0.4-0.3-0.7 0.8-1.2 0.6-1.3-1.2-0.7-1.7 0.5-2.1 0.4-1.5-0.5 0.5-0.9 0.2-1-1-0.5-1.3 0.5-1.6 0.3-1-0.5 0.5-0.9 0.2-1-1-0.5-1.1 0.4-1.6 0.3-1.3-0.3 0.3-0.5-0.1-1.1-0.7-1.1-0.7-0.1-1.6-0.1-2 0-0.5 0-0.6-0.4-0.3-0.9 0.3-0.5-0.1-1.1-0.7-1.1-0.7-0.1-1.6-0.1-2 0-0.5 0-0.6-0.4-0.3-0.9 0.3-0.5-0.3-1.4-1.2-2-1-0.5-2-0.7-2.3-0.4-0.3 0.2-1.2-0.3-2-1.1-0.8-0.9-1.1-1.6-0.5-1.5 0.6 0-1-2-3.5-4.4-2.5-2.5-4.8-4.3-5.2-4.1-0.5 0.3-1.4-0.2-2-1-0.7-0.9-1-1.6-0.5-1.5 0.4 0 0.3-0.9-0.3-2-0.6-1.1-1.4-1.8-2-1.5-0.6 0.3-0.9 0.2-0.9-0.3 0.1-0.4 0.1-1.3 0-2 0-0.6-0.5-1-1.1-0.7-0.6 0.3-0.8-0.2-0.5-1 0.3-0.8-0.1-1.8-0.7-2.2-1-0.6-1-0.4-0.3 0.7 0.7 1.1 0.7 1.3-0.2 0.7-0.9-0.5-1-1.4-0.4-3 0.5-1.2 1.5-2.3 2.2-2.5 1-0.3 1-0.1-0.1 0.6-1.1 0.7 0.4 1.4 6 2.6 4.1 0.9 10 2 13 2.3 4.6 0.5 6.3 0.2 10.3-1.8 3-1.5 4.6-2.9 4.3-3.7-0.3-0.6 0-1.5 0.7-1.9 0.8-0.6 0.9-0.4 0.3 0.7q-0.9 1.5 0.1 0.5c0.6-0.5 1.4-2.1 1.8-3.5 0.5-2 0.4-2.2-0.5-1-0.9 1.2-1 0.9-0.5-1.5q0.6-3-1-5c-0.9-1.1-1.3-1.3-0.9-0.5 0.4 0.9 0.3 1.2-0.2 0.7-0.5-0.5-0.9-1.4-1-2 0-0.7-1.4-2.7-3-4.4-1.6-1.8-3.1-3-3.4-2.8-0.3 0.3-1.4-0.5-2.5-1.6-1.1-1.2-1.9-2.3-1.7-2.5 0.1-0.2 0.2-0.9 0.2-1.4 0-0.5-0.3-0.8-0.7-0.6-0.5 0.2-0.8-0.4-0.8-1.3 0-0.9-0.6-1.5-1.2-1.4q-1.3 0.3-0.6-1.5c0.5-1.2 0.4-1.5-0.5-1-0.8 0.6-1 0.3-0.5-1 0.6-1.3 0.5-1.5-0.7-0.7-1.1 0.7-1.3 0.7-0.7-0.3 0.4-0.6 0.5-1.9 0.2-2.7-0.3-0.8-0.9-1.3-1.5-1-0.6 0.3-0.7-0.2-0.3-1.3 0.5-1.2 0.4-1.5-0.5-1-0.8 0.6-1 0.3-0.5-1 0.6-1.3 0.5-1.5-0.7-0.7-1.1 0.7-1.3 0.7-0.7-0.3 0.4-0.6 0.1-3-0.5-5.2-0.8-2.5-1.6-3.5-2-2.7-0.5 0.6-0.5-0.4-0.2-2.3 0.4-2.7 0.3-3.1-0.5-2-0.8 1.1-0.9 0.6-0.4-2 0.4-2.2 0.3-3.3-0.2-2.8-0.6 0.3-0.9-1.1-0.8-3.5 0.2-2.5 0-3.5-0.5-2.5-0.4 1-0.7-8.6-0.7-21.2 0-12.6 0.3-22.2 0.8-21.2 0.4 0.9 0.5-0.6 0.3-3.3-0.3-2.9-0.1-4.4 0.4-3.5 0.5 1 1 0.1 1.4-3 0.4-2.5 0.4-5.4 0-6.5-0.5-1.6-0.4-1.7 0.5-0.5 0.9 1.3 1.1 1.3 1.1-0.3 0-0.9 0.6-1.7 1.3-1.7 0.9 0.1 0.8-0.4-0.3-1.7-1-1.3-0.8-1.2 0.7 0.2zm502.7 20.1l-1.9 1.4c-1.8 1.4-1.9 1.4-0.7-0.3 0.6-0.9 1.8-1.4 2.5-1.1q0 0 0.1 0zm0.1-0.1q0 0.1-0.1 0.1 0 0 0 0zm-357 166c-2.8 0.9-7.3 2.8-10 4.2-2.8 1.4-7.5 4.2-10.5 6.3-3 2.1-8 6.4-11.1 9.6-3.1 3.2-7.2 8.4-9.1 11.4-2 3-4.7 8.2-6.1 11.5-1.4 3.3-3.2 8.5-4.2 11.5-0.9 3-2 9.8-2.6 15-0.6 6.1-0.5 12.6 0.1 18.5 0.6 4.9 1.9 11.7 2.9 15 1.1 3.3 3 8.5 4.3 11.5 1.3 3 3.9 7.7 5.8 10.5 1.9 2.7 6.1 7.8 9.4 11.3 3.4 3.5 8.8 8.2 12.1 10.5 3.3 2.2 8.9 5.4 12.5 7 3.6 1.6 10.3 3.7 15 4.8 5.3 1.1 12.4 1.8 19 1.8 6.8 0 13.7-0.7 19.5-2 4.9-1 12.4-3.5 16.5-5.5 4.1-2 10.2-5.5 13.5-7.9 3.3-2.3 8.6-7.1 11.9-10.6 3.2-3.5 7.6-9.3 9.6-12.9 2.1-3.6 5.2-10.6 6.8-15.5 1.7-5 3.6-12.8 4.2-17.5 0.6-4.8 0.8-11.8 0.5-16-0.4-4.1-1.6-11.1-2.6-15.5-1.1-4.4-3.7-11.6-5.9-16-2.2-4.4-6-10.7-8.4-14-2.5-3.3-7.8-8.8-11.8-12.3-4-3.4-10.9-8-15.3-10.2-4.4-2.2-11.6-5-16-6.1-5-1.3-12.3-2.2-19.5-2.5-7.2-0.2-14.1 0.1-18.5 1-3.9 0.7-9.3 2.1-12 3.1zm213 1.1c-3.3 1.4-8.9 4.5-12.5 6.9-3.6 2.4-9.6 7.4-13.3 11.2-3.8 3.7-8.8 9.9-11.2 13.8-2.5 3.8-5.6 9.9-7 13.5-1.4 3.6-3.2 9.9-4.1 14-0.9 4.1-1.5 11.9-1.5 17.2 0.1 5.4 0.6 10.8 1.3 12 0.6 1.3 7.5 10.6 15.1 20.8 7.7 10.2 16.8 22.8 20.3 28 3.4 5.2 6.8 10.7 7.6 12.3 1 2.1 2.7 3.2 7.3 4.7 3.3 1.1 9.1 2.6 13 3.5 3.8 0.8 11.5 1.5 17 1.5 7.3 0 12.6-0.6 19.5-2.4 5.2-1.3 13.1-4.2 17.5-6.4 4.4-2.3 10.8-6.5 14.2-9.4 3.3-2.9 8.5-8.2 11.3-11.8 2.9-3.6 6.8-9.6 8.6-13.3 1.9-3.7 4.5-10.4 5.8-15 1.4-4.6 2.7-12.6 3.1-18.2 0.5-7.4 0.3-12.5-0.9-19.3-0.9-5.1-3-12.9-4.8-17.5-1.8-4.5-5.3-11.4-7.9-15.2-2.6-3.9-7.8-9.9-11.6-13.5-3.7-3.6-10.2-8.5-14.3-11-4.1-2.5-10.4-5.6-14-6.8-3.6-1.3-9.8-3-13.8-3.8-3.9-0.8-11.1-1.4-16-1.3-4.8 0-11.9 0.7-15.7 1.5-3.9 0.9-9.7 2.7-13 4zm-91.5-140.3c5.2 0 7.2 0.2 4.5 0.4-2.8 0.2-7 0.2-9.5 0-2.5-0.2-0.2-0.4 5-0.4zm-105 792.3c3 0.2 10.4 0.8 16.5 1.4 6 0.6 12.3 0.8 14 0.5 2.1-0.4 2.4-0.3 1 0.3-1.4 0.6 1.1 1.2 8.5 2.2 9.9 1.3 10.6 1.5 12 4.2 0.8 1.5 1.8 2.4 2.3 2 0.4-0.4 0.4 0.4 0.1 1.8-0.4 1.9-0.3 2.2 0.5 1 0.8-1.2 1-0.7 0.5 2-0.5 2.8-0.3 3.2 0.6 2 1-1.3 1.1-1.3 0.6 0.2-0.3 1-0.6 4.7-0.6 14.8l-3.3 0.1c-3.1 0.2-3.1 0.2 0.8 0.9 2.2 0.4-19.5 0.8-48.3 0.8-28.7 0.1-52.4-0.2-52.6-0.6-0.2-0.4 16.1-0.7 72.9-0.7l-71-1v-2.7c0-1.5 0.4-2.3 1-2 0.6 0.4 0.7 0 0.2-1.1-0.5-1.2-0.3-1.5 0.5-1 0.9 0.6 1 0.3 0.5-1-0.4-1-0.3-1.5 0.3-1.2 0.5 0.3 1 0 1-0.5 0-0.6 0.1-1.5 0.2-2 0.2-0.6 0.6-0.9 1-0.8 0.4 0.2 2-1.1 3.7-2.7 1.7-1.7 2.8-3.4 2.6-3.8-0.3-0.4 0.1-1 0.7-1.4 0.7-0.4 2-0.8 2.8-0.8 0.8 0 1.4-0.6 1.2-1.3q-0.2-1.2 1.5-0.5c1.3 0.5 1.6 0.4 1-0.5-0.5-0.9-0.2-1 1-0.5 1.3 0.5 1.6 0.4 1-0.5-0.5-0.9-0.2-1 1-0.5 1.4 0.6 1.6 0.4 0.8-0.7q-1-1.5 0-0.8c0.5 0.4 4.3-0.4 8.2-1.7 4.4-1.4 6.6-2.5 5.5-2.8-0.9-0.3 0.8-0.3 3.8-0.1 4.1 0.3 4.9 0.1 3-0.6-1.9-0.6-1.1-0.8 3-0.4zm233.1 0.7c6.5 0.1 11.2 0.5 10.5 1-0.6 0.5 0 0.7 1.5 0.5 1.5-0.2 2.5-0.1 2.3 0.2-0.1 0.3 1.5 1 3.7 1.7 2.1 0.7 4.5 0.9 5.1 0.5 0.8-0.4 1-0.3 0.6 0.3-0.4 0.5 0.8 1.8 2.7 2.7 1.9 1 4.1 1.4 4.7 1q1.3-0.7 0.5 0.5c-0.4 0.7-0.2 1.3 0.5 1.4 0.7 0.1 1.6 0.1 2 0 0.5-0.1 0.6 0.3 0.3 0.9-0.3 0.5 0.5 1.6 1.7 2.4 1.3 0.8 2.7 1.2 3.3 0.9 0.5-0.4 0.7-0.2 0.3 0.3-0.4 0.5 0.1 2.1 1.2 3.6 1.1 1.5 2.4 2.6 3 2.3 0.5-0.3 1.3 0 1.7 0.7q0.8 1.3-0.5 0.5c-0.6-0.4-1.2-0.6-1.2-0.5 0 0.2 0.8 2 1.7 4 1 2.1 2.1 3.4 2.6 3 0.4-0.4 0.5 0.3 0.2 1.5-0.5 2.2-1 2.3-23 2.7l9.5 0.6c5.2 0.3-10.8 0.6-35.5 0.6-24.8 0-43.2-0.2-41-0.6 3.4-0.6 2.9-0.8-3.3-0.9-5.9-0.1-7.3-0.4-7.8-1.9q-0.7-1.7-1.3-0.6c-0.3 0.7-0.7-1.4-0.7-4.5-0.1-4.3 0-5 0.7-3.1 0.6 1.8 0.7 1.1 0.4-2.5-0.2-3.6-0.1-4.6 0.6-3.5 0.8 1.1 1 0.9 0.7-1.2-0.2-1.4 0-2.4 0.4-2.2 0.5 0.2 1-0.5 1.3-1.6 0.3-1.1 0.2-2.6-0.2-3.3-0.6-0.9-0.4-1 0.7-0.2 1.2 0.8 1.3 0.6 0.7-0.8q-0.7-1.7 0.5-1.5c0.7 0.1 4-0.2 7.3-0.7 4.5-0.6 5.5-1 4-1.6-1.2-0.4 0.3-0.6 3.5-0.3 4 0.3 5 0.2 3.5-0.6-1.5-0.7-1.1-0.8 2-0.5 2.2 0.3 6.9 0.1 10.5-0.4 3.6-0.5 11.7-0.9 18.1-0.8z"/><path class="d" d="m427.4 836.7c-1.4 2.3-1.7 4.1-1.2 9.8 0.3 3.8 1.1 7.1 1.7 7.2 0.6 0.2 0.9 0.7 0.6 1.3-0.3 0.5 0.6 3.8 2 7.2 1.4 3.5 4.6 9.7 7.1 13.8 2.6 4.1 4.7 8 4.8 8.7 0 0.6 0.4 1.1 0.7 1 0.3-0.1 2.3 1.8 4.4 4.3 2 2.5 6 6.9 8.9 9.9 2.8 3 8.7 8.4 13.1 12.1 4.4 3.6 9.4 7.6 11 8.8 1.7 1.2 3.3 1.9 3.8 1.7 0.4-0.3 0.5-0.3 0.2 0-0.3 0.3 0.1 1.1 0.8 1.7 0.6 0.7 2.5 2 4 2.8 1.6 0.8 4.3 2.9 6 4.7 1.8 1.7 3.2 3.5 3.3 4 0 0.4 0.4 1.5 0.8 2.3 0.4 0.8 0.2 2.6-0.4 4-0.7 1.4-2 3.3-2.9 4.2-0.9 1-2.4 1.5-3.3 1.3-1-0.3-1.6-0.1-1.3 0.5 0.3 0.5-0.2 1-1 1-0.8 0-1.7-0.3-1.9-0.8-0.3-0.4-1.8-0.6-3.5-0.5-1.7 0.2-2.9 0-2.7-0.5 0.3-0.4-2.1-1.5-5.2-2.4-3.1-1-8.2-2.2-11.2-2.7-3.9-0.6-7.4-0.4-12 0.6-3.6 0.7-8.5 2.6-11 4.1-2.5 1.5-5.4 4.2-6.5 6-1.1 1.7-2.4 2.8-2.8 2.4-0.5-0.4-0.4 0.5 0.2 2 0.9 2.3 0.8 2.8-0.4 2.8-1.1 0-1.3 0.5-0.6 1.7 0.4 1 1.2 3.6 1.7 5.8 0.4 2.2 0.9 4.4 1 5 0.1 0.5 0.2 1.7 0.3 2.5 0 0.8 0.4 1.2 0.8 0.7 0.4-0.4 1.9 1.2 3.3 3.5 1.3 2.4 2.4 4.6 2.2 5-0.1 0.5 0.2 0.7 0.6 0.5 0.5-0.1 2.1 1.3 3.5 3 1.7 2.1 3.2 3 3.9 2.5q1.3-0.7 0.5 0.5c-0.4 0.9 2 3.5 7.1 7.6 4.2 3.5 11.3 8.7 15.7 11.6 4.4 3 7.9 5.7 7.8 6.2-0.2 0.5 0.4 0.7 1.2 0.4 0.8-0.3 1.7-0.1 2 0.5 0.3 0.5 1.1 0.7 1.7 0.2q1.3-0.7 0.5 0.5c-0.4 0.8-0.1 1.5 0.8 1.8 0.8 0.3 1.3 0.9 1 1.5-0.3 0.6 0.4 0.8 1.5 0.5 1.1-0.3 1.8-0.1 1.5 0.5-0.3 0.5 0 1.2 0.5 1.5 0.6 0.3 0.7 1.1 0.3 1.7q-0.8 1.3 0.5 0.5c0.8-0.4 1.3 0.1 1.6 1.5 0.2 1.3 0.4 3.3 0.5 4.5 0.1 1.3-0.3 2.3-0.9 2.3-0.5 0-0.8 0.5-0.5 1 0.3 0.5-0.4 1.9-1.5 3-1.1 1.1-2.7 1.8-3.5 1.5-0.8-0.3-1.3 0-1 0.5 0.3 0.5 0.1 1-0.5 1-0.5 0-1-0.6-1-1.3 0-0.9-0.2-0.9-0.8 0-0.5 0.8-1.9 0.6-5.4-0.8-2.7-1-4.6-2.2-4.4-2.7 0.2-0.4-0.1-0.7-0.7-0.8-0.7 0-3.7-1.8-6.7-3.9-3-2.2-9-6.7-13.2-10.2-6-4.8-7.8-5.9-8-4.6 0 1-0.2 2.3-0.2 2.9-0.1 0.6-0.4 1-0.8 0.8-0.5-0.2-1 0.9-1.3 2.6-0.3 1.7-0.3 3.4 0 4 0.3 0.5 0.1 1-0.5 1-0.6 0-0.8 3.4-0.5 9.2 0.4 8.1 0.9 10.3 4.2 17.3 2.1 4.4 4.8 9.1 6 10.5 1.3 1.4 2.3 3.1 2.3 3.7 0 0.7 0.5 1.3 1 1.3 0.6 0 0.7 0.6 0.3 1.2-0.5 0.8-0.4 1 0.2 0.6 0.6-0.4 3.6 1.9 6.8 5.2 3.1 3.3 5.7 5.7 5.7 5.2 0.1-0.4 1 0.4 2.1 1.8 1.1 1.4 2 2 2 1.5 0-0.6 0.9 0.1 2 1.5 1.1 1.4 1.8 1.8 1.4 1-0.4-0.8 0.2-0.6 1.2 0.5 1 1.1 2.5 2.1 3.3 2.3 0.8 0.2 2.1 1.1 2.8 2 0.7 0.9 1.2 1.4 1.2 0.9 0-0.4 2.5 0.6 5.5 2.3 3.1 1.7 6 2.7 6.7 2.2 0.8-0.4 1-0.3 0.6 0.3-0.4 0.6 0.9 1.8 3 2.9 2.4 1.2 4.2 1.5 5.2 1 1.1-0.7 1.3-0.5 0.7 0.3-0.5 0.9 1.6 2.1 7.1 4 4.2 1.4 8.6 3.1 9.7 3.7 1.1 0.5 2.5 1.1 3 1.2 0.5 0.1 5 1.4 10 2.8 5 1.5 10.6 2.9 12.5 3.2 1.9 0.3 4 0.8 4.5 1.1 0.5 0.3 2.1 0.7 3.5 0.9 1.4 0.1 7.5 1 13.5 1.9 6 0.8 17.1 1.7 24.5 1.8 7.4 0.1 17.8 0 23.2-0.3 5.8-0.3 9.3-0.9 9-1.5-0.4-0.5 0.4-0.6 2.1-0.2 1.6 0.4 2.7 0.3 2.7-0.3 0-0.6 1.1-0.8 2.5-0.5 1.4 0.3 2.6 0.1 2.8-0.4 0.1-0.6 1.3-1.2 2.7-1.4 1.4-0.2 3.9-0.9 5.5-1.6 1.7-0.7 4-1.4 5.3-1.7 1.2-0.2 2-0.9 1.7-1.4-0.3-0.6 0.1-0.7 0.8-0.4 0.6 0.3 5.1-1.3 10-3.5 6-2.9 8.5-4.5 8-5.4q-0.8-1.2 0.5-0.5c0.7 0.5 2.5-0.1 4.2-1.2 1.7-1.1 3.5-1.8 4-1.5 0.5 0.3 0.9 0.1 0.8-0.3-0.2-0.4 3-3.6 7-7 3.9-3.4 8-7.4 9-8.9 0.9-1.5 2.6-3.7 3.7-4.8 1.1-1.1 2.3-1.9 2.7-1.8 0.5 0.2 0.6-0.2 0.3-0.7-0.3-0.6 0-1 0.5-1 0.5 0 0.9-0.3 0.8-0.8-0.1-0.4 1.4-3.6 3.4-7.2 2-3.6 5.1-10.8 6.8-16 1.8-5.2 3.7-13 4.3-17.3 0.7-4.2 1.5-7.7 2-7.7 0.4 0 0.5-0.3 0.3-0.8-0.2-0.4-0.6-9.4-0.8-20-0.2-10.5-0.5-19.2-0.8-19.2-0.3 0-0.8-2.1-1.2-4.7-0.5-2.7-1.9-9.1-3.3-14.3-1.3-5.2-3.3-12.1-4.5-15.3-1.1-3.1-1.8-6.2-1.5-6.7 0.3-0.5 0.2-1-0.2-1-0.5 0-1.7-2.1-2.7-4.8-1.1-2.6-2-5.3-2-6-0.1-0.6-0.4-1.2-0.8-1.2-0.5 0-0.6-0.7-0.3-1.5 0.3-0.8 0-1.3-0.5-1-0.5 0.3-1.1 0-1.2-0.5-0.2-0.5-0.3-1.6-0.3-2.3 0-0.6-0.2-1.4-0.5-1.7-0.3-0.3-1.6-2.2-2.8-4.3-1.2-2-1.6-3.4-0.9-3.1 0.6 0.4 0.2-0.3-1-1.5-1.3-1.1-2.6-3.1-2.9-4.4-0.4-1.2-1.6-3-2.8-4-1.2-1-1.8-1.7-1.3-1.7 0.4 0-1.2-3-3.5-6.8-2.3-3.7-7.2-10.7-10.9-15.7-3.7-5-8-10.6-9.7-12.5-2.8-3.4-3.1-3.4-5.5-2-1.5 0.8-2.4 1.8-2.2 2.2 0.3 0.5-0.1 0.7-0.7 0.6-0.7-0.1-2.5 0.5-4 1.3-1.5 0.8-2.4 1.9-2 2.4 0.4 0.6 0.2 0.7-0.6 0.2-0.7-0.4-3.4 0.6-6.4 2.3-2.9 1.7-5.6 2.7-6.1 2.3-0.4-0.5-0.7-0.2-0.7 0.4 0 0.9-0.6 1-1.7 0.6-1.1-0.5-1.5-0.4-1.1 0.2 0.4 0.6-1.7 2-5 3.3-3.1 1.3-7.6 2.6-10 3l-4.2 0.7c0 24.2 0.4 29.3 1 29 0.5-0.3 0.7 0.1 0.4 0.7-0.3 0.7 0.1 1.6 0.8 1.9 0.7 0.4 7.9 3.4 16.1 6.8 8.1 3.4 14.9 5.8 15.2 5.3 0.3-0.4 0.5-0.1 0.5 0.5 0 0.7 1.2 1.9 2.8 2.7 1.5 0.7 3.3 2.6 4 4.2 0.8 1.6 1.1 4.1 0.8 5.6-0.3 1.6-1.3 3.9-2.1 5.3-0.8 1.4-2 2.3-2.5 2-0.5-0.3-1 0.1-1 0.7 0 1-1.4 1.1-5.2 0.7-2.9-0.4-6.4-1.2-7.8-2-1.4-0.7-3.4-1.5-4.5-1.6-1.1-0.2-2.3-0.9-2.7-1.6-0.4-0.7-1.8-1.3-3-1.3-1.3-0.1-9.5-3.4-18.3-7.3-8.8-4-16.4-7.3-16.9-7.4-0.5-0.1-1.8-0.9-2.8-1.7-1-0.8-2.1-1.4-2.3-1.3-0.3 0.2-2.7-0.8-5.5-2.2-2.7-1.4-5-2.2-5-1.8 0 0.5-0.4 0.3-0.8-0.3-0.4-0.6-3.5-2.6-7-4.5-3.4-1.9-5.9-3.8-5.5-4.2 0.5-0.5 0-0.6-0.9-0.3-1.1 0.4-1.8 0.1-1.8-0.7 0-0.6-0.2-0.9-0.5-0.5-0.3 0.5-5.8-2.4-12.2-6.3-6.5-4-16.1-10.1-21.3-13.7-5.2-3.6-14.6-10.1-20.8-14.6-6.2-4.5-11.3-8.4-11.2-8.9 0-0.4-0.4-0.7-1-0.7-0.5 0-2.3-1-4-2.3-1.6-1.2-2.6-2.7-2.2-3.2 0.4-0.6 0.2-0.7-0.3-0.3-0.6 0.4-5.6-2.5-11.2-6.5-5.6-4-9.9-7.6-9.5-8.1 0.4-0.5 0.3-0.6-0.3-0.3-0.5 0.3-2.8-0.6-5-2-2.2-1.5-4.2-3.1-4.5-3.6-0.3-0.5-0.7-0.7-1-0.6-0.3 0.2-3.2-1.3-6.5-3.2-3.3-2-8.2-4.6-11-5.9-2.7-1.3-6.2-2.5-7.7-2.7-2-0.3-3 0.2-4.4 2.4zm-228.6 28.5c-1.4 1.3-6.2 5.2-10.8 8.8-4.6 3.6-13.3 11.5-19.4 17.5-6.1 6-14.7 15.8-19.1 21.6-4.4 5.9-9.6 13.4-11.5 16.8-1.9 3.3-3.7 5.9-4 5.7-0.3-0.3-0.6 0.1-0.6 0.7-0.1 0.7-1.2 3.6-2.5 6.4-1.3 2.9-2.8 5-3.2 4.5-0.5-0.4-0.6 0-0.2 0.8 0.4 0.8-0.1 2.3-0.9 3.2-0.9 1-1.3 2-0.8 2.3 0.4 0.3 0.1 0.5-0.5 0.5-0.7 0-1.1 0.7-0.8 1.5 0.3 0.8 0.1 1.5-0.5 1.5-0.5 0-0.7 0.6-0.4 1.2 0.3 0.7-0.1 2-0.8 2.8-0.7 0.8-1.4 2.2-1.4 3-0.1 0.8-1 4.8-2 8.8-1.1 4-2.1 7.1-2.4 6.9-0.3-0.3-0.4 0.6-0.2 1.9 0.1 1.3-0.2 2.4-0.8 2.4-0.6 0-0.7 1.2-0.2 3 0.4 1.9 0.3 3-0.3 3-0.5 0-1 1.9-1.1 4.2 0 2.4-0.3 11.8-0.5 21.1-0.2 9.2-0.1 16.7 0.4 16.7 0.4 0 0.6 1.2 0.6 2.7-0.1 1.6 0.1 3.5 0.5 4.3 0.4 0.8 0.8 3.4 0.9 5.7 0.1 2.4 0.5 4.3 1 4.3 0.4 0 0.4 1 0 2.2-0.5 1.9-0.4 2.1 0.7 1.3 1.1-0.8 1.3-0.6 0.7 1.2-0.4 1.4-0.3 2.3 0.3 2.3 0.6 0 0.8 0.7 0.5 1.5-0.3 0.8-0.2 1.5 0.3 1.5 0.4 0 1.7 2.7 3 6 1.2 3.3 2.2 6.3 2.1 6.7 0 0.5 0.3 1 0.8 1.3 0.6 0.3 2.8 3.7 5.1 7.5 2.3 3.8 6.4 9.8 9.2 13.2 2.7 3.5 4.8 6.3 4.5 6.3-0.3 0 1.5 2 4 4.5 2.5 2.5 4.8 4.5 5.3 4.5 0.4-0.1 1.5 0.7 2.5 1.7 0.9 1 1.4 2.2 1 2.6-0.5 0.5-0.3 0.8 0.2 0.6 0.6-0.1 1.8 0.1 2.8 0.4 0.9 0.4 1.5 1.1 1.2 1.7-0.3 0.5-0.2 0.9 0.3 0.8 0.4 0 1.5 0.2 2.5 0.5 1 0.4 1.4 1.2 1 1.9-0.4 0.8 0.1 0.7 1.2-0.2 1.1-0.9 1.6-1 1.2-0.3-0.4 0.8 0 1.5 0.8 1.8 0.8 0.3 1.3 0.8 1.1 1.2-0.2 0.5 0.7 0.7 2 0.5 1.3-0.1 2.2 0.2 1.9 0.8-0.3 0.5 5.8 4.2 13.5 8 7.7 3.8 14 6.8 14 6.5 0-0.3 3.3 0.6 7.3 1.9 3.9 1.3 7.3 2.3 7.4 2.3 0.1-0.1 0.4-11 0.7-24.2 0.4-18.7 1-27.7 3-40.5 1.3-9.1 3-19.7 3.8-23.7 0.7-3.9 1.6-7 2.1-6.7 0.4 0.2 0.4-0.2 0.1-0.9-0.3-0.6 0.2-5.3 1.1-10.2 0.9-5 1.8-9.7 2.2-10.5 0.3-0.8 0.7-2.4 0.8-3.5 0.2-1.1 2.2-9.4 4.4-18.5 2.3-9.1 3.9-17.1 3.6-17.8-0.3-0.6-0.2-1 0.3-0.8 0.4 0.3 1.6-2.5 2.6-6.2 1-3.7 2.4-7.8 2.9-9.2 0.6-1.4 1.1-3.2 1.3-4 0.2-0.8 1.1-4.3 2.1-7.7 1.1-3.6 2.2-5.9 2.8-5.5 0.6 0.4 0.7 0.2 0.3-0.6-0.5-0.6-0.2-3.6 0.5-6.6 0.7-3.1 1.6-5.2 2.2-4.8 0.5 0.4 0.6-0.4 0.2-2.1-0.4-1.6-0.3-2.7 0.3-2.7 0.6 0 0.7-1.1 0.3-2.8-0.6-2.2-0.4-2.5 0.7-1.7 1.1 0.8 1.3 0.4 0.7-2.5-0.4-1.9-0.3-4.9 0.1-6.5 0.5-1.7 0.4-6.2 0-10-0.5-4.2-2-9.4-3.7-13-1.9-3.9-4.8-7.8-8.4-11-3.1-2.8-8.8-6.8-12.9-8.9-4-2.2-7.5-4.2-7.8-4.5-0.3-0.3-1.1-0.7-1.7-0.9-0.7-0.1-5.1-2.5-9.8-5.2-4.7-2.8-8.7-5-8.8-5-0.2 0-1.5 1-2.9 2.2z"/><path fill-rule="evenodd" class="e" d="m161.4 411.2l3.1 2.6c1.8 1.5 8.3 7 14.6 12.3 6.3 5.3 15.2 12.4 19.9 15.9 4.7 3.4 12.6 8.7 17.5 11.8 4.9 3 14.8 8.4 22 11.8 7.2 3.5 18.4 8.1 25 10.3 6.6 2.2 15.1 4.6 19 5.5 3.9 0.8 6 1.5 4.7 1.5-1.2 0.1-6.8-1.1-12.5-2.5-5.6-1.4-13.1-3.7-16.7-5-3.6-1.4-10.6-4.4-15.5-6.6-4.9-2.3-12.6-6.2-17-8.6-4.4-2.5-11.2-6.5-15-9.1-3.8-2.5-9.5-6.4-12.5-8.6-3.1-2.2-9.1-6.9-13.5-10.5-4.4-3.5-11-9.1-14.8-12.5-3.7-3.3-6.9-5.8-7.2-5.5-0.2 0.3-1.1 3.9-2 8-0.8 4.1-2 12.9-2.6 19.5-0.7 8.2-0.7 16.1 0 25 0.7 8.2 2 16.3 3.6 22 1.5 4.9 4.6 12.8 7.1 17.5 2.5 4.7 6.6 10.8 9.2 13.5 2.6 2.8 5.8 6.4 7 8 1.3 1.6 2.3 3.7 2.2 4.5 0 0.8-0.8 0.1-1.8-1.7-0.9-1.7-4.6-6.5-8.2-10.6-3.6-4.1-8.2-10.8-10.3-15.1-2-4.2-4.8-11.5-6.2-16.3-1.5-5.3-3-14-3.6-21.8-0.8-9.5-0.8-16.3 0-25 0.6-6.6 1.9-16.1 2.8-21.2zm530.3 3.4c0.7 2.2 2 8.7 2.8 14.5 0.8 5.7 1.6 14.3 1.9 19 0.2 4.6 0 13.6-0.5 20-0.5 6.9-1.9 15-3.4 20.5-1.4 4.9-4 11.9-5.6 15.5-1.7 3.5-4.8 8.7-6.9 11.5-2.1 2.7-6 7.2-8.5 10-3.8 4.1-4.6 5.6-4.6 8.7 0.1 2.8 0.8 4.5 3.1 6.8 1.6 1.6 3.7 3 4.7 3 0.9 0 1.3 0.3 1 0.7-0.4 0.4-2.1 0.1-3.8-0.7-1.8-0.9-3.8-2.8-4.6-4.3-0.7-1.5-1.3-4.3-1.3-6.2 0-2.9 1-4.7 6-10 3.3-3.6 7.8-9.4 10-12.8 2.2-3.4 5.4-10 7-14.5 1.6-4.5 3.7-12.2 4.5-17 0.9-5.4 1.5-14.9 1.5-24.7 0-8.8-0.5-19.2-1-23-0.6-3.9-1.5-9.4-2-12.3-0.6-2.9-1.4-5.3-1.8-5.3-0.4 0-6.1 4.6-12.7 10.2-6.6 5.6-16.3 13.4-21.5 17.3-5.2 3.9-11.8 8.7-14.5 10.5-2.8 1.9-7.3 4.7-10 6.3-2.8 1.7-9.1 5.2-14 7.8-5 2.7-13.6 6.7-19.3 8.9-5.6 2.2-14.8 5.2-20.5 6.7-8.7 2.2-11.6 2.6-19.7 2.1-7.9-0.5-12.4-1.5-27-6.2-9.6-3.1-22-6.7-27.5-8.1-5.5-1.3-15.2-3.3-21.5-4.3-6.3-1.1-17.8-2.5-25.5-3.2-8.8-0.8-21.5-1-34-0.6-11.5 0.3-25.8 1.4-33.5 2.6-7.4 1.1-16.9 2.7-21 3.5-4.1 0.9-11.6 2.7-16.5 4.1-5 1.3-13.1 3.8-18 5.5-5 1.6-12.5 3.9-16.8 5-5.4 1.4-10.6 1.9-27.2 1.6l11.5-0.6c6.3-0.4 13.5-1.3 16-1.9 2.5-0.7 11.5-3.5 20-6.3 8.5-2.8 21.8-6.4 29.5-8 7.7-1.6 18.7-3.6 24.5-4.5 5.8-0.8 19.7-1.7 31-2 13-0.4 25.8-0.2 35 0.6 8 0.7 18.3 1.9 23 2.6 4.7 0.8 13.7 2.6 20 4 6.3 1.4 18.2 4.8 26.5 7.5 8.2 2.6 17.7 5.5 21 6.4 3.3 0.8 9.4 1.5 13.5 1.5 4.4 0.1 10.7-0.8 15.5-2 4.4-1.1 11.8-3.4 16.5-5.1 4.7-1.6 14.3-5.9 21.5-9.5 7.1-3.6 16.6-8.9 21-11.7 4.4-2.8 12-8 17-11.7 4.9-3.6 15.3-11.9 23-18.4 7.7-6.6 14.2-12.4 14.4-13 0.2-0.6 1 0.8 1.8 3zm-504 120c0.2 0.2-0.5 2.1-1.5 4-1.2 2.5-3.1 4.2-6.2 5.7-3.7 1.7-5.6 1.9-10.5 1.4-3.3-0.4-9.3-1.5-13.2-2.4-4-1-7.3-1.4-7.3-1 0 0.4 1.5 3.1 3.4 6 1.9 2.9 7.2 8.9 11.7 13.3 4.6 4.4 10.4 9.3 12.9 10.7 2.5 1.5 7.6 3.8 11.5 5.1 3.8 1.3 8.4 3.1 10.2 4 1.8 0.9 3.9 2.7 4.7 3.9 0.7 1.2 1.7 3.4 2 4.8 0.4 1.3-0.4 0.5-1.6-1.9-1.3-2.5-3.6-5.1-5.3-5.9-1.7-0.8-6.2-2.6-10-3.9-3.9-1.3-9.4-3.8-12.4-5.6-3-1.8-9.1-6.8-13.5-11.2-4.5-4.4-9.8-10.9-11.9-14.3-2-3.4-3.6-6.5-3.5-6.7 0.2-0.3 5.5 0.6 11.8 2.1 7.5 1.6 13.1 2.3 16 2 2.5-0.3 5.6-1.4 7-2.4 1.4-1 3.1-3.3 3.9-5.1 0.8-1.7 1.6-2.9 1.8-2.6zm520 4.6c0.1-0.1-1.5 3.1-3.5 7.1-2.6 5-6.3 9.8-12.2 15.9-4.9 4.9-12.2 11-17 14.1-4.7 3-9 6.5-9.7 7.9-0.6 1.3-1.4 3-1.7 3.9q-0.5 1.5-0.5-0.5c-0.1-1.1 0.5-3.1 1.4-4.3 0.8-1.2 4.5-4.2 8.2-6.6 3.7-2.4 9.3-6.6 12.3-9.2 3-2.7 7.3-6.9 9.5-9.3 2.2-2.4 5.7-7.1 7.7-10.5 2.1-3.4 3.7-6.2 3.5-6.3-0.1-0.2-3.6 0.6-7.7 1.7-4.1 1.1-10.7 2.1-21.5 2.9l6.5-1c3.6-0.5 10.5-2 15.5-3.3 4.9-1.3 9.1-2.5 9.2-2.5zm-42.6 55.9c1.1 2.4 4.5 10.1 7.4 17 2.9 6.8 8.2 20.6 11.8 30.5 3.6 9.9 8.1 23.8 10 31 2 7.1 4.3 16.8 5.1 21.5 0.8 4.6 2.3 13.9 3.2 20.5 1 7.3 1.7 18.4 1.7 28.5 0 9-0.6 20.1-1.2 24.5-0.7 4.4-2.4 12.2-3.7 17.5-1.4 5.2-4.6 14-7.3 19.5-2.6 5.5-6.3 12.2-8.1 15-1.9 2.7-6 7.9-9.1 11.5-3.1 3.5-9.3 9.4-13.8 13-4.6 3.5-11.5 8.4-15.5 10.7-3.9 2.4-12.5 6.6-19.1 9.3-6.6 2.8-13.3 6.3-14.8 7.8-1.5 1.4-3 4-3.3 5.7-0.4 1.7 0 4.2 0.9 6 0.8 1.6 2.6 3.6 6.7 6v30.5l-3.3-1.7c-1.8-0.9-3.4-1.8-3.7-2.1-0.3-0.3 0.2-0.3 1 0 0.8 0.3 2.3 0.8 3.2 1.2 1.6 0.5 1.8-0.6 1.8-13.4 0-13.9 0-14.1-2.5-15.5-1.4-0.9-3.2-3-4.1-4.8-1-2.1-1.4-4.4-1-6.5 0.3-1.8 1.6-4.4 2.8-5.7 1.3-1.5 8.4-5.2 16.3-8.6 7.7-3.3 17.7-8.3 22.3-11.2 4.6-2.9 12.7-9.3 18-14.3 5.3-5 12.1-12.7 15.1-17 3-4.4 7.4-12 9.7-16.9 2.4-5 5.4-13.3 6.7-18.5 1.4-5.3 3.1-13.6 3.7-18.5 0.8-5.9 1-16.2 0.7-29.5-0.4-13.5-1.2-24.6-2.5-32.5-1.1-6.6-2.8-15.2-3.7-19-0.8-3.9-3-12-4.6-18-1.7-6.1-6.7-20.7-11.1-32.5-4.4-11.9-10.2-26.3-12.9-32-2.7-5.8-4.9-11.2-4.9-12 0-0.9 1 0.5 2.1 3zm-460.4-0.7c0.2 0.7-1.8 6.1-4.5 12.2-2.8 6-7.2 17.3-9.9 25-2.8 7.7-6.8 19.9-8.9 27.2-2.2 7.3-4 13-4.2 12.5-0.2-0.4 1.9-8.2 4.7-17.2 2.7-9.1 6.8-21.5 9-27.5 2.3-6.1 6.2-16 8.7-22.2 2.5-6.1 4.8-10.6 5.1-10zm-28.2 78.7c0.1 0.3-0.6 4.8-1.7 10-1.1 5.2-2.8 14.6-3.8 21-1 6.3-1.9 10.2-1.9 8.7-0.1-1.5 0.8-7.8 1.8-14 1.1-6.2 2.7-14.6 3.6-18.7 0.9-4.2 1.8-7.3 2-7zm-8.1 43c0.1 0 0.2 10.4 0.2 23.2 0 18.2 0.4 25.2 1.8 32.3 0.9 4.9 3 13 4.6 18 1.6 4.9 4.7 12.3 6.8 16.5 2.1 4.1 6.3 10.8 9.3 15 3.1 4.1 8.7 10.3 12.5 13.9 3.8 3.5 10 8.5 13.9 11.1 3.8 2.5 11.7 7.2 17.5 10.4 5.8 3.2 13.2 7.7 16.5 10 3.3 2.3 8.3 6.9 11.2 10.2 2.9 3.2 6.6 8.6 8.2 11.9 1.6 3.3 3.2 7.3 3.6 9 0.3 1.6-0.7-0.1-2.2-3.8-1.6-3.7-5.1-9.7-7.8-13.4-2.8-3.7-7.5-8.6-10.5-10.9-3-2.2-8.8-6-12.8-8.3-4-2.3-10.5-6-14.5-8.3-4-2.3-10.5-6.5-14.5-9.5-4-2.9-9.8-7.9-12.8-11.1-3.1-3.2-7.6-8.4-9.9-11.7-2.4-3.3-5.9-9-7.8-12.5-2-3.6-5-10.6-6.7-15.5-1.7-5-4-13.3-5-18.5-1.1-5.3-2.2-14.7-2.6-21-0.4-6.4-0.4-17.3 0-24.3 0.4-7 0.9-12.7 1-12.7zm253.1 95.2h5.5c3-0.1 7.3 0.5 9.5 1.3 2.6 0.9 2.9 1.2 1 0.8-1.7-0.3-5.9-0.9-9.5-1.3zm-4.6 1.7c0.4 0-1.3 2.1-3.9 4.7-3.5 3.5-5.2 6.2-6.4 10.3-0.8 3-2 7.7-3.5 15.5l0.6-6c0.3-3.3 1.4-8.5 2.6-11.5 1.2-3.4 3.5-7 5.9-9.3 2.1-2 4.2-3.7 4.7-3.7zm26.1 1.5c1.4 0.4 7 3 12.5 5.9 5.5 2.9 14.3 8.1 19.5 11.6 5.2 3.5 14.9 10.4 21.5 15.4 6.6 5 16.7 12.5 22.5 16.7 5.8 4.2 15.9 11.2 22.5 15.6 6.6 4.4 16.7 10.7 22.5 14 5.8 3.4 18.1 9.9 27.5 14.6 9.3 4.7 16.6 8.6 16.2 8.6-0.4 0.1-6.7-2.8-14-6.4-7.3-3.5-18.6-9.5-25.2-13.1-6.6-3.7-15.8-9.3-20.5-12.3-4.7-3.1-9-5.8-9.5-6.1-0.6-0.2-5.3-3.5-10.5-7.2-5.2-3.7-10.1-7.2-10.8-7.8-0.7-0.6-1.7-1-2.2-1-0.6 0-1.1-0.4-1.3-0.8-0.1-0.5-6.5-5.6-14.2-11.4-7.7-5.8-19-13.9-25-17.9-6-4.1-16.2-10-22.5-13.2-6.3-3.3-10.4-5.6-9-5.2zm-38.9 29l0.9 6.7c0.6 3.7 2.3 10.5 4 15 1.7 4.6 4.9 11.7 7.1 15.8 2.2 4.1 6.6 11 9.7 15.4 3.1 4.3 9.4 11.8 13.9 16.7 4.6 4.9 7.7 8.9 7 8.9-0.7-0.1-4.6 1.6-8.7 3.7-4.2 2.1-10.1 6.2-13.4 9.3-3.6 3.4-6.9 7.7-8.7 11.5-1.8 3.7-3.1 8.3-3.4 12-0.3 3.3-0.1 8.2 0.6 11 0.6 2.7 2.8 8.6 4.9 13 2.1 4.4 5.8 10.7 12.7 20l-3.4 7.5c-1.8 4.1-3.5 8.6-3.6 10-0.2 1.4-0.6 2.9-0.9 3.5-0.3 0.5-0.9 3.9-1.2 7.5-0.4 3.6-0.2 9.5 0.4 13.5 0.6 3.8 2.4 10.4 4 14.5 1.6 4.1 5.2 10.9 8 15 2.8 4.1 5.7 7.9 6.3 8.5 0.7 0.5 3 3 5.1 5.5 2.2 2.5 6.7 6.7 10.1 9.5 3.3 2.7 9.8 7.4 14.5 10.4 4.7 3 13.4 7.8 19.5 10.7 6 2.9 15.4 6.9 20.7 8.8 5.4 2 9.8 3.2 9.7 2.8 0-0.4 0.6-0.2 1.3 0.4 0.7 0.7 7.8 2.8 15.8 4.8 8 2 20.8 4.6 28.5 5.7 10.5 1.6 19 2.1 34 2.2 11 0 23.8-0.5 28.5-1.2 4.7-0.7 9.3-1.4 10.2-1.7 1.3-0.3 1.7 0 1.3 1.3-0.3 1-0.7 2.7-0.9 3.8-0.3 1.1-1.5 4.9-2.7 8.5-1.2 3.6-3.8 9.9-5.9 14-2.1 4.1-5.8 10.2-8.2 13.5-2.5 3.3-6.9 8.5-9.9 11.5-3 3-8.1 7.5-11.4 10-3.3 2.5-9.2 6.4-13 8.6-3.9 2.2-9 4.8-11.5 5.8-2.5 0.9-5.9 2.3-7.5 3.1-1.7 0.7-5.9 2.2-9.5 3.4-3.6 1.1-10.3 2.9-15 4-4.7 1.1-13.9 2.9-20.5 4.1-6.6 1.2-14.3 2.3-17 2.6-2.8 0.2-8.4 0.9-12.5 1.4-4.1 0.5-17.9 1.4-30.5 2-12.7 0.6-27.7 0.8-33.5 0.5-5.8-0.3-16.1-0.8-23-1.1-6.9-0.3-14.5-0.7-17-1-2.5-0.2-9-0.9-14.5-1.5-5.5-0.5-11.6-1.2-13.5-1.4-1.9-0.3-9.4-1.4-16.5-2.5-7.2-1.2-17.1-3-22-4.1-5-1.1-12.2-2.9-16-4.1-3.9-1.1-7.5-2.2-8-2.3-0.6-0.1-1.9-0.6-3-1-1.1-0.4-5.6-2.5-10-4.5-4.4-2-10.7-5.5-14-7.7-3.3-2.2-8.4-6.3-11.4-8.9-2.9-2.7-7.4-8.1-10-11.9-2.5-3.9-5.8-9.9-7.3-13.5-1.4-3.6-3.3-9.9-4.2-14-0.8-4.1-1.7-11.6-2-16.5-0.5-8.8-0.5-8.9 0.4-2 0.5 3.8 1.4 10.1 2 14 0.6 3.8 2 9.9 3.2 13.5 1.1 3.6 3.4 9 5.1 12 1.6 3 3.8 6.6 4.9 8 1 1.4 4.4 5.1 7.6 8.3 3.1 3.2 8.6 7.8 12.2 10.1 3.6 2.4 8.7 5.5 11.5 6.8 2.7 1.4 9.7 4.2 15.5 6.1 5.8 2 15.4 4.7 21.5 6.1 6 1.4 18.4 3.6 27.5 5 9.1 1.3 23.7 3.2 32.5 4.1 8.8 0.9 24.8 2 35.5 2.4 10.7 0.5 26.9 0.7 36 0.4 9.1-0.2 22.3-0.8 29.5-1.4 7.1-0.6 18.2-1.7 24.5-2.5 6.3-0.8 16.4-2.4 22.5-3.6 6-1.1 15.9-3.4 22-5.1 6-1.7 14.8-4.6 19.5-6.4 4.7-1.9 11-4.8 14-6.5 3-1.7 8-4.8 11-6.8 3-2.1 8.2-6.2 11.4-9.1 3.3-3 8.6-8.8 11.9-12.9 3.2-4.1 7.9-11.6 10.2-16.5 2.4-5 5.3-12.4 6.5-16.5 1.2-4.1 2-7.6 1.8-7.8-0.2-0.1-6.4 0.5-13.8 1.4-9.7 1.1-18.1 1.4-30 1-9.1-0.3-21.2-1.3-27-2.2-5.8-0.8-15.5-2.6-21.5-3.9-6.1-1.3-16.3-4-22.8-6-6.4-1.9-15.2-4.9-19.5-6.6-4.2-1.7-12.2-5.4-17.7-8.1-5.5-2.8-14.5-8-20-11.7-5.5-3.6-13.9-10.4-18.5-15.1-4.7-4.7-10.9-12.1-13.8-16.5-2.9-4.4-6.6-11.4-8.2-15.5-1.6-4.1-3.4-10.7-4-14.5-0.6-4-0.8-9.9-0.5-13.5 0.4-3.6 1.8-9.9 3.1-14 1.4-4.1 3.3-9.1 6.1-14.5l-4.8-6.5c-2.6-3.6-6.1-9.2-7.7-12.5-1.7-3.3-3.8-8.7-4.8-12-1.2-4.4-1.5-7.8-1-12.5 0.4-4.2 1.7-8.9 3.7-13 1.9-4 5.2-8.5 8.5-11.8 3.3-3.2 8.7-6.9 22.4-13.7l-7.4-7.5c-4-4.1-9.9-11.1-13.2-15.5-3.2-4.4-7.7-11.6-10.1-16-2.3-4.4-5.6-11.8-7.4-16.5-1.8-5.2-3.2-11.1-3.4-15zm-128.1 60c0.5 1.6 1.1 6.1 1.9 17l-1.4-8.5c-0.7-4.7-1.4-9.2-1.4-10 0-0.8 0.4-0.2 0.9 1.5zm0.7 18.5c0.2 0 0.2 2.8-0.1 6.2-0.4 3.5-1.8 10.8-3.2 16.3-1.4 5.5-6.4 23.3-11 39.5-4.7 16.2-8.5 30.2-8.6 31 0 1.3-0.1 1.3-0.5 0-0.2-0.8 3.4-14.8 8.1-31 4.6-16.2 9.6-34.1 11-39.8 1.4-5.6 2.9-12.9 3.2-16.2 0.3-3.3 0.8-6 1.1-6zm-24 96c0.1 0.8-0.6 4.6-1.7 8.5-1.1 3.8-1.7 5.2-1.4 3 0.3-2.2 0.7-4.5 0.9-5 0.1-0.6 0.6-2.6 1-4.5 0.5-1.9 1-2.8 1.2-2zm-4.2 16.1c0.2 0.4-0.7 6.7-2.1 14-1.3 7.4-3.3 19-4.3 25.9-1.1 6.9-2 11.1-2 9.5-0.1-1.7 1.2-11.1 2.9-21 1.7-9.9 3.2-18.7 3.3-19.5 0.2-0.8 0.7-3.3 1.1-5.5 0.4-2.2 0.9-3.7 1.1-3.4zm-9.9 62.9c0.2 0 0.3 2.8 0.3 6.2 0 4.1-0.3 5.6-0.8 4.3-0.5-1.1-0.6-3.9-0.4-6.3 0.3-2.3 0.6-4.2 0.9-4.2zm-0.9 16.5c0.2 2.2 0.2 5.6 0 7.5-0.2 1.9-0.4 0.1-0.4-4 0-4.1 0.2-5.7 0.4-3.5zm96.8 137.9c4.9 0.2 16.7 1.4 43.5 5.1l2.1 5.5c1.4 3.6 2.3 8.4 2.9 23l-7.5-0.3 7-0.9-0.6-8.1c-0.4-5.9-1.2-9.7-5.4-18.2l-15-2.3c-8.3-1.2-20.9-2.4-28-2.5-11.3-0.2-14 0.1-20.5 2.1-4.2 1.3-9.8 3.5-12.5 4.9-2.8 1.4-7.4 4.9-10.4 7.7-2.9 2.8-6 6.4-6.9 8.1-0.8 1.6-1.9 4.2-3.2 8.5l71.5 0.5-36.3 0.2c-28.4 0.2-36.2 0-36.2-1 0-0.7 1.1-3.6 2.5-6.5 1.4-2.9 4.6-7.4 7.2-10 2.7-2.6 7.5-6.2 10.8-8 3.3-1.8 8.4-4 11.5-4.9 3-0.9 7.5-2 10-2.4 2.4-0.5 8.5-0.7 13.5-0.5zm219-0.2c7.1-0.1 12.3 0.5 18 1.9 4.4 1.1 10.9 3.4 14.5 5.1 4.4 2.1 8.6 5.2 13.2 9.9 4.1 4.2 7.1 8.1 7.5 10 0.4 1.7 1.1 3.3 1.5 3.5 0.4 0.2 0.8 1.1 0.8 1.9 0 1.2-2 1.4-24.5 1l22.5-0.5-0.6-2.8c-0.3-1.5-2.1-5-3.9-7.7-1.9-2.8-5.1-6.4-7.2-8.1-2.1-1.7-6.1-4.3-8.8-5.7-2.8-1.4-8.4-3.6-12.5-4.9-6.3-1.9-9.5-2.3-20-2.2-7.2 0-18.5 1-26.5 2.2-7.7 1.1-14.7 2.3-15.5 2.6-0.9 0.3-2.4 2.7-3.4 5.3-1.1 2.6-2.3 6.8-2.7 9.3-0.5 3.4-0.7 3.8-0.8 1.5-0.1-1.7 0.5-5.3 1.3-8 0.8-2.8 2.3-6 3.3-7.2 1.5-1.9 4.2-2.6 17.8-4.6 8.8-1.3 20.5-2.4 26-2.5zm-49.6 25.3l1.3 3.5c1.3 3.5 1.3 3.5 16.3 4.6l-8.3 0.2c-4.5 0.1-8.2-0.2-8.2-0.6 0-0.4-0.2-2.3-0.5-4.2z"/><path class="c" d="m626 750.8l-6.5 6.7c10.5-10.1 13.5-13.1 13.5-13.2 0-0.2-0.1-0.3-0.3-0.3-0.1 0-3.2 3-6.7 6.8z"/><path fill-rule="evenodd" class="a" d="m305.6 543c1.9 0 8.7 1.6 15.1 3.5 6.5 2 21.9 6.9 34.3 11 12.4 4 27.7 8.9 34 10.9 6.3 1.9 12.6 4.3 14 5.4 1.4 1 3.1 3.4 3.9 5.3 1.2 3 1.2 3.8-0.3 6.6-0.9 1.8-2.9 3.9-7.5 5.8l6.6 6.5c3.7 3.6 9.3 9.9 12.6 14 3.3 4.1 7.4 10.2 9.3 13.5 1.8 3.3 4.5 8.9 5.9 12.5 1.4 3.6 3.5 10.1 4.5 14.5 1 4.4 2.3 11.9 3.5 25.5h9l1.2-11.2c0.7-6.2 2.4-15.2 3.8-20.1 1.4-4.8 4.1-12 6.1-15.9 2-4 5.8-10.4 8.5-14.3 2.6-3.9 7.9-10 11.8-13.7 3.9-3.8 7.1-7 7.1-7.3 0-0.3-0.6-0.5-1.3-0.5-0.6 0-2.4-1.2-3.9-2.7-2-2-2.8-3.8-2.8-6.5 0-2.9 0.7-4.6 3.2-7.1 2.3-2.3 7.9-5.3 18.3-9.7 8.2-3.5 22.9-9.3 32.5-13 9.6-3.7 21.5-8.2 26.5-9.9 5-1.7 10.5-3.1 12.2-3.1 2.4 0 4.2 0.9 6.8 3.5 2.1 2.1 3.5 4.5 3.5 6 0 1.4-0.6 3.7-1.4 5.3-0.7 1.5-2.8 3.4-4.7 4.4-1.9 0.9-7.9 3.3-23.4 9.2l11.5 1.7c6.3 1 15.5 3.2 20.5 4.9 5 1.8 11.7 4.7 15 6.5 3.3 1.8 9.4 5.9 13.5 9.2 4.1 3.3 10.4 9.1 13.8 12.9 3.5 3.8 8.6 10.5 11.3 14.9 2.7 4.4 6.3 11.4 8 15.5 1.7 4.1 4.1 10.9 5.2 15 1.7 6.3 2.1 10.4 2 25 0 15.5-0.3 18.6-2.5 27-1.4 5.2-4 12.6-5.7 16.5-1.8 3.9-5.6 10.6-8.6 15-2.9 4.4-9.3 11.8-14.1 16.5-4.9 4.7-10.9 10-13.4 11.7-2.5 1.6-7.4 4.5-11 6.3-3.6 1.8-9.7 4.4-13.5 5.7-3.9 1.3-10.6 3-15 3.8-4.4 0.9-12.3 1.5-17.5 1.5-5.2 0-13.8-0.7-19-1.6-5.2-0.9-12.7-2.7-23.5-6.5l-9 9.7c-5 5.4-12.6 12.9-17 16.7-4.4 3.8-9.7 7.8-11.8 8.8-2 1-5.1 1.9-6.7 1.9-1.6 0-4.9-1-7.3-2.1-2.3-1.2-17.9-11.3-65.2-42.8l-7 3.4c-3.9 1.9-10.9 4.8-15.8 6.5-4.8 1.6-13.1 3.7-18.5 4.6-5.3 0.8-14 1.4-19.2 1.3-5.2-0.1-13.3-1-18-2-4.7-0.9-12.1-3.1-16.5-4.8-4.4-1.7-11.4-5.1-15.5-7.5-4.1-2.4-11.1-7.5-15.4-11.2-4.4-3.8-10.4-10-13.3-13.9-2.9-3.9-6.8-9.9-8.7-13.5-1.9-3.6-4.7-10.3-6.4-15-1.6-4.7-3.5-11.6-4.3-15.5-0.9-4.4-1.4-12.8-1.3-22.5 0.1-13.3 0.5-16.9 2.8-25.5 1.4-5.5 4.6-14 7-19 2.4-5 7.1-12.6 10.3-17 3.3-4.4 8.7-10.4 11.9-13.4 3.3-3 8.6-7.3 11.9-9.6 3.3-2.4 9.6-6.1 14-8.3 4.4-2.2 11.8-5.2 16.5-6.5 4.7-1.4 11.2-2.8 20.5-3.9l-14-4.6c-11-3.5-14.6-5.2-16.9-7.6-2.6-2.8-2.9-3.6-2.4-7.6 0.5-3.2 1.4-5.2 3.3-6.8 1.6-1.3 3.9-2.2 6.1-2.2zm3.9 55.5c-2.8 1-7.3 2.9-10 4.3-2.8 1.3-7.5 4.2-10.5 6.2-3 2.1-8 6.4-11.1 9.6-3.1 3.3-7.2 8.4-9.1 11.4-2 3-4.7 8.2-6.1 11.5-1.4 3.3-3.2 8.5-4.2 11.5-0.9 3-2 9.8-2.6 15-0.6 6.2-0.5 12.7 0.1 18.5 0.6 5 1.9 11.7 2.9 15 1.1 3.3 3 8.5 4.3 11.5 1.3 3 3.9 7.7 5.8 10.5 1.9 2.7 6.1 7.9 9.4 11.4 3.4 3.5 8.8 8.2 12.1 10.4 3.3 2.2 8.9 5.4 12.5 7 3.6 1.6 10.3 3.8 15 4.8 5.3 1.2 12.4 1.9 19 1.9 6.8 0 13.7-0.7 19.5-2 4.9-1.1 12.4-3.6 16.5-5.6 4.1-2 10.2-5.5 13.5-7.8 3.3-2.4 8.6-7.2 11.9-10.7 3.2-3.5 7.6-9.3 9.7-12.9 2-3.6 5.1-10.5 6.8-15.5 1.6-5 3.5-12.8 4.1-17.5 0.6-4.7 0.9-11.8 0.5-16-0.4-4.1-1.6-11.1-2.6-15.5-1.1-4.4-3.7-11.6-5.9-16-2.2-4.4-6-10.7-8.4-14-2.5-3.3-7.8-8.8-11.8-12.2-4-3.5-10.9-8.1-15.3-10.3-4.4-2.2-11.6-5-16-6.1-5-1.3-12.3-2.2-19.5-2.5-7.2-0.2-14.1 0.2-18.5 1-3.9 0.8-9.3 2.2-12 3.1zm213 1.1c-3.3 1.4-8.9 4.5-12.5 6.9-3.6 2.4-9.6 7.4-13.3 11.2-3.8 3.7-8.8 9.9-11.2 13.8-2.4 3.9-5.6 9.9-7 13.5-1.4 3.6-3.2 9.9-4.1 14-0.9 4.1-1.5 11.9-1.5 17.2 0.1 5.4 0.6 10.8 1.3 12 0.6 1.3 7.5 10.6 15.2 20.8 7.6 10.2 16.7 22.8 20.2 28 3.4 5.2 6.8 10.8 7.6 12.3 1 2.1 2.7 3.2 7.3 4.7 3.3 1.1 9.1 2.7 13 3.5 3.9 0.8 11.5 1.5 17 1.5 7.3 0 12.6-0.6 19.5-2.3 5.2-1.3 13.1-4.3 17.5-6.5 4.4-2.3 10.8-6.5 14.2-9.4 3.4-2.9 8.5-8.2 11.3-11.8 2.9-3.6 6.8-9.5 8.6-13.3 1.9-3.7 4.5-10.4 5.8-15 1.4-4.6 2.7-12.6 3.1-18.2 0.5-7.4 0.3-12.4-0.9-19.3-0.9-5-3-12.9-4.8-17.5-1.7-4.5-5.3-11.3-7.9-15.2-2.6-3.9-7.8-9.9-11.6-13.5-3.7-3.6-10.2-8.5-14.3-11-4.1-2.5-10.4-5.5-14-6.8-3.6-1.3-9.8-3-13.8-3.8-3.9-0.8-11.1-1.4-16-1.3-4.8 0-11.8 0.7-15.7 1.6-3.9 0.8-9.7 2.6-13 3.9z"/><path class="d" d="m441 676.5c0 1.1 1.2 1.5 4.5 1.5 3.3 0 4.5-0.4 4.5-1.5 0-1.1-1.2-1.5-4.5-1.5-3.3 0-4.5 0.4-4.5 1.5z"/><path class="e" d="m311 543.1c3.6 1.1 18.9 6 34 10.9 15.1 4.9 32.9 10.5 39.5 12.5 6.6 2 13.9 4.5 16.3 5.6 2.5 1.2 4.8 3.1 5.7 4.9 0.8 1.6 1.5 4.1 1.5 5.5 0 1.4-1.1 3.8-2.5 5.5-1.4 1.6-3.2 3-4 3-0.8 0-1.5 0.1-1.5 0.2 0 0.2 4.1 4.5 9 9.5 5 5.1 11.6 13.2 14.7 18 3.1 4.9 7.2 12.4 9.1 16.8 1.9 4.4 4.3 11.4 5.4 15.5 1 4.1 2.3 11.3 2.8 16l0.9 8.5c-0.7-14.5-1.8-21.5-3.4-27-1.4-5-4.5-13-6.9-18-2.4-5-7.1-12.6-10.4-17-3.3-4.4-9-10.9-12.6-14.5l-6.7-6.5c3.6-2.4 5.2-4.5 5.9-6.1 0.8-1.7 1.1-4.4 0.8-6.4-0.3-1.9-1.6-4.5-2.8-5.7-1.3-1.2-4.1-2.9-6.3-3.9-2.2-0.9-9.9-3.4-17-5.6-7.1-2.1-22.4-7-34-10.8-11.6-3.8-24.6-8-29-9.3-4.4-1.4-9.6-2.7-11.5-3.1-1.9-0.3-0.6 0.4 3 1.5zm260-1.3c-1.4 0.2-8.1 2.4-15 4.8-6.9 2.5-22.6 8.5-35 13.5-12.4 4.9-25.9 10.6-30 12.7-4.1 2-8.3 5-9.5 6.5-1.2 1.7-2 4.4-2 6.7 0 3 0.7 4.6 3.2 7.2l3.3 3.3c-7.2 7-11.9 12.6-15.2 17-3.3 4.4-8.1 12-10.5 17-2.5 5-5.6 13.3-7 18.5-1.4 5.7-2.5 13.5-2.8 19.5l-0.4 10c1.3-14.7 2.7-23 3.9-28 1.1-5 3.8-12.6 5.9-17 2-4.4 6.1-11.6 9.1-16 3-4.4 8.5-11.1 12.2-15 3.8-3.9 6.8-7.1 6.8-7.3 0-0.1-0.6-0.2-1.3-0.2-0.6 0-2.3-1.1-3.7-2.6-1.7-1.8-2.5-3.7-2.5-6.3 0-2 0.8-4.9 1.8-6.4 1.1-1.7 4.9-4.2 10.4-6.8 4.9-2.3 19.4-8.3 32.3-13.4 12.9-5.1 28.7-11 35-13 6.3-2.1 12.4-4.1 13.5-4.6 1.1-0.4 1.5-0.7 1-0.7-0.5 0-2.1 0.3-3.5 0.6zm-273 3.3c-1.7 1.7-3.1 3.8-3 4.7 0.1 1 0.7 0.4 1.4-1.5 0.9-2 2.6-3.8 4.7-4.7 1.9-0.9 2.6-1.6 1.7-1.6-0.9 0-3.1 1.4-4.8 3.1zm286.1 9.6c-0.1 1.3-1.2 3.5-2.5 5-1.4 1.7-5.1 3.8-9.2 5.2-3.8 1.4-9.2 3.4-11.9 4.6l-5 2.2c10.9 1 17.8 2.2 22.5 3.4 4.7 1.2 11.6 3.5 15.5 5.2 3.9 1.6 9.5 4.5 12.5 6.5 3 1.9 8.4 5.9 12 8.8 3.6 3 8.8 8 11.6 11.1 2.8 3.2 6.9 8.5 9.1 11.8 2.2 3.3 5.4 8.7 7 12 1.7 3.3 3.8 8.5 4.7 11.5 1 3 1.9 5.3 2.2 5 0.2-0.3-0.5-3.2-1.6-6.5-1.2-3.3-3.9-9.4-6.1-13.5-2.2-4.1-6.6-10.8-9.7-14.9-3.1-4.1-8.6-10.1-12.2-13.4-3.6-3.2-10.3-8.5-15-11.6-4.7-3.1-12.1-7.1-16.5-8.8-4.4-1.7-12.7-4.1-18.5-5.3-5.8-1.1-10.9-2.2-11.3-2.3-0.4-0.1 3.2-1.7 8-3.6 4.8-1.9 9.7-4 10.8-4.7 1.1-0.7 2.6-2.5 3.3-4.1 0.8-1.5 1.2-3.5 0.9-4.3-0.4-0.9-0.6-0.7-0.6 0.7zm-289.1 1.8c0 0.5 0.7 2 1.5 3.2 0.8 1.3 3.2 3.1 5.3 4.2 2 1 6.9 2.9 10.9 4.2 4 1.3 7 2.7 6.8 3.1-0.3 0.5-1.3 0.8-2.2 0.8-1 0-1.6 0.2-1.3 0.5 0.3 0.3 2.2 0.3 4.3 0 2-0.3 3.7-0.8 3.7-1.3 0-0.4-3.5-1.8-7.8-3.1-4.2-1.3-9.9-3.3-12.6-4.5-2.8-1.2-5.6-3.3-6.7-5.1-1-1.7-1.9-2.5-1.9-2zm8.5 19.4c-2.7 1-7.5 3-10.5 4.4-3 1.4-8.2 4.3-11.5 6.5-3.3 2.1-9.1 6.5-12.9 9.8-3.8 3.2-10.1 9.9-13.9 14.9-3.8 5-8.9 13-11.3 18-2.4 5-5.6 13.5-7.1 19-2.6 9.2-2.8 11.4-2.8 28 0 15.1 0.4 19.4 2.2 26.5 1.2 4.7 3.9 12.5 6 17.5 2.1 5 6.1 12.4 8.8 16.5 2.7 4.1 8.3 10.9 12.5 15 4.1 4.1 11.1 9.8 15.5 12.6 4.4 2.9 11 6.6 14.8 8.3 3.7 1.7 10.6 4.2 15.4 5.6 4.9 1.4 13.5 3 19.3 3.4 6 0.5 14 0.5 18.5 0 4.4-0.5 10.4-1.3 13.2-1.9 2.9-0.5 5.3-1.5 5.3-2q0-1-2.3 0c-1.2 0.5-4.7 1.4-7.7 1.9-3 0.5-11.1 1-18 1.1-8.2 0.1-15.3-0.5-20.5-1.5-4.4-0.9-11.8-3.1-16.5-4.9-4.7-1.7-12.3-5.4-16.9-8.1-4.9-2.9-12.3-8.6-17.4-13.5-4.9-4.7-11.3-12.1-14.3-16.5-2.9-4.4-6.9-11.8-8.8-16.5-2-4.7-4.5-12.1-5.7-16.5-1.9-6.8-2.2-10.7-2.3-26.5-0.1-17.1 0.1-19.2 2.5-28 1.5-5.2 4-12.4 5.6-16 1.6-3.6 5-9.8 7.6-13.8 2.6-3.9 8.2-10.9 12.6-15.5 4.3-4.5 11.2-10.5 15.2-13.3 4.1-2.8 10.3-6.6 13.9-8.4 3.6-1.8 9.4-4.3 13-5.6 3.6-1.2 5.8-2.3 5-2.3-0.8 0-3.8 0.8-6.5 1.8zm349.6 72.6c0 0.5 0.6 3.7 1.4 7 1.4 6 1.4 6 0.9 1-0.4-2.8-1-5.9-1.4-7-0.5-1.1-0.9-1.5-0.9-1zm2.6 40.2c-0.4 4.9-1.8 12.7-3.2 17.5-1.4 4.9-3.7 11.4-5.1 14.5-1.4 3.2-5.4 10.1-8.8 15.3-3.8 5.7-9.5 12.4-14.2 16.9-4.4 4-9.7 8.6-11.9 10.1-2.2 1.5-7.4 4.5-11.5 6.7-4.1 2.2-10.4 5-14 6.2-3.6 1.3-9.9 2.9-14 3.7-4.6 0.9-12.7 1.4-21 1.3-7.4-0.1-16.6-0.8-20.5-1.6-3.9-0.8-9.8-2.5-13.2-3.6l-6.2-2.2c-20.6 20.7-29.1 28.5-32.1 30.8-3 2.2-6 4.5-6.5 5.1-0.6 0.5 0.4 0.1 2-0.9 1.6-1 5-3.4 7.5-5.3 2.5-2 9.9-9.1 16.5-15.9l12-12.4c13.2 3.9 20.1 5.5 24 6.2 4.4 0.7 12.8 1 22.5 0.6 11.8-0.3 17.3-1 23-2.7 4.1-1.2 11.1-3.8 15.5-5.9 4.4-2 10.7-5.5 14-7.6 3.3-2.2 10-7.8 14.8-12.5 4.9-4.7 11.2-11.9 14-16 2.8-4.1 6.6-10.6 8.3-14.5 1.8-3.9 4.4-11 5.9-16 1.5-5.1 2.9-12.8 3.2-17.8 0.3-4.8 0.3-8.7 0-8.7-0.2 0-0.7 3.9-1 8.7zm-263.4 77.4c-0.4 0.5-3.3 2.2-6.3 3.6-3 1.4-8.9 3.8-13 5.4-4.1 1.5-7.1 2.8-6.5 2.9 0.5 0 3.5-0.8 6.5-1.8 3-1.1 9.1-3.6 13.5-5.7l8-3.7c44.2 29.4 59.5 39.3 62.5 41 4.3 2.5 6.6 3.1 10.5 3l5-0.1c-8.9-1-12.9-2.3-16-4.1-2.8-1.6-16.4-10.6-30.3-20-13.9-9.4-27.1-18.1-29.2-19.3q-3.9-2.3-4.7-1.2zm-37.8 518.6c1.6 0.2 4.8 0.2 7 0 2.2-0.2 0.8-0.4-3-0.4-3.9 0-5.7 0.2-4 0.4zm192.5 0c1.9 0.2 5.3 0.2 7.5 0 2.2-0.2 0.6-0.4-3.5-0.4-4.1 0-5.9 0.2-4 0.4z"/><path class="c" d="m444.5 699c1.7 0.9 1.6 1-1.2 0.8-1.7-0.2-3.1-0.1-3.1 0.2 0 0.3 0 1.4-0.1 2.5-0.1 1.7-0.3 1.8-1.1 0.5-0.8-1.1-0.9-0.7-0.3 1.5 0.5 2.2 0.4 2.8-0.5 2.3-0.9-0.6-1-0.2-0.5 1.5 0.5 1.6 0.4 2-0.5 1.5-0.9-0.6-1-0.2-0.5 1.5 0.5 1.6 0.4 2-0.5 1.5-0.8-0.6-1-0.3-0.5 1 0.6 1.3 0.5 1.5-0.7 0.7-1.1-0.7-1.3-0.7-0.7 0.3 0.4 0.6 0.5 2.1 0.2 3.2-0.3 1.1-0.9 1.8-1.5 1.5-0.6-0.3-0.7 0.2-0.3 1.3 0.5 1.2 0.4 1.5-0.5 0.9-0.8-0.5-1-0.2-0.5 1 0.5 1.3 0.4 1.6-0.5 1-0.8-0.5-1-0.2-0.5 1 0.5 1.3 0.4 1.6-0.5 1-0.8-0.5-1-0.2-0.5 1 0.5 1.3 0.4 1.6-0.5 1-0.7-0.4-1-0.2-0.7 0.5 0.3 0.7-0.2 2.2-1 3.3-0.9 1.1-1.3 1.3-0.8 0.5 0.6-1 0.4-1.3-0.4-0.7-0.8 0.4-1 1.4-0.6 2.5 0.5 1 0.4 1.5-0.2 1.1-0.6-0.4-1 0.1-1 1 0 0.9-0.6 1.5-1.3 1.4-0.6-0.2-1.1 0.5-0.9 1.5 0.1 1.1-0.3 1.6-1.3 1.4-0.8-0.2-1.2 0-0.8 0.5 0.4 0.4 0.3 1.6-0.2 2.6-0.6 0.9-1.6 1.4-2.3 1-0.6-0.3-0.9-0.2-0.5 0.3 0.4 0.5 0.3 1.7-0.2 2.6-0.6 1-1.4 1.6-2 1.3-0.6-0.3-1.6 0.2-2.3 1-0.6 0.9-0.8 1.9-0.4 2.3 0.4 0.4 0.7 0.1 0.7-0.5 0-0.8 1.1-0.4 3 1 1.6 1.2 2.8 2.4 2.6 2.7-0.2 0.3 0.4 0.5 1.3 0.5 0.9 0 1.5 0.6 1.3 1.3-0.1 0.6 0.6 1.1 1.5 0.9 1-0.1 1.7 0.4 1.5 1-0.1 0.7 0.6 1.2 1.5 1 1-0.1 1.7 0.4 1.5 1-0.1 0.7 0.6 1.2 1.5 1 1-0.1 1.7 0.4 1.5 1-0.1 0.7 0.1 1.2 0.5 1.2 0.5-0.1 1.2-0.1 1.8 0 0.6 0.1 2.1 1.1 3.5 2.2 1.4 1.1 1.8 1.7 1 1.3-0.9-0.4-1.2-0.3-0.7 0.2 0.5 0.5 1.6 0.9 2.5 0.9 0.9 0 1.6 0.6 1.4 1.2-0.1 0.7 0.2 1.1 0.8 0.8 0.6-0.3 1.9 0.1 3 0.7 1.1 0.7 1.7 1.7 1.2 2.1-0.4 0.5 0 0.6 0.8 0.2 0.8-0.3 2.2 0.2 3 1.1 1.3 1.6 1.3 1.7 0 0.8-1.1-0.6-1.3-0.6-0.7 0.3 0.4 0.7 1.4 1.1 2.2 0.8 0.8-0.3 1.8 0.1 2.2 0.7 0.6 1 0.4 1-0.7 0.3-1.1-0.7-1.3-0.7-0.7 0.2 0.4 0.7 1.4 1.1 2.2 0.8 0.8-0.3 1.8 0.1 2.2 0.7 0.6 1 0.4 1-0.7 0.3-1.1-0.7-1.3-0.7-0.8 0.3 0.5 0.6 1.2 1 1.8 0.7 0.6-0.3 1.9 0.1 3 0.7 1.1 0.7 1.7 1.7 1.2 2.1-0.4 0.5-0.3 0.8 0.3 0.7 0.6-0.1 1.6-0.2 2.2-0.1 0.7 0 1.1 0.6 0.8 1.1-0.3 0.6 0.2 0.7 1.2 0.3 1.1-0.5 1.5-0.4 1.1 0.2-0.3 0.6 0 1 0.7 1 0.7 0 1.1-0.3 0.9-0.8-0.2-0.4 0.4-1.1 1.3-1.7 1-0.5 2-0.7 2.3-0.5 0.3 0.3 1.9-1 3.5-2.8l3-3.2c-6.7 5.7-6.7 5.6-3 1.8 2.2-2.3 4.4-3.9 5-3.5 0.5 0.4 0.7 0.2 0.3-0.3-0.4-0.5 1.6-3.3 4.5-6l5.2-5-9 10c7.3-7 9.2-9.5 8.9-10-0.3-0.5 0.5-1.9 1.7-3 1.1-1.1 2.4-2 2.7-2 0.3 0 0.6-1.2 0.6-2.7 0.1-1.4-0.3-2.6-0.9-2.5-0.6 0.1-1-0.5-1-1.4 0-0.9-0.3-1.5-0.8-1.3-0.4 0.2-0.8-0.2-0.8-0.9-0.1-0.6-0.1-1.5 0-2 0-0.4-0.3-0.5-0.9-0.2-0.6 0.3-1.1-0.1-1.1-0.8-0.1-0.6-0.1-1.5 0-2 0-0.4-0.5-0.6-1.2-0.5-0.6 0.2-1.2-0.4-1.2-1.3 0-0.9-0.3-1.5-0.8-1.3-0.4 0.2-0.8-0.2-0.8-0.9-0.1-0.6-0.1-1.5 0-2 0-0.4-0.3-0.5-0.9-0.2-0.6 0.3-1.1-0.1-1.1-0.8-0.1-0.6-0.1-1.5 0-2 0-0.4-0.5-0.6-1.2-0.5-0.6 0.2-1.1-0.5-1-1.5 0.2-0.9-0.2-1.6-0.8-1.5-0.6 0.2-1.4-0.4-1.7-1.2q-0.6-1.5 0.6-0.8c0.7 0.5 1.2 0.7 1.2 0.5 0.1-0.1-0.7-0.9-1.6-1.7-1.6-1.3-1.7-1.3-0.9 0 0.8 1.3 0.7 1.3-0.9 0-0.9-0.8-1.5-2.1-1.2-2.8 0.3-0.6 0.2-1.1-0.3-1-0.5 0.2-2.1-1.3-3.5-3.2-1.4-1.9-2.2-3.9-1.8-4.5 0.4-0.6 0.2-0.7-0.6-0.2-0.7 0.4-1.6 0-2.2-0.8-0.6-0.8-0.9-2-0.8-2.7 0.2-0.7-0.4-1.2-1.2-1.3-0.8 0-1.4-0.8-1.3-1.8 0.2-0.9-0.3-1.6-1-1.4-0.6 0.1-1.1-0.4-1-1.1 0.2-0.6-0.3-1.1-1-0.9-0.6 0.1-1.2-0.6-1.2-1.5 0-1-0.4-1.8-1-1.9-0.6 0-2-1-3.2-2.2-1.2-1.2-2.1-2.4-1.9-2.7 0.2-0.3-0.8-0.5-2.2-0.6-1.5 0-4.1-0.3-5.7-0.7-2.4-0.6-2.6-0.5-1 0.3z"/><path class="e" d="m443 699.1c-1.9 0.5-3.5 1-3.5 1.1-0.1 0.2-1.1 3.4-2.3 7.3-1.2 3.9-4.1 11-6.5 16-2.5 5-7.5 13.3-11.2 18.5-3.7 5.2-6.3 9.8-5.9 10.1 0.5 0.4 11.7 7.8 24.9 16.6 13.2 8.8 25 16.5 26.3 17.1 2 1.1 2.8 0.7 7.5-3.6 2.8-2.6 8.4-8.1 12.4-12.2 3.9-4.1 8.1-8.7 9.2-10.3l2.1-2.7c-15.9-23.6-25-36.4-30.6-43.5-7.5-9.8-10.9-13.3-13.5-14.3-1.9-0.7-3.8-1.2-4.4-1.1-0.6 0.1-2.6 0.5-4.5 1z"/><path class="d" d="m343.5 620.4c-2.8 0.7-7.4 2.4-10.3 3.7-2.9 1.3-5.5 3-5.7 3.7-0.3 0.6-0.9 1-1.5 0.7-0.6-0.3-3.9 2.4-7.5 6-3.6 3.6-6.5 7.2-6.5 8 0 0.8-0.6 1.5-1.2 1.5-0.7 0-1 0.2-0.5 0.5 0.4 0.3-0.2 1.5-1.3 2.8-1.1 1.2-3 5.3-4.2 9.2-1.7 5.3-2.2 9.4-2.2 17 0 5.5 0.2 11.4 0.6 13 0.3 1.7 1.2 4.9 2 7.3 0.7 2.3 1.6 4.2 2.1 4.2 0.4 0 0.5 0.3 0.3 0.8-0.3 0.4 0.8 3.1 2.5 6 1.6 2.8 5.4 7.7 8.4 10.7 3 3 5.9 5.3 6.5 5 0.6-0.3 1 0 1 0.5 0 0.5 2.8 2.4 6.3 4.1 3.4 1.7 7.1 3.2 8.2 3.3 1.1 0.1 2.4 0.5 3 0.8 0.6 0.4 4.4 1 8.5 1.3 4.8 0.5 9.7 0.3 13.5-0.5 3.3-0.7 6.4-1.5 7-1.8 0.6-0.4 1.9-0.8 3-1 1.1-0.1 2.3-0.8 2.7-1.5 0.4-0.7 0.8-0.9 0.8-0.4 0 0.4 2.1-0.5 4.8-1.9 2.6-1.5 5.1-3.2 5.7-3.8 0.6-0.6 2.2-1.9 3.8-2.9 1.7-1.1 2.4-2.2 2-2.9q-0.8-1.3 0.5-0.5c0.7 0.4 1.6-0.1 2.2-1.3 0.6-1.1 2.1-3.2 3.5-4.7 1.4-1.6 2.3-3.1 2-3.5-0.3-0.5 0.1-0.8 0.8-0.8 0.6 0 0.9-0.2 0.5-0.5-0.5-0.3-0.1-1.2 0.7-2 0.8-0.8 1.3-2 1-2.5-0.3-0.5-0.1-1 0.5-1 0.6 0 1.3-1.2 1.6-2.7 0.4-1.6 0.8-3.9 1.1-5.3 0.2-1.4 0.7-4.3 1-6.5 0.4-2.2 0.7-5.3 0.6-7 0-1.6-0.3-5.7-0.7-9-0.4-3.3-1.2-6.5-1.7-7-0.5-0.5-0.6-1.3-0.1-1.7 0.4-0.4 0-1.5-0.8-2.3-0.8-0.9-1.2-1.6-0.7-1.5 0.4 0-0.2-1.8-1.3-4-1.1-2.2-2.4-4-3-4-0.6 0-0.8-0.5-0.5-1 0.3-0.5-0.2-1.2-1-1.5-0.8-0.3-1.3-1-1-1.5 0.3-0.5-2.8-4.1-6.7-7.8-4.5-4.2-9.8-8-13.8-9.9-3.6-1.7-8.9-3.6-11.7-4.2-2.9-0.6-8.6-1.1-12.5-1-4 0-9.5 0.6-12.3 1.3zm209-0.4c-2.2 0.5-6.5 1.7-9.5 2.9-3 1.1-8 3.8-11 6-3 2.3-7.5 6.5-9.9 9.4-2.4 2.8-5.7 7.9-7.2 11.2-1.6 3.3-3 7.1-3.1 8.5-0.2 1.4-0.7 2.7-1.1 3-0.5 0.3-1 5-1.1 10.5-0.2 5.5 0 10.5 0.3 11 0.3 0.5 0.6 2.6 0.7 4.5 0 1.9 1.6 6.7 3.4 10.5 1.8 3.9 3.9 7.6 4.6 8.3 0.8 0.6 1.4 1.7 1.4 2.2 0 0.5 1.4 2.6 3 4.5 1.6 1.9 3.5 3.3 4 3 0.5-0.3 1 0.2 1 1 0 0.8 2.8 3.3 6.3 5.5 3.4 2.2 6.5 3.7 7 3.5 0.4-0.3 0.7 0 0.7 0.5 0 0.5 0.3 0.9 0.8 0.8 0.4-0.1 1.7 0.3 3 1 1.2 0.7 2.5 1.1 3 1.1 0.4-0.1 0.9 0 1.2 0.1 0.3 0.1 1.4 0.3 2.5 0.6 1.1 0.2 4.3 0.7 7 1 2.8 0.4 8.3 0.1 12.3-0.5 3.9-0.6 7.4-1.6 7.7-2.1 0.3-0.5 1-0.8 1.5-0.5 0.5 0.3 1 0 1-0.5 0-0.5 0.6-0.8 1.3-0.6 0.6 0.2 2.6-0.4 4.2-1.3 1.6-0.9 3.2-2 3.5-2.4 0.3-0.5 0.8-0.7 1.2-0.5 0.4 0.1 2.8-1.3 5.5-3.3 2.6-2 6-5.3 7.6-7.3 1.5-2 2.7-4.1 2.7-4.6 0-0.5 0.6-1 1.3-1 0.6 0 0.9-0.2 0.5-0.5-0.5-0.3 0-1.3 1-2.2 1-1 2.8-4.5 4-7.8 1.3-3.3 2-6.6 1.7-7.2-0.3-0.7 0-1.3 0.5-1.3 0.5 0 1.1-1.2 1.2-2.7 0.1-1.6 0.2-6.8 0.2-11.8 0-5-0.4-9.9-0.8-11-0.5-1.1-1-3.1-1.2-4.5-0.2-1.4-0.9-2.8-1.6-3.2-0.7-0.4-1-0.8-0.5-0.8 0.4 0-0.4-2.2-1.8-5-1.4-2.7-3-5-3.5-5-0.5 0-1-0.6-1-1.2 0.1-0.7-3-4.2-6.7-7.8-4.2-4.1-9.3-7.8-13.3-9.7-3.6-1.7-8.9-3.6-11.7-4.2-2.9-0.6-8.6-1.1-12.5-1-4 0.1-9.1 0.5-11.3 0.9z"/><path class="e" d="m457.7 705.8c2.8 3.1 8.8 10.7 13.3 16.7 4.5 6.1 11.5 16 15.6 22 4 6.1 7.4 11.8 7.4 12.8 0 0.9-6 7.8-13.2 15.2-7.3 7.4-13.1 13.5-12.8 13.5 0.3 0.1 5.8-5.2 12.2-11.7 6.4-6.5 12.6-13 13.8-14.5l2-2.8c-15.9-23.6-25.1-36.5-30.7-43.7-5.7-7.3-10.8-13.3-11.4-13.3-0.7 0 1.1 2.6 3.8 5.8z"/></svg>