<svg version="1.2" xmlns="http://www.w3.org/2000/svg" viewBox="0 0 1024 1536" width="1024" height="1536"><style>.a{opacity:.99;fill:#0a2a2d}.b{opacity:.99;fill:#47b0b6}.c{opacity:.77;fill:#49573c}.d{opacity:1;fill:#f69d2a}.e{opacity:1;fill:#fcfbf2}</style><path fill-rule="evenodd" class="a" d="m543.5 291c1.6 0 4.7 0.5 6.8 1 2 0.6 5.4 2.5 7.4 4.3 2 1.7 5.4 5.9 7.5 9.2 2.1 3.3 5.3 9.4 7 13.5 1.7 4.1 4.4 11.8 6 17 1.6 5.2 4 15.1 5.3 22 1.4 6.9 2.8 16.3 4 29.5l14.5 1.2c8 0.7 22.6 2.6 32.5 4.3 9.9 1.6 24.4 4.8 32.3 7 7.8 2.2 19 5.8 25 8.1 5.9 2.2 16.6 6.9 23.7 10.4 7.1 3.5 17.7 9.5 23.5 13.3 5.8 3.7 14.5 10.2 19.5 14.3 5 4.2 12.3 11.1 16.4 15.5 4 4.3 9.9 11.5 13 15.9 3.2 4.4 7.6 11.1 9.9 15 2.3 3.9 4.5 7.6 4.9 8.2 0.6 1 3.1 0.6 10.8-1.6 5.5-1.6 13.5-4.3 17.8-6 4.2-1.7 8.8-3.1 10.2-3.1 1.4 0 3.9 0.7 5.5 1.5 1.6 0.8 3.5 2.6 4 4 0.5 1.4 1 3.9 1 5.5 0 1.6-1.2 5.4-2.7 8.4-1.6 3.1-3.2 5.2-3.8 4.8-0.6-0.4-0.7-0.2-0.2 0.6 0.4 0.7-0.9 3.3-3.4 6.5-2.3 2.8-7.9 9-21 22.2l1.5 3.5c0.8 1.9 2.6 7.9 4 13.3 1.4 5.3 2.4 10.2 2.1 10.7-0.3 0.5-0.2 1 0.3 1 0.4 0 1.3 2.6 2 5.7 0.7 3.2 2.8 13.9 4.7 23.8 1.9 9.9 4.3 24.5 5.5 32.5 1.2 8 2 15 1.9 15.5-0.1 0.5 0.1 1.7 0.4 2.5 0.3 0.8 1.5 8.9 2.6 18 1.1 9.1 2.7 22.6 3.5 30 0.9 7.4 1.4 14.9 1.2 16.5-0.2 1.6 0 3.2 0.4 3.5 0.4 0.3 1.7 10.6 2.9 23 1.1 12.4 2.6 28.6 3.1 36 0.6 7.4 0.8 15 0.5 16.8-0.3 2.3-0.2 3 0.7 2.4 0.8-0.5 1 1.3 0.7 7-0.2 4.2-0.2 7.5 0.1 7.3 0.3-0.2 0.9 5.6 1.3 12.8 0.5 7.3 1 15.2 1.2 17.7 0.2 2.5 0.7 9 1 14.5 0.4 5.5 0.9 24.4 1.1 42 0.2 17.6 0.7 32.2 1 32.5 0.2 0.3 0.4 11.1 0.3 24 0 12.9-0.4 30.7-0.8 39.5-0.5 8.8-1.1 21.9-1.4 29-0.3 7.2-1.4 19.9-2.4 28.3-1 8.4-2.1 15.2-2.5 15.2-0.5 0-0.5 0.6-0.2 1.2 0.3 0.7-0.7 7.5-2.3 15-1.7 8.3-3.2 13.4-3.8 13-0.6-0.4-0.7-0.2-0.2 0.5 0.4 0.7-0.1 4-1 7.3-1 3.2-2.1 5.7-2.5 5.5-0.5-0.3-0.6 0.2-0.3 1 0.3 0.8 0 1.5-0.5 1.5-0.5 0-0.8 0.5-0.5 1 0.3 0.5-0.5 3-1.7 5.4-1.3 2.5-2.7 4.2-3.3 3.8-0.6-0.4-0.7 0-0.2 1 0.5 1.3-0.4 2.9-3.3 5.8-2.2 2.2-5.9 4.9-8.2 6-2.4 1.1-6.1 2-8.3 2-2.2 0-5.7-0.5-7.7-1-2.1-0.6-4.5-1.7-5.3-2.5-0.8-0.8-1.7-1.2-2-0.8-0.3 0.5-0.5 0.2-0.5-0.5 0-0.6-0.3-1.1-0.7-1-0.5 0.1-1.8-0.3-3-1-2-1-2.6-0.9-4.8 1.3-1.4 1.4-2.3 2.7-2 3 0.3 0.3-1.4 2.1-3.7 4-2.4 2-5.9 4-7.8 4.7-1.9 0.6-6.5 0.9-10.1 0.7-5.1-0.3-8.2-1.2-14-4.2-4.1-2-10.4-6.4-20.9-15.7l-1.4 2.7c-0.7 1.6-3.8 5-6.7 7.6-3 2.6-7 5.3-8.9 5.9-1.9 0.6-6.2 0.9-9.5 0.6-3.3-0.2-8.1-1.4-10.8-2.6-2.6-1.2-4.9-2.2-5.2-2.2-0.3 0-4.4-2.5-9.2-5.6-4.9-3.1-11.3-7.7-14.3-10.2-3-2.5-10-9-25.5-24l-14 1.3v5.7c0 3.2 0.1 11 0.3 17.3 0.2 9.9 0.4 11.6 2 12.1 0.9 0.3 5.3 2.1 9.7 4 4.4 1.9 10.5 5.1 13.6 7.2 3.1 2 7.1 5.1 9 6.7 1.9 1.7 5 5.1 6.9 7.5 1.9 2.5 4.5 7.3 5.7 10.7 1.3 3.6 2.3 8.6 2.3 11.5 0 2.9-0.9 7.1-1.8 9.3-1 2.2-3.2 5-4.8 6.3-1.6 1.3-5.4 3-8.4 3.9-4.8 1.4-14.1 1.6-69.5 1.5-54-0.1-64.5-0.3-67.5-1.5-1.9-0.9-4.7-2.5-6.2-3.6-1.6-1.2-3.8-4-5-6.4-1.5-2.9-2.1-5.9-2.1-9.7 0.1-3 1.1-8 2.2-11 1.2-3 3.8-7.7 5.8-10.5 2.1-2.7 6.5-7.1 9.8-9.7 3.3-2.7 8.9-6.4 12.5-8.2 3.6-1.9 10.1-4.6 14.5-6.1 4.4-1.5 12.7-3.3 18.5-4.1 5.8-0.7 13-1.4 21.5-1.4l-0.8-9.2c-0.4-5.1-0.7-11.8-0.7-20.3h-28.3c-15.5-0.1-34.3-0.6-41.7-1.3-7.4-0.7-19.8-1.9-27.5-2.8-7.7-0.8-20.7-2.6-29-4-8.2-1.3-16.1-2.7-19.9-3.9l0.7 9.5c0.4 5.2 0.7 15 0.7 34l8.3 4.1c4.5 2.3 10.4 5.8 13.1 7.8 2.7 2 6.7 5.6 8.8 8.1 2.2 2.5 4.8 6.3 5.8 8.5 1.1 2.2 2.5 6.7 3.1 10 0.9 4.5 0.9 7.3 0 11.2-0.8 3.8-1.5 5.1-2.3 4.5q-1.3-0.7-0.5 0.5c0.4 0.8-0.4 2.8-1.8 4.8-1.4 2-4.8 4.6-7.7 6.1-2.9 1.4-5.9 2.3-6.5 2-0.7-0.3-1.1-0.3-0.9 0.1 0.3 0.5-1.2 1.1-3.2 1.5-2 0.4-36.1 0.8-75.7 0.8-61.3 0-72.8-0.2-77.3-1.5-3.5-1-5-1.9-4.5-2.8 0.3-0.6 0.2-0.9-0.3-0.5-0.5 0.4-1.7 0.3-2.6-0.2-1-0.6-1.6-1.5-1.3-2 0.3-0.5 0-0.9-0.6-0.8-0.6 0.2-2.2-1.7-3.5-4.2-2-3.7-2.4-6-2.4-12.3 0-4.2 0.3-7.7 0.8-7.7 0.4 0 0.8-1.2 0.9-2.8 0.1-1.5 0.6-2.8 1.2-3 0.6-0.1 0.9-0.7 0.6-1.2-0.3-0.5 0.7-2.9 2.2-5.3 1.4-2.3 4.2-6.2 6.2-8.6 2-2.4 6.3-6.5 9.6-9 3.3-2.6 8-5.9 10.5-7.3 2.5-1.4 7.4-3.8 11-5.2 3.6-1.5 9.9-3.6 14-4.7 5.6-1.6 11.7-2.2 24.5-2.6 12.8-0.4 19.1-0.1 25.5 1 4.7 0.9 10 1.9 15 3.2l-0.6-20c-0.3-11-0.7-20.5-0.8-21-0.2-0.5-2.4-1.7-5-2.5-2.6-0.8-4.6-1.8-4.6-2.3 0-0.4-0.4-0.5-1-0.2-0.6 0.3-4.3-0.7-8.2-2.1-4-1.5-7.5-2.9-7.8-3.3-0.3-0.3-1.4-0.8-2.5-1-1.1-0.2-6.7-2.6-12.5-5.3-5.8-2.7-15.7-8-22-11.8-6.3-3.7-16.2-10.3-22-14.6-5.8-4.3-17.2-14.6-40.5-37.9l-6.5 2.7c-3.6 1.4-10.3 3.9-15 5.3-4.7 1.5-11.9 3.3-16 4-4.9 0.9-13.1 1.3-23.5 1.1-13.2-0.3-17.2-0.7-23-2.6-3.8-1.2-9-3.2-11.5-4.5-2.5-1.2-6.9-4.5-9.9-7.1-3.3-3-6.4-7.2-8.2-10.9-1.6-3.3-3.2-8.5-3.6-11.5-0.4-3.6 0-7.4 1-11 0.9-3.1 3.4-7.8 9.7-16l-4.2-1.7c-2.4-0.9-7.2-3.2-10.8-5.1-3.6-1.9-9-5.2-12-7.2-3-2.1-8-6-11-8.7-3-2.7-7.7-7.8-10.4-11.4-2.6-3.5-6.1-8.9-7.6-11.9-1.5-3-3.5-7.8-4.5-10.5-0.9-2.8-2.3-8.6-3.1-13-0.8-4.4-1.4-12-1.3-17 0.1-5 0.8-12.8 1.6-17.5 0.8-4.7 2.6-12.1 4-16.5 1.4-4.4 4.6-12.3 7.2-17.5 2.6-5.2 7.1-13.1 10.1-17.5 2.9-4.4 8.7-12.3 12.9-17.5 4.2-5.2 12.8-14.7 19.1-21 6.3-6.4 14.9-14.5 19-18.1 4.1-3.7 12.4-10.3 18.5-14.9 6.1-4.5 12.1-8.8 13.5-9.3 1.4-0.6 2.7-1.3 3-1.5 0.3-0.2 0.8-5.2 1.1-11 0.3-5.9 1-15 1.4-20.2 0.4-5.2 0.7-10.2 0.6-11 0-0.8-0.2-2.4-0.3-3.5-0.2-1.1-0.6-2.2-1-2.5-0.4-0.3-0.9-1.9-1.1-3.5-0.3-1.6-0.7-3.7-1-4.5-0.3-0.8-1.1-4.6-1.8-8.5-0.7-3.9-1.3-14.5-1.3-24 0-11.9 0.6-20 1.8-27 1-5.5 3.1-13.8 4.6-18.5 1.5-4.7 4.7-12.3 7-17 2.4-4.7 6.4-11.6 9-15.5 2.6-3.9 6.4-9 11.8-16l-6.4-7.3c-3.5-3.9-8.7-10.7-11.5-15-2.8-4.2-7.5-12.6-10.4-18.7-2.9-6.1-6.4-14.6-7.8-19-1.4-4.4-2.8-10-3-12.5-0.4-2.9 0-5.5 0.9-7.3 0.8-1.5 2.6-3.5 4.2-4.4 1.8-1.1 4-1.5 6.7-1.2 2.2 0.3 5.2 1.4 6.6 2.5 1.4 1 6.4 4.8 11 8.3 4.6 3.5 13.8 9 20.4 12.2 6.6 3.2 14 6.5 21 8.9l4.5-5.3c2.4-2.8 8.1-9 12.5-13.5 4.4-4.6 11.6-11.4 16-15.2 4.4-3.7 13.2-10.3 19.5-14.5 6.3-4.2 16.9-10.3 23.5-13.5 6.6-3.3 17.6-8 24.5-10.5 6.9-2.5 17.4-5.9 23.5-7.5 6.1-1.6 15.9-3.8 22-4.9 6.1-1.1 14.9-2.3 19.8-2.8 4.8-0.4 8.7-1.1 8.7-1.6 0-0.4-4.3-7.8-9.7-16.5-5.3-8.6-11.8-19.8-14.4-24.7-2.6-4.9-5.5-11.7-6.5-15-1-3.6-1.5-7.8-1.1-10.5 0.2-2.5 1.3-6.3 2.3-8.5 1.2-2.5 3.5-4.9 6.4-6.7 2.5-1.5 6.3-3.1 8.5-3.4 3.1-0.5 5.3-0.1 10 2.1 4.2 1.8 8.1 4.8 13 9.8 3.9 4 11.1 12.6 16.1 19.2 5 6.6 12.4 17.2 16.5 23.5 4.2 6.3 9.3 14.3 11.5 17.8 2.1 3.4 4 6.1 4.2 6 0.2-0.2-0.1-4.1-0.7-8.8-0.6-4.7-2.2-17.6-3.6-28.8-1.4-11.1-2.5-22.8-2.5-26 0-3.1 0.7-8.1 1.5-11 0.8-2.8 3-6.8 4.8-8.9 1.7-2 5-4.4 7.2-5.4 2.2-1 5.4-1.9 7-1.9zm-151.8 340c-0.3 1.4-0.1 3.9 0.4 5.5 0.5 1.7 2.1 3.8 3.9 4.7 1.6 1 3.9 1.8 5.1 1.8 1.1 0 3.4-1.4 5-3 2.2-2.3 2.9-3.9 2.9-7 0-2.9-0.7-4.7-2.5-6.5-1.8-1.8-3.6-2.5-6.3-2.5-2.7 0-4.5 0.7-5.9 2.2-1.1 1.3-2.3 3.4-2.6 4.8zm172.3 9c0 4.1 0.4 5.3 2.3 6.5 1.2 0.8 3.8 1.5 5.7 1.5q3.5 0.1 5.7-2.2c1.6-1.6 2.3-3.5 2.3-6.6 0-3.2-0.6-4.8-2.5-6.7-1.6-1.6-3.6-2.5-5.5-2.5-2 0-4 0.9-5.5 2.5-1.9 1.9-2.4 3.5-2.5 7.5zm153.3-330c0.9 0 3.4 0.7 5.4 1.6 2.1 0.9 4.6 2.6 5.5 3.7 0.9 1.2 3.1 4.9 4.9 8.2 1.7 3.3 4.3 7.3 5.8 8.8 1.4 1.6 3.8 3.5 5.3 4.3 1.6 0.8 4.2 1.4 5.8 1.4 1.6 0 4-0.5 5.2-1.1 1.3-0.6 6.3-5.1 11.3-9.9 5-4.8 10.6-9.5 12.5-10.5 1.9-1 5.7-2 8.5-2.3 2.7-0.2 6.7 0 8.7 0.7 2.6 0.7 5.2 2.8 8 6.3 2.4 2.8 6.4 7.4 9 10.2 4.1 4.5 5.1 5.1 8.8 5.1 3.8 0 4.5-0.5 14.3-10.6 6-6.3 12.1-11.6 14.7-12.9 2.6-1.3 7.3-2.6 17.7-3.5l3.7 3.7c2.8 3 3.6 4.6 3.6 7.5 0 2.1-0.9 5.3-2 7-1.6 2.6-3.2 3.6-7.8 4.9-4.5 1.3-6.8 2.7-10.7 6.8-2.8 2.8-7 7.6-9.5 10.6-2.5 2.9-6.2 6.4-8.3 7.7-2 1.3-6.3 2.8-9.5 3.3-4.6 0.9-6.9 0.8-11.7-0.5-3.3-0.9-8.4-3.1-11.3-5-2.8-1.9-7.5-6.4-10.2-10-2.8-3.6-5.8-6.5-6.8-6.5-0.9 0-5.9 4.3-11 9.5-6.8 7-10.7 10.2-15 12.1-4.9 2.3-6.7 2.6-13.2 2.3-5.3-0.3-9.1-1.2-13-3-3-1.4-8.3-4.9-11.8-7.7-3.4-2.9-8.1-8-10.4-11.5-2.3-3.4-5-8.3-6-11-1-2.6-1.8-5.8-1.8-7.2 0-1.4 0.7-4 1.4-5.8 0.8-1.7 3-4 4.8-4.9 1.8-1 4.1-1.8 5-1.8zm89.7 85c4.3 0 5.6 0.5 8.7 3.2 2 1.8 4.9 6 6.4 9.3 1.5 3.3 4 7.5 5.6 9.4 1.6 1.8 4.1 4 5.6 4.7 1.6 0.8 3.9 1.4 5.3 1.4 1.4 0 3.5-0.5 4.7-1.2 1.3-0.6 6.3-5.3 11.3-10.3 7.2-7.4 10-9.6 14-10.9 2.7-0.9 6.4-1.6 8-1.6 1.6 0 4.6 0.5 6.5 1.1 1.9 0.7 5 2.6 6.8 4.3 1.8 1.7 3.7 4.7 4.3 6.6 0.6 1.9 0.8 5 0.5 6.7-0.3 1.9-1.9 4.4-3.6 5.8-1.6 1.4-4 2.5-5.3 2.5-1.2 0-3.8-0.4-5.7-1-2.6-0.7-4.2-0.5-6 0.5-1.4 0.7-3.9 2.7-5.5 4.4-1.6 1.7-3.4 2.7-4 2.3-0.6-0.4-0.7-0.2-0.2 0.5 0.4 0.8-1.4 3.2-5.1 6.6-3.8 3.5-7.5 5.9-11.2 7.1-4 1.4-7.3 1.7-12 1.4-3.7-0.3-8.2-1.4-10.5-2.5-2.2-1.2-6.4-4.1-9.3-6.4-3-2.4-7.4-7.1-9.9-10.4-2.5-3.3-5.9-8.7-7.4-12-2-4.2-2.9-7.5-2.8-10.8 0-3.9 0.6-5.4 2.9-7.8 2.4-2.5 3.6-2.9 7.9-2.9z"/><path class="b" d="m263.4 300.8c-2.9 0.9-6.6 3.1-8.4 4.7-1.7 1.6-4 4.7-5.1 6.7-1.3 2.5-1.9 5.9-1.9 10 0 5 0.6 7.6 2.9 12.3 2 4.2 4.9 7.7 9.3 11.6 3.4 3.1 9.9 8.3 14.3 11.6 4.4 3.3 13.1 9.7 19.3 14.2 6.9 5 12.2 8.1 13.7 8.1 1.6 0 2.9-0.8 3.6-2.3 0.8-1.6 0.8-4.6-0.1-11.2-0.7-5-2.5-13.9-4-20-1.5-6.1-4.1-14.4-5.8-18.5-1.7-4.1-4.9-10.2-7-13.5-2.1-3.3-5.8-7.7-8.3-9.7-2.4-2.1-6.3-4.2-8.6-4.8-2.4-0.5-5.3-1-6.5-1-1.3 0.1-4.6 0.8-7.4 1.8zm-74.9 53.7c-2.2 0.8-5.1 2.3-6.5 3.3-1.4 1.1-3.8 4.1-5.5 6.7-2.7 4.3-3 5.7-3 12.4 0 5.8 0.5 8.6 2.1 11.6 1.2 2.2 3.9 5.6 6 7.6 2.2 1.9 6.4 4.5 9.4 5.6 3 1.1 9.6 2.6 14.5 3.2 5 0.6 20.3 1.5 34 2 13.8 0.5 26.1 0.5 27.5 0.2 1.4-0.4 2.7-1.6 2.8-2.7 0.2-1 0.1-2.8-0.1-3.9-0.3-1.1-4.5-6-9.4-10.9-4.8-4.8-12.4-11.6-16.8-14.9-4.4-3.4-11.8-8.4-16.5-11-4.7-2.7-11.8-6-15.7-7.3-4-1.3-9.9-2.6-13-2.9-3.9-0.4-7.1 0-9.8 1z"/><path class="c" d="m864 915c0 2.2 0 6.8-0.1 10.3 0 3.4 0.3 6.4 0.6 6.7 0.3 0.3 0.5-4.3 0.5-10.3 0-5.9-0.2-10.7-0.5-10.7-0.3 0-0.5 1.8-0.5 4zm-627.5 101.7c1.7 0.2 4.8 0.2 7 0 2.2-0.2 0.8-0.4-3-0.4-3.8 0-5.7 0.2-4 0.4zm187.5 72.1l0.5 6.7c0.4-9.3 0.2-12.3-0.2-12.7-0.5-0.4-0.6 2.3-0.3 6zm-39.5 30.9c3.3 0.2 8.3 0.2 11 0 2.8-0.2 0.1-0.3-6-0.3-6.1 0-8.3 0.1-5 0.3zm158 83c2.8 0.2 6.8 0.2 9 0 2.2-0.2 0-0.3-5-0.3-5 0-6.8 0.1-4 0.3zm17 0c2.2 0.2 6 0.2 8.5 0 2.5-0.2 0.7-0.4-4-0.4-4.7 0-6.7 0.2-4.5 0.4zm17.5 0c2.5 0.2 6.8 0.2 9.5 0 2.8-0.2 0.7-0.3-4.5-0.3-5.2 0-7.5 0.1-5 0.3zm52.5 0c2.8 0.2 7.5 0.2 10.5 0 3-0.2 0.8-0.3-5-0.3-5.8 0-8.3 0.1-5.5 0.3zm20.5 0c1.9 0.2 5.3 0.2 7.5 0 2.2-0.2 0.6-0.4-3.5-0.4-4.1 0-5.9 0.2-4 0.4z"/><path fill-rule="evenodd" class="d" d="m548 330c0.5 0 2.7 1.9 4.8 4.3 2 2.4 5.4 7.9 7.6 12.3 2.1 4.3 4.7 11.3 5.8 15.4 1 4.1 2.3 12 2.8 17.5 0.6 5.5 0.8 14.3 0.4 19.5-0.4 7.2-0.3 10 0.8 11.3 1 1.4 2.5 1.8 5.8 1.7 2.5-0.1 8.8-0.2 14-0.2 5.2-0.1 15.6 0.7 23 1.6 7.4 1 20 3.1 28 4.8 8 1.6 19.7 4.5 26 6.5 6.3 1.9 15.3 4.9 20 6.7 4.7 1.8 12.3 5.2 17 7.4 4.7 2.2 11.6 6 15.5 8.3 3.9 2.3 10.4 6.7 14.5 9.7 4.1 3.1 11.3 9.2 15.9 13.6 4.6 4.5 11.1 11.7 14.6 16.1 3.4 4.4 7.6 10.4 9.4 13.2 1.7 2.9 3 5.5 2.9 5.8-0.2 0.3-5.7 0.9-12.3 1.5-6.6 0.5-23.9 1-38.5 1-22.9 0-28.8-0.3-43-2.4-9.1-1.4-21.9-3-28.5-3.7-7.3-0.7-17-0.9-24.8-0.5-7 0.3-17.5 1.5-23.4 2.7-6 1.2-14.6 3.5-19.3 5.1-4.7 1.7-12.3 5-17 7.3-4.7 2.3-12.5 7-17.5 10.3-5 3.3-12.5 9.3-16.9 13.3-4.3 4.1-10.6 10.8-13.9 14.9-3.3 4.1-7.8 10.6-10.1 14.5-2.2 3.8-5.5 10.6-10.5 23h-23.7l-2.1-8.5c-1.1-4.7-3.6-12.3-5.4-17-1.9-4.7-5.7-12.3-8.4-16.9-2.9-5-8.6-12.2-13.6-17.5-4.7-5-10.5-10.5-12.8-12.1-2.3-1.6-4.2-3.3-4.1-3.8 0-0.4 0.6-0.7 1.3-0.7 0.6-0.1 3.9-2 7.2-4.4 3.3-2.4 7.8-6.3 9.9-8.7 2.2-2.4 4.8-6.2 5.8-8.4 0.9-2.2 1.8-6.3 1.8-9 0.1-3.5-0.5-5.8-2-7.8-1.6-2.2-2.8-2.7-6-2.7-3.5 0-4.8 0.7-10.3 5.9-3.4 3.2-8.1 6.8-10.4 8-2.4 1.1-7.1 2.8-10.5 3.7-5 1.3-9 1.5-18.8 1.1-6.9-0.4-21.3-1.8-32-3.2-10.7-1.4-24.6-3.5-30.8-4.8-6.2-1.2-11.2-2.4-11.2-2.7 0-0.3 4.4-5 9.7-10.6 5.4-5.5 13.9-13 18.8-16.7 4.9-3.7 13.7-9.3 19.5-12.6 5.8-3.3 15.4-8 21.5-10.6 6.1-2.6 16.6-6.4 23.5-8.5 6.9-2.1 18.4-5 25.5-6.4 7.1-1.4 17.9-3 24-3.6 6.1-0.5 14.7-1 19.3-1 5 0 9.6 0.6 12 1.5 2 0.9 5.1 1.5 6.7 1.5 1.6 0 3.8-0.8 4.8-1.8 1-0.9 1.8-2.6 1.7-3.7 0-1.1-5.4-9.9-12.1-19.5-6.6-9.6-13.8-20.4-15.9-24-2.1-3.6-5.3-9.6-7.2-13.5-2-3.9-4.1-8.8-4.7-11-0.7-2.2-1.1-4.3-0.9-4.7 0.2-0.5 3.3 1.8 7 5 3.6 3.1 10.5 10 15.3 15.2 4.8 5.2 14.2 16.7 21 25.5 6.7 8.8 13.8 18.5 15.7 21.5 1.9 3 4.8 6.5 6.4 7.8 1.6 1.2 3.7 2.3 4.7 2.2 0.9 0 2.6-0.9 3.7-2 1.9-1.9 2-3.3 1.9-36.3 0-18.8 0-37 0-40.5 0.1-3.4 0.5-6.2 1.1-6.2zm253.4 229c0.5 0 2.4 6.6 4.2 14.7 1.8 8.2 5.1 24.5 7.3 36.3 2.2 11.8 5.6 32.7 7.5 46.5 2 13.7 4.9 37.4 6.5 52.5 1.7 15.1 3.5 33.1 4.1 40 0.6 6.9 1.3 13.9 1.5 15.5 0.3 1.6 1.4 15.1 2.5 30 1 14.9 2.4 34.4 3 43.5 0.5 9.1 1.5 27.5 2.1 41 0.6 13.5 1.1 45.4 1.2 71 0 25.6-0.5 54.1-1.2 63.5-0.6 9.4-1.8 24-2.7 32.5-0.8 8.5-2.6 22-4 30-1.3 8-3.5 18.1-4.9 22.5-1.3 4.4-3.4 9.6-4.7 11.5-1.3 2-3.3 3.6-4.6 3.7-1.3 0.2-3.6-1-5.8-3-2-1.7-6-6.8-8.8-11.2-2.9-4.4-6.7-9.2-8.4-10.8-1.8-1.5-4.3-2.7-5.7-2.7-1.4 0-3.4 0.5-4.5 1-1.1 0.5-2.6 2.2-3.4 3.7-0.8 1.6-1.6 7.4-1.8 13.3-0.3 5.9-1.1 11.7-1.9 13.3-0.8 1.6-2.5 3.1-3.9 3.4-1.4 0.3-4.2-0.3-6.5-1.3-2.2-1.1-7.6-5.5-12-9.9-4.4-4.4-10.5-10.9-13.5-14.4-3-3.5-7-7.1-8.8-8-3-1.4-3.6-1.4-5.9-0.1-1.4 0.8-3.4 2.6-4.4 4-1.2 1.6-2.4 6.1-3.3 12.5-0.7 5.5-1.8 11-2.5 12.2-0.6 1.3-2.1 2.6-3.4 2.9-1.4 0.4-4.1-0.4-7.7-2.3-3-1.6-10.5-6.8-16.5-11.5-6-4.7-16.2-13.8-34-32.1l-10 0.7c-5.5 0.4-16.5 1.1-24.5 1.7-8 0.5-29.4 0.9-47.5 0.9-20.3 0-40.3-0.5-52-1.5-10.5-0.8-24.6-2.2-31.5-3.1-6.9-0.8-18.6-2.7-26-4-7.4-1.4-18.4-3.8-24.5-5.4-6.1-1.6-16.2-4.7-22.5-6.8-6.3-2.2-14.4-5.2-18-6.7-3.6-1.5-11.2-5.1-17-8.1-5.8-2.9-14.6-8-19.5-11.2-4.9-3.2-13.5-9.4-19-13.9-5.5-4.4-13.1-11.3-16.9-15.4-3.8-4.1-10-11.4-13.8-16.4-3.9-5-9.4-12.8-12.3-17.5-2.8-4.7-6.7-11.4-8.5-15-1.8-3.6-5.5-11.7-8.2-18-2.7-6.3-6.5-16.2-8.3-22-1.9-5.8-3.9-12.5-4.6-15-0.7-2.5-1.3-5-1.4-5.5-0.1-0.5-1.2-5.3-2.4-10.5-1.1-5.2-3-14.7-4-21-1.1-6.3-2.7-18.5-3.6-27-0.8-8.5-2-28-2.5-43.3-0.6-15.2-0.8-35-0.5-44 0.3-8.9 0.7-21.3 1.5-38.7l6.7 7.1c3.8 3.9 10.6 10 15.3 13.5 4.7 3.6 12.6 8.5 17.5 11.1 4.9 2.5 12.8 5.9 17.5 7.5 4.7 1.5 13 3.5 18.5 4.4 7.6 1.3 13.9 1.5 26 1.1 12.6-0.4 18-1 25.5-3 5.2-1.3 13.8-4.4 19-6.9 5.2-2.4 9.8-4.9 10.2-5.6 0.5-0.7 1.1-1.2 1.5-1.2 0.5 0 1.1 2.1 1.5 4.7 0.3 2.7 1.6 7.5 2.7 10.8 1.2 3.3 3.2 7.6 4.6 9.5 1.3 1.9 3.6 4.2 5.1 5 1.5 0.8 4.3 1.4 6.3 1.4 3.2-0.1 4.5-1.1 11.6-8.9 4.4-4.9 10.7-10.6 14-12.7 3.6-2.3 8.6-4.4 12.5-5.3 3.6-0.8 8.3-1.2 10.5-0.8 2.2 0.3 5.6 1.4 7.5 2.3 1.9 1 6.4 5 10 8.9 6.1 6.6 6.8 7.1 10.8 7.1 3.5 0 4.9-0.6 7.3-3 2.3-2.4 2.9-3.9 2.9-7.3 0-2.6-1-6.2-2.7-9.7-1.6-3-4.7-7.4-7.1-9.7-2.3-2.4-6.9-5.7-10.2-7.3-3.3-1.6-9-3.5-12.8-4.2-5.2-0.9-8.3-0.9-13.7 0-3.9 0.6-9.9 2.6-13.5 4.3-3.6 1.7-8.3 4.5-10.5 6.2-2.2 1.7-5.7 4.7-7.7 6.6-2.1 2-4.1 3.2-4.5 2.8-0.5-0.5-0.8-8.4-0.8-17.5 0-15.8 0.2-17.2 3-25.7 1.6-5 4.7-11.6 6.7-14.8 2.1-3.1 5.7-7.6 8-9.8 2.4-2.3 6.5-5.2 9.3-6.5 3.7-1.8 6.8-2.4 12-2.4 3.9 0 8.4 0.2 10 0.5 2.9 0.6 3 0.8 5.2 11.6 1.3 6 3.9 15.1 5.9 20.1 1.9 5.1 5.1 12.2 7.1 15.8 2 3.6 5.4 9.2 7.7 12.5 2.2 3.3 8.1 10.2 13.1 15.3 4.9 5.2 12.8 12 17.5 15.2 4.7 3.1 12.3 7.7 17 10 4.7 2.3 13 5.7 18.5 7.5 5.5 1.8 14.5 4 20 5 6.3 1.1 15.4 1.7 24.5 1.7 10.8 0 17.2-0.6 25-2.2 5.8-1.2 14.4-3.4 19.2-5.1 4.9-1.6 11.2-4.1 14-5.5 2.9-1.5 8.9-5 13.3-7.9 4.4-3 11.6-8.4 16-12.2 4.4-3.8 10.9-10.5 14.4-14.9 3.6-4.3 8.8-11.5 11.6-15.9 2.9-4.4 6.6-10.7 8.2-14 1.7-3.3 4.2-9.1 5.6-13 1.5-3.9 3.9-11.5 5.3-17 2.2-8.3 2.7-13 3.1-27 0.3-9.9 0.1-20.5-0.6-25.5-0.6-4.7-1.9-11.9-3-16-1-4.1-3.1-10.4-4.5-14-1.5-3.6-2.9-7.1-3.2-7.8-0.3-0.8 0.9-1.2 4.1-1.2 2.5 0 8-0.7 12.2-1.6 4.3-0.9 12.3-3.3 17.8-5.5 5.5-2.1 11.4-4.8 13-5.9 1.6-1.1 3.4-2 3.9-2zm-315.5 59c2 0 4.2 0.4 4.9 0.8 0.9 0.5 1.2 3.4 0.7 20.1l-2.5-0.7c-1.4-0.4-4.4-0.7-11-0.7v-4c0-2.2 0.5-6 1.1-8.5 0.6-2.5 1.5-5.1 2.1-5.8 0.6-0.6 2.7-1.2 4.7-1.2zm-251.2 126c0.1 0 0 10-0.2 22.2-0.3 12.3 0 29.7 0.5 38.8 0.5 9.1 1.4 21 2 26.5 0.5 5.5 1.2 11.8 1.5 14 0.3 2.2 1 7.4 1.6 11.5 0.6 4.1 2 11.8 3.1 17 1 5.2 2.1 10.6 2.4 12 0.3 1.4 2.1 8.4 4 15.5 2 7.1 5 16.8 6.6 21.5 1.7 4.7 4.8 12.8 7 18 2.2 5.2 6.5 14.5 9.6 20.5 3 6 7 13.4 8.8 16.2 1.9 2.9 3.3 5.5 3.1 5.7-0.1 0.3-3.6 1.6-7.7 3-4.1 1.4-12 3.4-17.5 4.6-6.6 1.3-13.7 2-21 2-6.1 0-13.3-0.6-16-1.4-2.8-0.7-6.9-2.3-9.3-3.4-2.3-1.2-5.2-3.7-6.4-5.5-1.3-1.9-2.3-4.7-2.3-6.9 0-2.7 0.8-4.5 3-6.8 2.1-2.1 5.2-3.7 10-5.1 3.8-1.2 8.5-3.2 10.2-4.5 1.8-1.3 4-3.8 4.8-5.4 0.8-1.6 1.5-4.4 1.5-6 0-1.9-1-4.2-2.8-6.1-1.5-1.6-4.1-3.4-5.7-4-1.7-0.5-3.9-1.1-5-1.3-1.1-0.3-6.1-1.6-11-3-5-1.5-13.1-4.6-18-7.1-5-2.4-11.7-6.5-15-8.9-3.3-2.5-8.4-7.4-11.3-10.8-2.9-3.5-6.8-9.4-8.7-13.3-2-3.9-4.3-10.4-5.1-14.5-1.1-5.3-1.4-10.3-1-17 0.3-5.2 1.5-13.1 2.6-17.5 1.2-4.4 3.9-11.8 6.1-16.5 2.2-4.7 7-13 10.6-18.5 3.6-5.5 8.6-12.5 11.1-15.5 2.5-3 8-9.3 12.1-13.9 4.2-4.6 12.1-12.3 17.6-17.1 5.5-4.8 13.1-11 17-13.8 3.8-2.9 7.1-5.2 7.2-5.2z"/><path fill-rule="evenodd" class="e" d="m363 516.5c11.1 0.3 16.2 0.8 22 2.5 4.1 1.2 11.3 4 16 6.2 4.7 2.2 11.4 6.1 15 8.8 3.6 2.6 9.2 7.6 12.5 11.1 3.3 3.5 7.4 8.4 9.1 10.9 1.8 2.5 5 8.1 7.2 12.5 2.2 4.4 4.9 10.9 6.1 14.5 1.1 3.6 2.7 10.3 3.6 15 0.8 4.7 1.5 13.3 1.5 19.3 0 5.9-0.5 14-2.1 25.2l-5.9 4.2c-3.3 2.4-8.2 6.9-10.8 10-2.6 3.2-6.4 8.7-8.4 12.3-2.1 3.6-4.9 9.9-6.3 14-1.4 4.1-3.2 11.1-4 15.5-0.9 4.4-1.5 8.1-1.5 8.2 0 0.2-2.4 2.1-5.2 4.3-2.9 2.2-9.5 5.8-14.5 8-5.1 2.2-13.2 5-18 6.2-7.2 1.7-11.7 2.1-24.3 2.1-13.3 0-16.8-0.4-25-2.5-5.2-1.4-13.3-4.4-18-6.7-4.7-2.2-11.4-6.2-15-8.9-3.6-2.7-9-7.4-12-10.3-3-3-7.6-8.3-10.2-11.9-2.5-3.6-6.2-9.6-8.2-13.5-1.9-3.9-4.4-9.9-5.6-13.5-1.2-3.6-2.8-9.8-3.6-13.8-0.8-3.9-1.4-12.7-1.4-19.4 0-6.8 0.6-16.1 1.4-20.8 0.9-4.7 2.5-11.6 3.7-15.5 1.1-3.9 3.9-10.6 6.1-15 2.2-4.4 5.6-10.5 7.6-13.5 2-3 7.5-9.5 12.2-14.4 4.7-4.8 12.1-11.2 16.5-14.1 4.4-3 11.1-6.8 15-8.5 3.9-1.7 9.9-4 13.5-5.1 3.6-1.1 8.8-2.4 11.5-2.9 2.8-0.5 11.5-0.7 19.5-0.5zm28.7 114.5c-0.3 1.4-0.1 3.9 0.4 5.5 0.5 1.7 2.1 3.8 3.9 4.8 1.6 0.9 3.9 1.7 5.1 1.7 1.1 0 3.4-1.4 5-3 2.2-2.3 2.9-3.9 2.9-7 0-2.9-0.7-4.7-2.5-6.5-1.8-1.8-3.6-2.5-6.3-2.5-2.7 0-4.5 0.7-5.9 2.3-1.1 1.2-2.3 3.3-2.6 4.7zm236.8-103.8c6-0.1 14.6 0.4 19 1.2 4.4 0.8 11.4 2.4 15.5 3.6 4.1 1.2 11.3 4.1 16 6.4 4.7 2.3 10.7 5.7 13.5 7.6 2.7 1.9 8.8 7.1 13.4 11.5 4.6 4.4 10.6 11.4 13.4 15.5 2.8 4.1 6.5 10.6 8.3 14.5 1.7 3.9 4.1 9.7 5.2 13 1.1 3.3 2.8 10.5 3.8 16 1.3 7.7 1.5 13.1 1.1 23.5-0.4 9.4-1.4 16.2-3 22.5-1.3 5-3.8 12.4-5.5 16.5-1.7 4.1-6 11.8-9.4 17-3.6 5.4-10.4 13.6-15.8 19.1-5.2 5.3-12.9 11.9-17 14.6-4.1 2.8-9.8 6.2-12.5 7.5-2.8 1.4-10 4.1-16 6.1-6 1.9-15.3 4-20.5 4.7-6 0.8-13.8 1.1-21 0.7-7-0.4-15.5-1.6-21.5-3.1-5.5-1.3-13.6-4-18-5.8-4.4-1.8-12-6-17-9.3-5-3.2-12-8.8-15.6-12.4-3.6-3.7-8.6-9.5-11.1-13.1-2.5-3.6-5.9-9-7.6-12-1.6-3-4.1-8.6-5.5-12.5-1.4-3.9-3.2-10.8-4.1-15.5-0.8-4.7-1.8-11.9-2.1-16-0.4-4.1-0.2-12 0.4-17.5 0.6-5.5 2.2-14 3.6-19 1.4-5 4.6-13.3 7.1-18.5 2.5-5.2 6.7-12.6 9.2-16.5 2.6-3.8 7.9-10.3 11.8-14.5 3.9-4.1 9.5-9.4 12.5-11.7 3-2.3 8.5-6 12.4-8.4 3.9-2.3 10.4-5.7 14.5-7.4 4.1-1.8 11.8-4.1 16.9-5.2 5.2-1 10.6-2.2 12-2.5 1.5-0.3 7.6-0.6 13.6-0.6zm-64.5 112.8c0 4.1 0.4 5.3 2.2 6.5 1.3 0.8 3.9 1.5 5.8 1.5q3.5 0.1 5.7-2.2c1.6-1.6 2.3-3.5 2.3-6.5 0-3.3-0.6-4.9-2.5-6.8-1.6-1.6-3.6-2.5-5.5-2.5-2 0-4 0.9-5.5 2.5-1.9 1.9-2.4 3.5-2.5 7.5z"/><path class="b" d="m366 1143.1c-4.7 1.6-10.8 3.9-13.5 5.1-2.8 1.3-5.2 2.5-5.5 2.8-0.3 0.3-3.2 2.5-6.5 5-3.3 2.5-6.4 4.5-7 4.5-0.6 0-1 0.5-1 1-0.1 0.6-0.6 2-1.3 3.3-0.7 1.3-1.7 1.9-2.5 1.5q-1.2-0.8-0.4 0.5c0.4 0.6 0 2.7-0.9 4.5-0.9 1.7-1.5 4.2-1.3 5.3 0.2 1.2 0.1 2-0.3 1.8-0.5-0.2-1 0.1-1.3 0.6-0.3 0.6 3.8 1 11.5 1h12c4.5-6.6 7.7-10.3 10.1-12.5 2.3-2.2 5.7-5 7.3-6.3 1.7-1.2 3.7-2 4.4-1.7 0.6 0.3 1 0.1 0.7-0.5-0.3-0.5 0.3-1.1 1.3-1.1 0.9-0.1 2-0.1 2.5 0 0.4 0 0.5-0.3 0.2-0.9-0.3-0.5 1.9-1.7 4.8-2.6 2.8-0.9 8.3-1.8 12.2-2.2 4.9-0.4 8-0.1 10.4 0.9 1.8 0.8 3.8 2.2 4.2 3.2 0.5 0.9 0.6 2.7 0.3 4-0.4 1.2-1.8 3.4-3.3 4.8-1.4 1.4-5.7 3.6-9.6 4.9-3.9 1.3-7.8 3.2-8.8 4.2-0.9 1-1.9 1.7-2.2 1.6-0.3-0.2-1.9 0.6-3.5 1.7-1.7 1.1-3 2.2-3 2.5 0 0.3 12.3 0.2 27.2-0.2 15-0.4 35.4-0.5 45.3-0.1 15.4 0.5 18.5 0.3 21.3-1.1 2.4-1.2 3.2-2.3 3.2-4.3 0-1.6-1.2-4.6-2.8-6.8-1.6-2.2-4.8-5.3-7.3-7-2.4-1.6-4.6-3.2-4.9-3.6-0.3-0.3-2.1-1.1-4-1.9-1.9-0.8-3.8-2-4.2-2.7-0.5-0.7-1.2-1.1-1.8-0.8-0.6 0.3-1.9 0.3-3 0-1.1-0.3-1.8-0.9-1.5-1.5q0.5-1-1.5 0c-1.4 0.7-2.1 0.7-2.2-0.1-0.2-0.6-1.5-1.1-3-1.2-1.8-0.1-2.8-0.8-2.8-1.7 0-1.2-0.2-1.2-1.2-0.3-1 1-1.6 0.9-2.5-0.5-0.8-1-1.2-1.2-1.3-0.4 0 0.6-0.4 1.2-1 1.2-0.6 0-0.7-0.5-0.2-1.2 0.5-0.8 0.1-1-1.5-0.5-1.6 0.5-2.5 0.2-2.8-0.8-0.4-1.2-0.8-1.3-2-0.2-1.3 1-1.6 1-1.5 0 0-0.7-1.5-1.5-3.2-1.8-1.8-0.3-4.4-0.7-5.8-1.1-1.4-0.3-10.1-0.7-19.5-0.8-16.4-0.3-17.3-0.2-25.5 2.5zm212 8.4c-4.1 0.8-7.9 1.1-8.5 0.7-0.6-0.4-0.7-0.2-0.2 0.6 0.4 0.6 0.2 1.2-0.3 1.2-0.5 0-3.6 1.2-6.7 2.7-3.2 1.5-6.5 2.7-7.3 2.8-0.8 0-1.4 0.8-1.2 1.8 0.1 0.9-0.2 1.6-0.6 1.5-0.5-0.2-3.1 2-5.8 4.7-2.8 2.8-5.6 6.7-6.2 8.8-0.7 2-1 4.2-0.7 4.7q0.5 1 3.8 0c1.9-0.6 6.5-0.8 11.2-0.4 4.4 0.3 9 0.4 10.3 0 1.2-0.3 2.4-1.6 2.7-2.8 0.2-1.3 2.1-4.3 4.2-6.7 2.1-2.4 5.8-5.5 8.3-7 3.7-2.1 5.8-2.6 11.6-2.6 5.8 0 7.6 0.4 9.3 2 1.2 1.1 2.2 3.2 2.1 4.8 0 1.5-0.5 2.7-1 2.7-0.5 0-1 0.6-1 1.3 0.1 0.6-1.7 2.4-4 4-2.2 1.5-4.6 2.4-5.2 2-0.8-0.4-0.7 0.1 0.2 1 1.4 1.6 4 1.7 33.5 1.3 17.6-0.3 32.6-0.5 33.3-0.6 0.6 0 1.3-1.1 1.5-2.5 0.1-1.3 0.1-2.5 0-2.5-0.2 0-0.8 1-1.3 2.3-0.9 1.9-1 1.8-0.5-1 0.3-2 0.1-3.1-0.5-2.8-0.5 0.3-1.2-0.2-1.5-1-0.3-0.9 0-1.3 0.8-0.9 0.6 0.3 0.4 0-0.5-0.8-1-0.7-1.4-1.7-1-2.2 0.4-0.5 0.1-0.6-0.5-0.3-0.7 0.4-1.7-0.1-2.3-1-0.5-1-0.7-2.1-0.5-2.5 0.3-0.5 0.2-0.6-0.2-0.3-0.5 0.3-1.4-0.1-2.2-0.8-1.2-1-1.3-0.9-0.6 0.3 0.7 1.1 0.6 1.3-0.3 0.8-0.6-0.5-1-1.4-0.8-2 0.2-0.7-0.3-1.4-1-1.5-0.8-0.2-2.1-0.4-2.9-0.5-0.8-0.2-1.5-0.6-1.5-1 0-0.5-0.5-0.6-1-0.3-0.5 0.3-1 0.1-1-0.5 0-0.5-0.5-0.8-1-0.5-0.5 0.3-1 0.1-1-0.5 0-0.5-0.7-0.8-1.5-0.5-0.8 0.3-1.5 0.1-1.5-0.5 0-0.5-0.7-0.8-1.5-0.5-0.8 0.3-1.5 0.1-1.5-0.5 0-0.6-0.8-0.7-1.7-0.3-1.4 0.6-1.6 0.5-0.8-0.7 0.8-1.1 0.6-1.2-1.2-0.7-1.3 0.4-2.3 0.3-2.3-0.3 0-0.5-0.6-0.8-1.2-0.6-0.7 0.3-1.8 0.1-2.3-0.4-0.5-0.5-4.5-1.3-8.7-1.9-4.3-0.6-12.9-1.1-19-1-6.2 0-14.7 0.7-18.8 1.4z"/><path class="c" d="m716.5 508.7c5 0.2 12.6 0.2 17 0 4.4-0.1 0.4-0.3-9-0.3-9.4 0-13 0.2-8 0.3zm-155.5 568c2.5 0.2 6.1 0.2 8 0 1.9-0.2-0.1-0.4-4.5-0.4-4.4 0-6 0.2-3.5 0.4zm19.5 0c2.8 0.2 6.8 0.2 9 0 2.2-0.2 0-0.3-5-0.3-5 0-6.8 0.1-4 0.3zm-160.5 103.3c0 0.6 5.2 0.9 13.8 0.9 7.9-0.1 12.9-0.5 11.7-1-1.1-0.4-7.3-0.8-13.8-0.8-7.2-0.1-11.7 0.3-11.7 0.9z"/><path fill-rule="evenodd" class="a" d="m518.8 474c1.2 0 2.2 0.6 2.2 1.3 0 0.6 0.3 0.9 0.7 0.5 0.5-0.5 2.6 0.7 4.8 2.6 2.2 1.8 5.8 4.2 8 5.3 2.2 1.2 6 2.6 8.5 3.3 2.5 0.7 7.4 1.2 11 1.2 4 0 8.9-0.9 12.5-2.2 3.3-1.1 8.5-4 11.5-6.4 3-2.4 6.7-4.7 8.3-5 1.5-0.3 3.7-0.1 5 0.4 1.2 0.6 2.8 2.1 3.5 3.5 0.6 1.4 1.2 3.7 1.2 5.3 0 1.5-0.8 4.1-1.8 5.7-1 1.6-4 4.5-6.8 6.4-2.7 1.8-6.5 4.1-8.4 5.1-1.9 1-6.9 2.8-11 4.1-6 1.8-9.7 2.3-18.5 2.2-8.5 0-12.4-0.5-17.2-2.2-3.5-1.1-8-3.2-10-4.5-2.1-1.2-5.5-4.2-7.5-6.5-2.1-2.2-4.1-5.3-4.4-6.8-0.4-1.6-0.1-4.5 0.5-6.5 0.6-2.1 2.1-4.5 3.4-5.3 1.2-0.8 3.2-1.5 4.5-1.5zm-134.3 111.1c0.6-0.1 3.1 0.2 5.7 0.6 2.7 0.5 4.4 1.2 4 1.8-0.4 0.6-0.2 0.7 0.6 0.3 0.6-0.5 2.3-0.6 3.7-0.3q2.5 0.5 1.8 1.8-0.8 1.2 0.5 0.5c0.6-0.5 2.7 0.1 4.5 1.1 1.7 1.1 5.1 4 7.5 6.5 2.3 2.5 5.1 6.4 6.2 8.6 1.1 2.2 1.7 4.6 1.3 5.3-0.5 0.7-0.4 0.9 0.2 0.5 0.6-0.4 1.6 0.9 2.3 3 0.7 2 1.6 7.1 1.9 11.2 0.3 4.1 0.1 10.8-0.6 14.8-0.6 4.1-1.5 7-2.1 6.7-0.5-0.3-0.7 0.1-0.4 0.8 0.3 0.6-0.3 3.1-1.3 5.5-1 2.3-2.2 3.9-2.7 3.5-0.5-0.5-0.6-0.3-0.3 0.5 0.4 0.6 0.2 2.2-0.5 3.5-0.6 1.2-3.1 4.3-5.5 7-2.7 3-4.8 4.4-5.5 4q-1.3-0.8-0.5 0.5c0.4 0.7-0.2 1.8-1.8 2.7-1.4 0.8-3.1 1.2-3.7 0.8q-1.3-0.8-0.5 0.5c0.5 0.8-0.9 1.7-4.5 2.9-3.2 1-8.3 1.7-12.8 1.6-5.2 0-9.1-0.7-12.7-2.2-2.9-1.1-5.1-2.6-4.8-3.1 0.3-0.5-0.1-0.7-0.7-0.4-0.7 0.3-3.7-1.7-6.7-4.3-3.6-3.3-6.4-7-8.7-11.8-1.9-3.9-3.9-9.5-4.4-12.5-0.6-3-1-8.2-1-11.5 0-3.3 0.7-8.7 1.5-12 0.9-3.3 2.7-8.5 4.1-11.5 1.4-3 4.2-7.7 6.2-10.4 2-2.7 5.8-6.4 8.3-8.3 2.5-1.9 5.5-3.5 6.7-3.6 1.1-0.1 1.8-0.5 1.6-0.9-0.2-0.5 1.3-1.2 3.4-1.7 2-0.5 4.8-1.2 6.2-1.4 1.4-0.2 3-0.5 3.5-0.6zm7.2 45.9c-0.3 1.4-0.1 3.9 0.4 5.5 0.5 1.7 2.1 3.8 3.9 4.8 1.6 0.9 3.9 1.7 5.1 1.7 1.1 0 3.4-1.4 5-3 2.2-2.3 2.9-3.9 2.9-7 0-2.9-0.7-4.7-2.5-6.5-1.8-1.8-3.6-2.5-6.3-2.5-2.7 0-4.5 0.7-5.9 2.3-1.1 1.2-2.3 3.3-2.6 4.7zm201.8-38.7c6.2 0.3 9.3 0.9 13.8 3 3.1 1.5 7.6 4.6 10 7 2.3 2.3 5.7 7.1 7.4 10.7 1.7 3.6 3.6 8.3 4.2 10.5 0.6 2.2 1.4 7.4 1.7 11.5 0.4 4.5 0.2 10.3-0.6 14.5-0.6 3.9-2 9.4-3.1 12.3-1.3 3.6-2.3 5-3.1 4.5q-1.3-0.8-0.5 0.5c0.4 0.7-0.7 3.4-2.5 6.4-1.8 2.8-4.6 6.3-6.3 7.7-1.6 1.5-5.5 4.1-8.5 5.8-3.4 2-8.3 3.7-12.8 4.5-6.4 1.1-7.4 1.1-8.2-0.2q-1-1.5-1-0.2c0 0.8-1 1-3.2 0.6-1.8-0.3-6.1-1.9-9.5-3.5-3.5-1.6-8.2-4.8-10.6-7.1-2.4-2.4-6-7.7-8-11.8-2-4.1-4.2-10-4.7-13-0.6-3-1-8.3-1-11.7 0-3.5 0.7-9.3 1.6-13 0.9-3.8 2.9-9.5 4.5-12.8 1.6-3.3 4.9-8.4 7.4-11.2 2.5-2.9 5-5.1 5.5-4.8 0.5 0.3 0.9 0 0.8-0.7-0.2-0.6 1.7-2.4 4.2-4 2.5-1.5 6.8-3.5 9.5-4.3 3-0.9 8.2-1.3 13-1.2zm-29.5 47.7c0 4.1 0.4 5.3 2.3 6.5 1.2 0.8 3.8 1.5 5.7 1.5q3.5 0.1 5.7-2.2c1.6-1.6 2.3-3.5 2.3-6.5 0-3.3-0.6-4.9-2.5-6.8-1.6-1.6-3.6-2.5-5.5-2.5-2 0-4 0.9-5.5 2.5-1.9 1.9-2.4 3.5-2.5 7.5zm151.3 130.1c0.4-0.1 1.9 0.5 3.3 1.2 1.5 0.6 3.3 2.4 4 4 0.8 1.5 1.4 3.9 1.4 5.5 0 1.5-0.8 4.2-1.7 5.9-1 1.8-4.9 5.8-8.8 8.8-3.8 3.1-10.4 8.6-14.4 12.3-4.1 3.7-8 6.5-8.5 6.4-0.6-0.2-0.8 0-0.3 0.5 0.4 0.4-1 2.5-3 4.5-2.1 2.1-4.1 3.5-4.5 3.3-0.5-0.3-0.7-0.1-0.5 0.4 0.1 0.5-1.4 2.6-3.3 4.7-1.9 2.2-6.7 7.9-10.5 12.9-3.9 5-8.4 11.1-10 13.7-1.7 2.6-3.2 4.5-3.5 4.3-0.3-0.2-0.6 0.2-0.7 0.8-0.1 0.7-2.4 5.6-5.2 11-2.8 5.3-5.4 9.4-5.8 9-0.3-0.5-0.3-0.3 0 0.2 0.3 0.5-0.7 5.2-2.4 10.3-1.6 5-3.6 13.1-4.4 18-1 5.8-1.4 12.4-1.1 19.7 0.3 6 1.4 14.6 2.5 19 1.1 4.4 3.6 11.8 5.6 16.5 2 4.7 6.2 12.3 9.3 17 3.1 4.7 10 12.8 15.2 18.1 5.2 5.3 12.9 12.1 17 15.2 4.1 3 10.1 7 13.2 8.9 3.2 1.8 5.5 3.6 5.3 4.1-0.3 0.4-0.2 0.5 0.3 0.2 0.4-0.2 2.7 0.6 5.2 1.9 2.5 1.3 8.1 3.8 12.5 5.6 4.4 1.7 11.6 4 16 5.1 4.4 1 11.3 1.9 15.3 1.9 3.9 0 8.4-0.6 9.8-1.2 1.4-0.7 3.3-2.4 4.1-3.8 0.9-1.4 1.8-3.4 2-4.5 0.2-1.1 0.4-4 0.4-6.5 0-2.5-0.6-7.4-1.4-11-0.9-3.6-2.5-9-3.7-12-1.2-3-6.3-14.5-11.2-25.5-5-11-10.9-24.7-13-30.5-2.2-5.8-4.6-13.4-5.3-17q-1.3-6.5-0.4-9.7c0.5-1.8 1.9-4 3.2-4.8 1.2-0.8 3.7-1.7 5.5-2 1.7-0.3 4.1 0 5.2 0.5 1.1 0.5 2.9 2.7 3.9 4.8 1.1 2 3.1 6.7 4.5 10.5 1.4 3.7 2.3 7.3 1.9 8-0.3 0.7-0.2 0.9 0.3 0.4 0.5-0.4 1.5 0.6 2.2 2.3 0.6 1.6 0.9 3.6 0.5 4.3-0.3 0.7-0.2 0.9 0.3 0.4 0.5-0.4 2.6 2.9 4.7 7.5 2.1 4.6 6 11.9 8.7 16.3 2.6 4.4 7 10.2 9.6 12.8 2.7 2.7 6 5 7.4 5.3 1.4 0.3 3.5-0.1 4.8-1 1.2-0.9 3-3.3 3.9-5.3 1.2-2.8 1.7-6.5 1.7-13.8 0-5.5-0.6-14-1.4-19-0.7-5-1.6-9.9-2.1-11-0.4-1.1-0.4-2.6 0.2-3.2 0.5-0.7 0.6-1 0.2-0.7-0.5 0.3-2.1-5.5-3.6-12.8-1.6-7.3-2.9-14.7-3-16.5-0.1-1.7-0.4-2.9-0.7-2.8-0.3 0.2-1.7-5.1-3.3-11.8-1.5-6.7-2.7-14.1-2.7-16.4 0-3.2 0.6-4.9 2.5-6.8 1.4-1.4 3.7-2.8 5.3-3.1 1.5-0.3 3.7-0.1 5 0.5 1.2 0.6 3.3 2.8 4.5 4.9 1.3 2 3.3 6.4 4.5 9.7 1.1 3.3 3.1 10 4.5 15 1.4 5 3.4 13.3 4.6 18.5 1.1 5.2 2.7 13.5 3.5 18.5 0.8 5 1.8 11.9 2.2 15.5 0.4 3.6 0.8 11.9 0.8 18.5 0.1 6.6-0.1 13.8-0.4 16-0.3 2.2-0.8 4.5-1.1 5-0.3 0.5-1.2 3-2 5.5-0.9 3-3.2 6.4-6.9 10.2-4.3 4.4-6.7 6-11 7.2-3 0.9-7 1.6-8.7 1.6-3.1 0-3.3 0.2-2.5 2.8 0.4 1.5 0.7 8.1 0.7 14.7 0 10.8-0.3 12.6-2.6 17.5-1.4 3-4.3 7.5-6.5 9.8-2.1 2.4-6.1 5.5-8.9 6.9-2.8 1.4-5.8 2.2-6.7 1.9-1.1-0.3-1.6-0.2-1.3 0.4 0.3 0.6-1.9 1.2-5.2 1.6-3.2 0.3-9.6 0.1-14.3-0.5-4.7-0.6-12.1-2-16.5-3.1-4.4-1.2-12-3.7-17-5.7-5-2-9.9-4.2-11-4.8-1.1-0.7-5.6-3.2-10-5.5-4.4-2.3-12-7-17-10.4-5.3-3.6-14.1-11.2-21.5-18.6-7.7-7.7-14.7-15.8-18.2-21-3-4.7-7.5-12.3-9.8-17-2.3-4.7-5.3-11.4-6.5-15-1.3-3.6-2.8-8.3-3.4-10.5-0.5-2.2-1.3-5.4-1.6-7-0.3-1.6-1-6.6-1.6-11-0.6-4.6-0.8-12.5-0.4-18.5 0.4-5.8 1.6-14.8 2.7-20 1.1-5.2 3.2-12.6 4.5-16.5 1.4-3.9 4.7-11.3 7.3-16.5 2.6-5.2 7.6-13.8 11-19 3.5-5.2 8.3-12.2 10.8-15.5 2.5-3.3 11.1-12.7 19.1-20.9 8.1-8.1 18.2-17.6 22.6-21.1 4.4-3.4 10.7-7.9 14-10 3.3-2.1 7.1-4.2 8.5-4.6 1.4-0.4 2.8-0.8 3.3-0.8zm-270.3 51c1.4-0.1 3.5 0.6 4.8 1.4 1.2 0.8 2.9 2.9 3.7 4.5 0.8 1.6 1.2 3.6 0.8 4.3q-0.8 1.2 0.5 0.5c0.9-0.6 1.2 0.4 1.2 3.7 0 2.5 0.7 7.8 1.6 11.8 0.9 3.9 3.1 10.1 4.8 13.6 1.9 3.8 5.3 8.4 8.6 11.6 4.2 4 6.9 5.6 11.5 7 4.1 1.2 7.5 1.5 10.5 1.1 2.5-0.4 6.5-1.9 8.9-3.4 2.4-1.5 5.1-3.2 6-3.7 1-0.5 1.8-1.3 1.9-1.7 0.1-0.5 1.7-3.2 3.6-6 1.9-2.9 3.7-6.5 4-8q0.6-2.8 1.8-2 1.3 0.7 0.5-0.5c-0.4-0.7-0.5-2.4-0.2-3.8 0.3-1.4 1-2.3 1.5-2 0.5 0.3 0.7-0.1 0.4-0.7-0.3-0.7 0.1-3.8 1-6.8 0.8-3 2.4-6.4 3.6-7.5 1.5-1.3 3.6-2 6.2-2 3.1 0 4.5 0.6 6.4 2.8 2 2.2 2.4 3.8 2.4 9 0 3.4-0.7 8.7-1.7 11.7-0.9 3-1.7 5.7-1.8 6-0.1 0.3-1.6 3.5-3.3 7.3-2.2 4.6-3.6 6.5-4.4 6-0.8-0.5-1-0.4-0.6 0.2 0.4 0.5-0.4 2.6-1.8 4.5-1.4 1.9-3 3.4-3.5 3.3-0.5-0.2-0.7 0.2-0.4 0.7 0.3 0.5-1.3 2.6-3.5 4.5-2.2 1.9-4.7 3.5-5.5 3.5-0.8 0-1.5 0.5-1.5 1 0 0.5-3 2.4-6.7 4.1-3.9 1.8-7.5 2.9-8.5 2.5-1.1-0.3-1.6-0.2-1.3 0.4 0.3 0.6-1.1 1-3.2 1.1-2.1 0.1-5.6 0-7.8-0.1-2.2-0.1-6.2-0.8-9-1.5-2.7-0.8-7.7-3.2-11-5.3-3.3-2.1-8.4-6.5-11.3-9.8-2.9-3.2-6.3-8-7.5-10.6-1.2-2.6-2.4-4.7-2.7-4.8-0.3 0-1.3 1.5-2.2 3.5-1 1.9-3.6 5.9-5.7 8.8-2.2 2.8-5.9 6.8-8.3 8.7-2.4 1.9-6.8 4.7-9.8 6.2-3 1.5-7.5 3.2-10 3.7-2.5 0.6-7.5 1.1-11.2 1.1-3.8 0-9.4-0.8-12.5-1.8-3.2-1-8.2-3.3-11.2-5.2-3-1.9-7.9-6.2-10.9-9.5-3.3-3.7-7.1-9.5-9.7-15-2.4-5-5.1-12.4-6-16.5-0.9-4.1-1.7-10.1-1.6-13.2 0.1-3.2 0.8-7.2 1.6-8.8 0.8-1.6 2.4-3.5 3.5-4 1.1-0.5 3.1-1 4.5-1 1.4 0 3.5 0.5 4.8 1.2 1.2 0.6 2.7 1.6 3.3 2.2 0.7 0.6 1.9 4.9 2.8 9.6 0.9 4.7 2.4 11.2 3.2 14.5 0.9 3.3 2.8 8.2 4.2 10.9 1.5 2.7 5 7 7.7 9.5 2.8 2.5 6.9 5.2 9 5.8 2.2 0.7 6.3 1.3 9 1.3 3.5 0 6.6-0.8 10.4-2.7 3.2-1.6 7.3-4.9 9.8-7.8 2.3-2.7 5.7-7.9 7.4-11.5 1.7-3.6 3.9-10.3 5-15 1-4.7 2-10.1 2.3-12 0.3-1.9 1.5-4.8 2.6-6.3 1.2-1.6 3.1-3.3 4.3-3.7 1.2-0.5 3.3-0.9 4.7-0.9zm-32.7 92.9c2.1-0.1 4.2 0.8 6 2.5 1.5 1.4 2.9 3.5 3.2 4.8 0.3 1.2 1.2 5.6 2 9.7 0.8 4.1 2.7 10 4.1 13 1.4 3 4.2 7.2 6.2 9.3 2 2.1 5.5 4.8 7.7 6 2.7 1.4 5.9 2 10 2.1 4.2 0 7.5-0.7 10.8-2.2 2.6-1.2 6.6-4.2 9-6.5 2.3-2.4 5.6-7.3 7.4-10.8 1.7-3.5 3.9-9.1 4.8-12.4 0.9-3.3 1.8-6.3 2-6.7 0.3-0.5 1.1-0.5 1.7 0q1.3 0.7 0.5-0.5c-0.4-0.8 0.2-1.8 1.8-2.5 2.1-1 3.4-1 6.5 0 2.2 0.6 4.5 2.1 5 3.2 0.6 1.1 1.3 4.1 1.7 6.8 0.5 3.5 0.4 4.5-0.5 4-0.8-0.6-1-0.3-0.6 1 0.4 0.9-0.2 4.3-1.2 7.4-1.1 3.3-2.3 5.4-2.9 5-0.6-0.4-0.7-0.2-0.2 0.6 0.4 0.6 0.5 1.9 0.2 2.7-0.3 0.9-1 1.2-1.7 0.8q-1.3-0.8-0.5 0.5c0.4 0.6 0.5 1.9 0.2 2.7-0.3 0.9-1 1.2-1.7 0.8q-1.3-0.8-0.5 0.5c0.4 0.7-0.8 3.1-3.1 6-2.1 2.6-5.4 6.1-7.3 7.7-1.9 1.7-5.5 4.3-8.1 5.8-2.7 1.5-5.3 2.4-6 2q-1.3-0.8-0.5 0.5c0.5 0.9-1.2 1.6-6.3 2.7-3.8 0.8-8.3 1.5-10 1.5-1.6 0-6-0.7-9.7-1.5-3.8-0.8-9.5-3.1-12.8-5.1-3.3-1.9-7.5-5-9.3-6.7-1.9-1.8-4.7-5.1-6.3-7.4-1.7-2.5-2.6-4.8-2.2-5.5q0.8-1.3-0.5-0.5c-0.8 0.5-1.8-1.1-3.3-5-1.1-3.2-2.7-8.7-3.6-12.3-1-4.3-1.3-8.6-0.9-12.9 0.5-5 1.2-6.9 3.2-8.7 1.5-1.5 3.8-2.4 5.7-2.4z"/><path class="e" d="m711.6 481.3c-0.3 1.2-0.6 5-0.6 8.4 0 3.5 0.5 7.5 1.1 9 0.6 1.6 2 3.8 3.2 5.1 1.2 1.2 3.2 2.2 4.4 2.2 1.3 0 3.7-1.2 5.4-2.8 2.6-2.2 3.1-3.4 3-6.5 0-2-0.9-4.9-1.9-6.4-0.9-1.4-4.3-4.6-7.5-7-3.1-2.3-5.9-4.3-6.1-4.3-0.2 0-0.7 1-1 2.2zm70.4 119.5c-0.5 2.1-1.5 6.7-2.1 10.3-0.6 3.6-1 11.2-0.7 17 0.2 6.9 0.9 11.5 2 13.5 0.8 1.6 2.8 3.6 4.4 4.3 2.4 1.1 3.4 1.1 5.7 0 1.5-0.7 3.3-2.7 3.9-4.3 0.7-1.6 1.1-5.3 1-8 0-2.8-0.3-5.9-0.6-7-0.2-1.1-1.9-6-3.6-11-1.8-5-4.3-11.1-5.6-13.8-1.3-2.6-2.6-4.7-2.9-4.7-0.2 0-0.9 1.7-1.5 3.7z"/><path class="b" d="m663.8 580.8c-1.4 1.5-3.4 4.3-4.3 6.2-1 1.9-2.6 6-3.7 9-1.1 3.2-1.9 8.6-1.9 13-0.1 5.1 0.4 8.5 1.5 10.8 0.9 1.7 2.8 4.1 4.4 5.3 1.5 1.1 3.6 2.3 4.7 2.6 1.1 0.3 3.2 0.2 4.8-0.1 1.5-0.3 4.2-1.9 6-3.5 1.7-1.5 3.8-4.6 4.4-6.7 0.7-2.1 1.3-5.7 1.3-7.9 0-2.2-0.6-6.2-1.4-9-0.7-2.7-2.3-7.2-3.5-10-1.3-2.7-3.6-6.7-5.2-8.7-1.6-2.1-3.3-3.8-3.7-3.8-0.5 0-2 1.2-3.4 2.8zm35.9 33.5c-1.4 1.7-3.7 5.6-5.1 8.5-1.4 2.8-3.5 8.5-4.6 12.5-1.3 4.7-2 9.9-1.9 15.2 0.1 4.7 0.8 9.9 1.8 12.5 1 2.9 2.8 5.2 5.1 6.7 2.8 1.8 4.6 2.2 8.5 2 2.8-0.2 5.1-0.9 5.3-1.6 0.1-0.6 0.7-0.9 1.2-0.6 0.6 0.3 2.1-0.8 3.5-2.5 1.4-1.6 2.3-3.5 2-4-0.3-0.5 0-1 0.5-1 0.6 0 0.8-0.7 0.5-1.5-0.3-0.8 0-1.5 0.5-1.5 0.6 0 0.9-0.8 0.8-1.7-0.1-1 0.1-2.5 0.6-3.3 0.5-0.9 0.4-1.9-0.2-2.5-0.6-0.5-0.8-2.3-0.5-4 0.3-1.6 0.2-3.9-0.2-5-0.4-1.1-0.7-2.8-0.7-3.7 0.1-1-0.1-1.8-0.5-1.8-0.5 0-0.9-1.2-1-2.8-0.1-1.5-0.6-2.8-1.2-2.9-0.6-0.2-0.9-0.8-0.6-1.3 0.3-0.5-0.3-2.6-1.2-4.5-1-2-2.1-3.5-2.5-3.5-0.5 0-0.6-0.3-0.3-0.7 0.2-0.5-0.9-2.9-2.5-5.5-1.7-2.7-3.4-4.8-4-4.8-0.5 0-2 1.5-3.3 3.3z"/></svg>